SplineFontDB: 3.0
FontName: GrazhdanskiyShrift
FullName: Grazhdanskiy Shrift
FamilyName: Grazhdanskiy Shrift
Weight: Regular
Copyright: Copyright (c) 2018, Stefan Peev. Context Ltd.
UComments: "2018-4-19: Created with FontForge (http://fontforge.org)"
Version: 001.000
ItalicAngle: 0
UnderlinePosition: -100
UnderlineWidth: 50
Ascent: 800
Descent: 200
InvalidEm: 0
LayerCount: 2
Layer: 0 0 "Back" 1
Layer: 1 0 "Fore" 0
PreferredKerning: 4
XUID: [1021 1017 285194369 3308]
FSType: 0
OS2Version: 0
OS2_WeightWidthSlopeOnly: 0
OS2_UseTypoMetrics: 1
CreationTime: 1524147800
ModificationTime: 1529330368
PfmFamily: 17
TTFWeight: 400
TTFWidth: 5
LineGap: 90
VLineGap: 0
OS2TypoAscent: 0
OS2TypoAOffset: 1
OS2TypoDescent: 0
OS2TypoDOffset: 1
OS2TypoLinegap: 90
OS2WinAscent: 0
OS2WinAOffset: 1
OS2WinDescent: 0
OS2WinDOffset: 1
HheadAscent: 0
HheadAOffset: 1
HheadDescent: 0
HheadDOffset: 1
OS2Vendor: 'Cont'
Lookup: 1 0 0 "'ss01' Style Set 1 lookup 0" { "'ss01' Style Set 1 lookup 0-1" ("ss01") } ['ss01' ('DFLT' <'dflt' > 'cyrl' <'dflt' > 'latn' <'dflt' > ) ]
Lookup: 1 0 0 "'ss02' Style Set 2 lookup 1" { "'ss02' Style Set 2 lookup 1-1" ("ss02") } ['ss02' ('DFLT' <'dflt' > 'cyrl' <'dflt' > 'latn' <'dflt' > ) ]
Lookup: 1 0 0 "'ss03' Style Set 3 lookup 2" { "'ss03' Style Set 3 lookup 2-1" ("ss03") } ['ss03' ('DFLT' <'dflt' > 'cyrl' <'dflt' > 'latn' <'dflt' > ) ]
MarkAttachClasses: 1
DEI: 91125

StartChar: uni041D
Encoding: 189 1053 0
GlifName: uni041D_
Width: 922
VWidth: 0
Flags: W
HStem: 0 38<90.0023 158 250 317.998 604.002 672 764 831.998> 322 38<210 704> 662 38<91.0022 158 250 317.998 605.002 672 764 831.998>
VStem: 158 92<38 322 360 662> 210 40<322 360> 672 92<38 322 360 662> 672 32<322 360>
LayerCount: 2
Fore
SplineSet
98 700 m 1xf0
 311 700 l 1
 315 694.412109375 318 688.823242188 318 681 c 0
 318 674.293945312 315.381835938 662 311 662 c 2
 260 662 l 2
 254 662 250 658 250 652 c 2
 250 48 l 2
 250 42 254 38 260 38 c 2
 311 38 l 2
 315.381835938 38 318 25.7060546875 318 19 c 0
 318 11.1767578125 315 5.587890625 311 0 c 1
 97 0 l 1
 92.625 5.587890625 90 13.412109375 90 19 c 0
 90 26.125 93.126953125 38 97 38 c 2
 148 38 l 2
 154 38 158 42 158 48 c 2
 158 652 l 2
 158 658 154 662 148 662 c 2
 98 662 l 2
 94.068359375 662 91 673.875 91 681 c 0
 91 686.587890625 93.625 694.412109375 98 700 c 1xf0
612 700 m 1
 825 700 l 5
 829 694.412109375 832 688.823242188 832 681 c 0
 832 674.293945312 829.381835938 662 825 662 c 2
 774 662 l 2
 768 662 764 658 764 652 c 2
 764 48 l 2
 764 42 768 38 774 38 c 2
 825 38 l 2
 829.381835938 38 832 25.7060546875 832 19 c 0
 832 11.1767578125 829 5.587890625 825 0 c 1
 611 0 l 1
 606.625 5.587890625 604 13.412109375 604 19 c 0
 604 26.125 607.126953125 38 611 38 c 2
 662 38 l 2
 668 38 672 42 672 48 c 2
 672 652 l 2xe4
 672 658 668 662 662 662 c 2
 612 662 l 2
 608.068359375 662 605 673.875 605 681 c 0
 605 686.587890625 607.625 694.412109375 612 700 c 1
210 360 m 1xea
 704 360 l 1
 704 322 l 1
 210 322 l 1
 210 360 l 1xea
EndSplineSet
Substitution2: "'ss03' Style Set 3 lookup 2-1" uni041D.ss03
Substitution2: "'ss01' Style Set 1 lookup 0-1" uni041D.ss01
Colour: ff00
EndChar

StartChar: uni0412
Encoding: 178 1042 1
GlifName: uni0412
Width: 676
VWidth: 0
Flags: HW
HStem: 0 35<90.0775 152 244 404.843> 351 41<244 399.086> 374 11<374 484.791> 663 37<92.0087 152 244 389.266>
VStem: 152 92<38 351 392 662> 461 98<462.571 599.999> 506 100<111.319 270.395>
LayerCount: 2
Fore
SplineSet
99 700 m 1xba
 152 700 l 1
 244 700 l 1
 404.040039062 700 l 2
 477.813476562 700 559 645.466796875 559 539 c 0xbc
 559 453 492.791015625 374 382 374 c 1
 382 385 l 1
 545.943359375 385 606 299.081054688 606 199.115234375 c 2
 606 183 l 2
 606 37.3056640625 498.751953125 0 395.647460938 0 c 2
 244 0 l 1
 152 0 l 1
 97 0 l 2
 93 3.9580078125 90 13 90 19 c 0
 90 25 93 38 97 38 c 2
 142 38 l 2
 148 38 152 42 152 48 c 2
 152 652 l 2
 152 658 148 662 142 662 c 2
 99 662 l 2
 95 662 92 675.818359375 92 681 c 0
 92 686.587890625 95 694.412109375 99 700 c 1xba
324.862304688 663 m 2
 254 663 l 2
 247.813476562 663 244 659.228515625 244 652 c 2
 244 392 l 1
 340.616210938 392 l 2xdc
 392.616210938 392 461 444 461 529 c 0
 461 600.85546875 416.862304688 663 324.862304688 663 c 2
244 359 m 1
 244 41 l 1
 341 41 l 2
 436 41 506 73 506 186 c 0x9a
 506 282.370117188 442.643554688 359 324.643554688 359 c 2
 244 359 l 1
EndSplineSet
Substitution2: "'ss03' Style Set 3 lookup 2-1" uni0412.ss03
Substitution2: "'ss01' Style Set 1 lookup 0-1" uni0412.ss01
Colour: ff00
EndChar

StartChar: uni0413
Encoding: 179 1043 2
GlifName: uni0413
Width: 671
VWidth: 0
Flags: W
HStem: 0 38<90.0022 159 251 320.998> 662 38<91.0022 159 251 544.231>
VStem: 159 92<0 700>
LayerCount: 2
Fore
SplineSet
98 700 m 1
 251 700 l 1
 251 0 l 1
 97 0 l 1
 93 5.587890625 90 13.412109375 90 19 c 0
 90 25.3330078125 93 38 97 38 c 2
 149 38 l 2
 155 38 159 42 159 48 c 2
 159 652 l 2
 159 658 155 662 149 662 c 2
 98 662 l 2
 94 662 91 674.666666667 91 681 c 0
 91 686.588235294 94 694.411764706 98 700 c 1
584 723.010742188 m 1
 584.5859375 715.359375 586.004882812 703 599.004882812 647 c 0
 606.489649687 614.757927309 612.749023438 589.805664062 622 559.010742188 c 1
 597 559.010742188 l 1
 592.944335938 567.584960938 584.817603409 583.033904767 580 592 c 0
 544 662 524 662 452 662 c 2
 251 662 l 1
 251 48 l 2
 251 42 255 38 261 38 c 2
 314 38 l 2
 318 38 321 25.3330078125 321 19 c 0
 321 11.1767578125 318 5.587890625 314 0 c 1
 159 0 l 1
 159 700 l 1
 249 700 l 1
 448.16015625 700 l 2
 508.145507812 700 514.152233716 700.076907716 537.50390625 711.7578125 c 2
 560 723.010742188 l 1
 584 723.010742188 l 1
EndSplineSet
Substitution2: "'ss03' Style Set 3 lookup 2-1" uni0413.ss03
Substitution2: "'ss01' Style Set 1 lookup 0-1" uni0413.ss01
Colour: ff00
EndChar

StartChar: uni0415
Encoding: 181 1045 3
GlifName: uni0415
Width: 689
VWidth: 0
Flags: HW
LayerCount: 2
Fore
SplineSet
508 723 m 1
 519 692 525 673 533 648 c 0
 543 618 555 579 561 559 c 1
 532 559 l 1
 520 579 509 601 499 617 c 0
 472 659 431 662 380 662 c 2
 262 662 l 2
 256 662 252 659 252 652 c 2
 252 367 l 1
 385 367 l 2
 409 367 422 373 422 389 c 2
 422 418 l 2
 422 432 431 436 440 436 c 0
 452 436 460 430 460 418 c 2
 460 269 l 2
 460 257 452 253 440 253 c 0
 427 253 422 259 422 269 c 2
 422 293 l 2
 422 314 410 320 385 320 c 2
 252 320 l 1
 252 38 l 1
 431 38 l 2
 506 38 525 61 561 103 c 0
 576 125 598 147 605 160 c 1
 639 160 l 1
 630 141 618 121 594 76 c 2
 559 -0 l 1
 452 0 l 1
 244 0 l 1
 160 0 l 1
 100 0 l 2
 92 0 90 14 90 19 c 0
 90 25 93 38 100 38 c 2
 150 38 l 2
 156 38 160 42 160 48 c 2
 160 652 l 2
 160 658 156 662 150 662 c 2
 101 662 l 2
 93 662 91 675 91 681 c 0
 91 686 93 700 101 700 c 2
 160 700 l 1
 225 700 l 2
 258 700 351 698 400 700 c 0
 437 700 450 706 484 723 c 1
 508 723 l 1
EndSplineSet
Substitution2: "'ss03' Style Set 3 lookup 2-1" uni0415.ss03
Substitution2: "'ss01' Style Set 1 lookup 0-1" uni0415.ss01
Colour: ff00
EndChar

StartChar: uni0416
Encoding: 182 1046 4
GlifName: uni0416
Width: 889
VWidth: 0
Flags: HW
LayerCount: 2
Fore
SplineSet
364 700 m 1
 537 700 l 1
 541 694 544 689 544 681 c 0
 544 674 541 662 537 662 c 2
 506 662 l 2
 500 662 496 658 496 652 c 2
 496 48 l 2
 496 42 500 38 506 38 c 2
 537 38 l 2
 541 38 544 26 544 19 c 0
 544 11 541 6 537 0 c 1
 363 0 l 1
 359 6 356 13 356 19 c 0
 356 26 359 38 363 38 c 2
 394 38 l 2
 400 38 404 42 404 48 c 2
 404 652 l 2
 404 658 400 662 394 662 c 2
 364 662 l 2
 360 662 357 674 357 681 c 0
 357 687 360 694 364 700 c 1
614 475 m 0
 713 382 784 246 784 101 c 2
 784 48 l 2
 784 42 788 38 794 38 c 2
 832 38 l 2
 838 38 839 26.8235294118 839 19 c 0
 839 10.0588235294 836 4.47058823529 832 0 c 1
 651 0 l 2
 647 0 643 11.1764705882 643 19 c 0
 643 29.0588235294 645 38 651 38 c 2
 683 38 l 2
 689 38 693 42 693 48 c 2
 693 122 l 2
 693 240 641.282220526 358.219524273 593 420 c 0
 500 539 435.058295065 567.546444972 308 622 c 0
 259 643 232 653 216 653 c 0
 181 653 167 640 163 636 c 1
 176 625 181 613 181 595 c 0
 181 559 156 547 131 547 c 0
 99 547 85 571 85 597 c 0
 85 647 127.567164179 687 209 687 c 0
 242.818181818 687 283.121986371 671.128095741 329 649 c 0
 412.784897782 608.588480558 535.105773187 549.112758521 614 475 c 0
275 380 m 0
 238 314 209 160 209 74 c 2
 209 0 l 1
 62 0 l 2
 56 0 50 10.0588235294 50 19 c 0
 50 26.8235294118 55 38 62 38 c 2
 89 38 l 2
 114 38 118.191924932 58.9268552164 122 117 c 0
 130 239 177.779254234 371.165031848 258 454 c 0
 319.98019802 518 484.075540291 608.378438764 571 649 c 0
 626.636363636 675 654.555555556 687 691 687 c 0
 785.9673009 687 815 632 815 597 c 0
 815 571 800.918367347 547 769 547 c 0
 737.867924528 547 719 566 719 595 c 0
 719 609 726 626 735 636 c 1
 729 643 712 653 685 653 c 0
 665.554545455 653 626.889702796 637.917835449 592 622 c 0
 469.747921068 566.224561409 344.323679701 503.658455684 275 380 c 0
EndSplineSet
Substitution2: "'ss03' Style Set 3 lookup 2-1" uni0416.ss03
Substitution2: "'ss01' Style Set 1 lookup 0-1" uni0416.ss01
Colour: ff00
EndChar

StartChar: uni0414
Encoding: 180 1044 5
GlifName: uni0414
Width: 737
VWidth: 0
Flags: HW
HStem: 0 34<203.54 436 550 597.12> 656 34<391.002 458 550 617.998>
VStem: 32.4457 48.5543<-76.6425 10.3604> 458 92<39.1853 439 503 656> 603 51<-76.3194 -8.582>
LayerCount: 2
Fore
SplineSet
436 700 m 1
 649 700 l 1
 653 695 656 690 656 683 c 0
 656 677 653 665 649 665 c 2
 598 665 l 2
 592 665 588 661 588 655 c 2
 588 38 l 1
 707 38 l 1
 707 -8 l 2
 707 -29 681.633936511 -60.8392761872 659 -88 c 0
 644 -106 620 -134 612 -134 c 0
 603 -134 598 -124 598 -119 c 0
 598 -113 608 -98 627 -73 c 0
 639.764245512 -56.2049401159 653 -28 653 -18 c 0
 653 -8 649 -1.46952762459e-015 637 0 c 2
 141 0 l 2
 114 0 106 -6 106 -23 c 0
 106 -55 135 -89 162 -119 c 1
 161.344823658 -124.716470731 148 -134 144 -134 c 1
 110 -108 50 -62 50 11 c 0
 50 34 64 38 74 38 c 2
 147 38 l 2
 175 38 176.957132904 52.565099791 211 97 c 2
 496 469 l 1
 496 655 l 2
 496 661 492 665 486 665 c 2
 436 665 l 2
 432 665 429 677 429 683 c 0
 429 688 432 695 436 700 c 1
496 405 m 1
 231 56 l 2
 224.952745982 48.0358805578 229 38 236 38 c 2
 474 38 l 2
 490 38 496 41 496 65 c 2
 496 405 l 1
EndSplineSet
Substitution2: "'ss03' Style Set 3 lookup 2-1" uni0414.ss03
Substitution2: "'ss01' Style Set 1 lookup 0-1" uni0414.ss01
Colour: ff00
EndChar

StartChar: uni0410
Encoding: 176 1040 6
GlifName: uni0410
Width: 834
VWidth: 0
Flags: HW
LayerCount: 2
Fore
SplineSet
509 301 m 1
 414 542 l 1
 404 542 l 1
 293 301 l 1
 509 301 l 1
60 0 m 2
 54 0 50 13 50 19 c 0
 50 25.7058823529 54 38 60 38 c 2
 81 38 l 2
 91 38 99.5167044859 38.7582106983 109 46 c 0
 114 49.8181818182 123.5734534 59.59981501 137 88 c 2
 380 602 l 2
 395.308672988 634.381308296 413 676 422 700 c 1
 442 700 l 1
 450 676 462.331651215 643.716934632 480 602 c 2
 696 92 l 2
 718.343624642 39.244219595 731 38 751 38 c 2
 774 38 l 2
 780 38 784 25 784 19 c 0
 784 13 780 0 774 0 c 2
 634 0 l 1
 520 270 l 1
 278 270 l 1
 180 63 l 2
 176.791462322 56.2227826592 174 48.975 174 46 c 0
 174 40.9090909091 178.266666667 38 182 38 c 2
 219 38 l 2
 225 38 229 25 229 19 c 0
 229 13 225 -7.34763812293e-016 219 0 c 2
 60 0 l 2
EndSplineSet
Substitution2: "'ss03' Style Set 3 lookup 2-1" uni0410.ss03
Substitution2: "'ss01' Style Set 1 lookup 0-1" uni0410.ss01
Colour: ff00
EndChar

StartChar: uni0411
Encoding: 177 1041 7
GlifName: uni0411
Width: 831
VWidth: 0
Flags: MW
HStem: -18 42<339.2 528.841> 643 42<352.164 513.477> 773 93<592.972 680.031> 867.021 75.9795<366.309 467.96>
VStem: 80 105<211.481 459.644> 669 105<199.833 454.661>
LayerCount: 2
Fore
SplineSet
669 319 m 0
 669 470.61328125 586.371428571 643 428 643 c 0
 271 643 185 484.35546875 185 329 c 0
 185 195.896484375 259 24 429 24 c 0
 596.213114754 24 669 152.791015625 669 319 c 0
80 340 m 0
 80 611 178.359450008 816.125843594 343 909 c 0
 382 931 412.684570312 943 450 943 c 0
 485 943 517.93835637 931.892367789 558 909 c 0
 593 889 620 866 640 866 c 0
 679.177734375 866 690.055253067 903.573376224 699 931 c 0
 702.701171875 942.348632812 711 943 721 943 c 0
 728 943 738 937 738 922 c 0
 738 885 713.764150561 825.274259107 693 804 c 0
 675.19140625 785.75390625 638 773 618 773 c 0
 571.9453125 773 537.910607542 799.50163523 500.724609375 824.979492188 c 0
 456.299804688 855.416992188 426.275390625 867.020507812 391.275390625 867.020507812 c 0
 346.275390625 867.020507812 308.934841436 827.042792205 277 778 c 0
 249 735 207 577 207 552 c 1
 258.616210938 622.685546875 343 685 460 685 c 0
 651 685 774 541.36328125 774 323 c 0
 774 129 634.287109375 -18 425 -18 c 0
 242 -18 80 127 80 340 c 0
EndSplineSet
Substitution2: "'ss03' Style Set 3 lookup 2-1" uni0411.ss03
Substitution2: "'ss01' Style Set 1 lookup 0-1" uni0411.ss01
Colour: ff00
EndChar

StartChar: uni041A
Encoding: 186 1050 8
GlifName: uni041A_
Width: 836
VWidth: 0
Flags: HW
LayerCount: 2
Fore
SplineSet
98 700 m 1
 311 700 l 1
 315 694 318 689 318 681 c 0
 318 674 315 662 311 662 c 2
 260 662 l 2
 254 662 250 658 250 652 c 2
 250 48 l 2
 250 42 254 38 260 38 c 2
 311 38 l 2
 315 38 318 26 318 19 c 0
 318 11 315 6 311 0 c 1
 97 0 l 1
 93 6 90 13 90 19 c 0
 90 26 93 38 97 38 c 2
 148 38 l 2
 154 38 158 42 158 48 c 2
 158 652 l 2
 158 658 154 662 148 662 c 2
 98 662 l 2
 94 662 91 674 91 681 c 0
 91 687 94 694 98 700 c 1
254 335 m 1
 208 335 l 1
 208 380 l 1
 295 380 l 2
 370 380 459 292 504 216 c 0
 522 185 538 155 563 125 c 0
 591 91 631 59 684 59 c 0
 752 59 756 82 769 82 c 0
 779 82 786 78 786 70 c 0
 786 67 786 60 782 55 c 0
 759 28 697 0 630 0 c 0
 585 0 540 18 502 52 c 0
 463 87 432 138 408 182 c 0
 373 246 304 335 254 335 c 1
 254 335 l 1
471 562 m 2
 295 380 l 1
 254 335 l 1
 208 335 l 1
 208 380 l 1
 240 380 l 1
 433 576 l 2
 459 602 476 624 476 639 c 0
 476 646 473 666 454 666 c 2
 436 666 l 2
 430 666 426 677 426 683 c 0
 426 689 430 697 436 700 c 2
 630 700 l 2
 636 700 640 692 640 683 c 0
 640 673 636 666 630 666 c 2
 594 666 l 2
 581 666 559 648 546 637 c 0
 525 620 499 594 471 562 c 2
EndSplineSet
Substitution2: "'ss03' Style Set 3 lookup 2-1" uni041A.ss03
Substitution2: "'ss01' Style Set 1 lookup 0-1" uni041A.ss01
Colour: ff00
EndChar

StartChar: uni041E
Encoding: 190 1054 9
GlifName: uni041E_
Width: 840
VWidth: 0
Flags: HW
LayerCount: 2
Fore
SplineSet
690 338 m 0
 690 538.517857143 595.683453238 680 414 680 c 0
 261 680 165 541.350649351 165 366 c 0
 165 148.862170088 272 20 426 20 c 0
 599.684210526 20 690 178.49201278 690 338 c 0
60 341 m 0
 60 522.822888283 176 718 426 718 c 4
 613.470422535 718 780 585.324786325 780 357 c 0
 780 164 643.392550143 -18 432 -18 c 0
 190 -18 60 151 60 341 c 0
EndSplineSet
Substitution2: "'ss03' Style Set 3 lookup 2-1" uni041E.ss03
Substitution2: "'ss01' Style Set 1 lookup 0-1" uni041E.ss01
Colour: ff00
EndChar

StartChar: uni0417
Encoding: 183 1047 10
GlifName: uni0417
Width: 548
VWidth: 0
Flags: HW
LayerCount: 2
Fore
SplineSet
150 17 m 0
 133 28 119 39 111 39 c 0
 101 39 96 31 96 16 c 0
 96 3 80 -6 71 -6 c 0
 63 -6 50 -4 50 10 c 2
 50 212 l 2
 50 224 62 224 68 224 c 0
 81 224 85 208 89 190 c 0
 102 134 134 77 178 55 c 0
 206 41 243 33 270 33 c 0
 348 33 409 85 409 174 c 0
 409 234 383 264 301 296 c 1
 227 319 l 2
 125 352 79 410 79 517 c 0
 79 656 184 707 282 707 c 0
 303 707 324 704 345 698 c 0
 356 695 367 694 374 694 c 0
 382 694 398 694 403 697 c 0
 409 701 420 708 426 708 c 0
 433 708 443 705 443 696 c 2
 443 527 l 2
 443 509 432 510 423 510 c 0
 416 510 409 515 407 527 c 0
 394 659 352 668 286 668 c 0
 216 668 152 625 152 550 c 0
 152 482 172 440 241 420 c 2
 350 391 l 2
 440 365 495 313 498 184 c 0
 498 34 388 -18 278 -18 c 0
 229 -18 177 -1 150 17 c 0
EndSplineSet
Substitution2: "'ss03' Style Set 3 lookup 2-1" uni0417.ss03
Substitution2: "'ss01' Style Set 1 lookup 0-1" uni0417.ss01
Colour: ff00
EndChar

StartChar: uni0418
Encoding: 184 1048 11
GlifName: uni0418
Width: 408
VWidth: 0
Flags: W
HStem: 0 38<90.0023 158 250 317.998> 662 38<91.0022 158 250 317.998>
VStem: 158 92<38 662>
LayerCount: 2
Fore
SplineSet
98 700 m 1
 311 700 l 5
 315 694.411764706 318 688.823529412 318 681 c 0
 318 674.294117647 315.381630826 662 311 662 c 2
 260 662 l 2
 254 662 250 658 250 652 c 2
 250 48 l 2
 250 42 254 38 260 38 c 2
 311 38 l 2
 315.381630825 38 318 25.7058823529 318 19 c 0
 318 11.1764705882 315 5.58823529412 311 0 c 1
 97 0 l 1
 92.625 5.58823529412 90 13.4117647059 90 19 c 0
 90 26.125 93.1273320616 38 97 38 c 2
 148 38 l 2
 154 38 158 42 158 48 c 2
 158 652 l 2
 158 658 154 662 148 662 c 2
 98 662 l 2
 94.067929362 662 91 673.875 91 681 c 0
 91 686.588235294 93.625 694.411764706 98 700 c 1
EndSplineSet
Substitution2: "'ss03' Style Set 3 lookup 2-1" uni0418.ss03
Substitution2: "'ss01' Style Set 1 lookup 0-1" uni0418.ss01
Colour: ff00
EndChar

StartChar: uni041B
Encoding: 187 1051 12
GlifName: uni041B_
Width: 877
VWidth: 0
Flags: HW
LayerCount: 2
Fore
SplineSet
50 27 m 2
 50 60 70 83 97 83 c 0
 119 83 135 69 145 50 c 1
 162 85 175 107 188 135 c 2
 407 614 l 1
 407 626 387 668 367 668 c 2
 313 668 l 2
 305 668 298 688 298 691 c 0
 298 700 300 710 313 710 c 0
 323 710 347 702 397 700 c 0
 422 700 461 708 469 710 c 2
 475 710 l 1
 475 703 473 685 475 680 c 2
 737 76 l 2
 750 50 763 36 775 36 c 0
 783 36 791 47 807 47 c 0
 820 47 827 37 827 28 c 0
 827 16 822 0 801 0 c 0
 795 0 766 5 761 5 c 0
 740 5 684 0 674 0 c 0
 667 0 658 38 654 49 c 0
 650 60 636 94 611 155 c 2
 423 575 l 1
 421 575 l 1
 201 106 l 2
 184 65 163 23 154 14 c 0
 132 -10 125 -18 104 -18 c 0
 82 -18 50 -3 50 27 c 2
 50 27 l 2
EndSplineSet
Substitution2: "'ss03' Style Set 3 lookup 2-1" uni041B.ss03
Substitution2: "'ss01' Style Set 1 lookup 0-1" uni041B.ss01
Colour: ff00
EndChar

StartChar: uni041C
Encoding: 188 1052 13
GlifName: uni041C_
Width: 952
VWidth: 0
Flags: HW
LayerCount: 2
Fore
SplineSet
50 19 m 1
 50 25.7060546875 53.6865234375 38 57 38 c 2
 82 38 l 2
 97.6044921875 38 113.311523438 50.048828125 115.951171875 73 c 0
 121.838867188 124.205078125 125.508789062 216.859375 128.127929688 321 c 2
 136.227539062 643 l 2
 136.5207252 654.996417877 133 662 123 662 c 2
 85 662 l 1
 80.2255859375 667.637695312 78 674.293945312 78 681 c 0
 78 687.706054688 81.1923828125 694.947265625 85 700 c 1
 212 700 l 1
 462 333 l 1
 706.369140625 691.57421875 l 2
 710.075195312 697.01171875 715.888671875 700 723.96875 700 c 2
 855 700 l 1
 859 694.412109375 862 688.823242188 862 681 c 0
 862 674.293945312 859.381835938 662 855 662 c 2
 810 662 l 2
 804 662 800 658 800 652 c 2
 800 48 l 2
 800 42 804.002929688 38.1171875 810 38 c 2
 855 38 l 2
 859.379882812 37.9091796875 862 25.7060546875 862 19 c 0
 862 11.1767578125 859 5.587890625 855 0 c 1
 665 0 l 1
 660.625 5.587890625 658 13.412109375 658 19 c 0
 658 26.125 661.127929688 38 665 38 c 2
 708 38 l 2
 714 38 718 42 718 48 c 2
 718 651 l 1
 433 230 l 1
 164 626 l 1
 162 316 l 2
 161.120989127 179.753314687 159 90 159 73 c 0
 159 48.9385315757 167 38 179 38 c 2
 211 38 l 2
 215.971679688 38 218 25.7060546875 218 19 c 0
 218 12.2939453125 214.764648438 0 211 0 c 2
 57 0 l 2
 53.75 0 50 12.2939453125 50 19 c 1
 50 19 l 1
EndSplineSet
Substitution2: "'ss03' Style Set 3 lookup 2-1" uni041C.ss03
Substitution2: "'ss01' Style Set 1 lookup 0-1" uni041C.ss01
Colour: ff00
EndChar

StartChar: uni0445
Encoding: 229 1093 14
GlifName: uni0445
Width: 610
VWidth: 0
Flags: HW
LayerCount: 2
Fore
SplineSet
90 16 m 0
 90 22 94 32 100 32 c 2
 122.397460938 32 l 2
 140.44921875 32 156.425462347 33.9310749778 173.868164062 53.40234375 c 0
 183.029296875 63.62890625 195.148179446 79.0272176354 207.905273438 97.24609375 c 2
 266.33203125 185.6875 l 1
 183 327 l 2
 168.422683462 350.495357046 154 364 134 364 c 1
 120 364 l 1
 114 364 110.038085938 374 110.038085938 380 c 0
 110.038085938 386 114 396 120 396 c 2
 196.732421875 396 l 2
 207.955882415 396 218.384676312 390.270506854 233 368 c 2
 321.157226562 226.66796875 l 1
 399.637695312 346.211914062 l 2
 406.242527778 355.68349235 405.402110425 362.623803464 403.654296875 364.423828125 c 0
 397.072441111 371.202298686 394 375.102710089 394 380 c 0
 394 386 397.600640733 396 404.00390625 396 c 0
 497 396 l 0
 503 396 507 386 507 380 c 0
 507 374 503 364 497 364 c 1
 488.1015625 364 l 2
 464.954101562 364 432.364942284 351.621697014 419.465820312 333.3515625 c 2
 334.5390625 206.0625 l 1
 401.732421875 97.59375 l 2
 431.675619604 51.4852465882 447.579101562 32 481.950195312 32 c 2
 510 32 l 0
 516 32 520 22 520 16 c 0
 520 10 516 -7.34763812293e-016 510 0 c 2
 384.076171875 0 l 1
 278.905273438 166.326171875 l 1
 230.166992188 91.7197265625 l 2
 216.644757089 72.9920709706 210.32770126 59.8050297009 204.123046875 49.345703125 c 0
 199.671550777 38.0708691678 203 32 209 32 c 1
 220 32 l 1
 226 32 230 22 230 16 c 0
 230 10 226 -7.34763812293e-016 220 0 c 2
 152.532226562 0 l 1
 100 0 l 2
 94 0 90 10 90 16 c 0
EndSplineSet
Substitution2: "'ss03' Style Set 3 lookup 2-1" uni0445.ss03
Substitution2: "'ss01' Style Set 1 lookup 0-1" uni0445.ss01
EndChar

StartChar: exclam
Encoding: 33 33 15
GlifName: exclam
Width: 411
Flags: HW
HStem: -8 110<193 222.5> 661 20G 694 20G
VStem: 150 116<30 60.5> 185 45
LayerCount: 2
Fore
SplineSet
264 683 m 0xe8
 251 560 236 381 230 231 c 1
 218 226 202 225 185 225 c 1
 174 416 163 543 145 681 c 1
 172 687 224 702 246 714 c 1
 258.25 709.625 264.375 702.1875 264.375 689.0078125 c 0
 264.375 687.125 264.25 685.125 264 683 c 0xe8
266 50 m 0xf0
 266 10 238 -8 207 -8 c 0
 171 -8 150 14 150 45 c 0
 150 76 175 102 211 102 c 0
 245 102 266 73 266 50 c 0xf0
EndSplineSet
Validated: 1
EndChar

StartChar: quotedbl
Encoding: 34 34 16
GlifName: quotedbl
Width: 343
Flags: HW
HStem: 694 20G
VStem: 79 39 224 41
LayerCount: 2
Fore
SplineSet
136 681 m 0
 135 677 135 672 134 667 c 0
 128 614 124 554 118 479 c 1
 105 479 85 482 79 488 c 1
 76 557 70 628 60 693 c 1
 78 696 103 704 116 714 c 1
 128.570820663 711.306252715 136.304125036 701.356230995 136.304125036 686.321775901 c 0
 136.304125036 684.61250543 136.204168477 682.83751629 136 681 c 0
283 687 m 2
 283 681 l 1
 276 624 271 563 265 478 c 1
 251 478 231 481 224 487 c 1
 221 556 216 628 206 693 c 1
 224 696 249 705 263 714 c 1
 275 711 283 702 283 687 c 2
EndSplineSet
Validated: 1
EndChar

StartChar: numbersign
Encoding: 35 35 17
GlifName: numbersign
Width: 592
Flags: W
HStem: -8 21G<146 146 354 354> 214 49<320.5 353 411 508> 443 49<252 401 95 241 459 484 484 550> 694 20
VStem: 30 532<212 492>
LayerCount: 2
Fore
SplineSet
484 443 m 1
 449 443 l 1
 411 263 l 1
 520 263 l 1
 520 243 518 232 508 214 c 1
 411 214 l 1
 401 214 l 1
 354 -8 l 1
 329 -4 320 3 310 14 c 1
 353 214 l 1
 288 214 236 214 193 213 c 1
 146 -8 l 1
 124 -5 111 3 103 18 c 1
 144 213 l 1
 86 212 52 212 30 212 c 1
 30 227 34 246 42 263 c 1
 155 263 l 1
 193 442 l 1
 154 442 118 442 83 441 c 1
 83 456 86 475 95 492 c 1
 204 492 l 1
 251 714 l 1
 269 711 283 706 294 692 c 1
 252 492 l 1
 412 492 l 1
 459 714 l 1
 479 710 493 704 502 694 c 1
 459 492 l 1
 562 492 l 1
 562 472 560 460 550 443 c 1
 484 443 l 1
363 263 m 1
 401 443 l 1
 241 443 l 1
 203 263 l 1
 363 263 l 1
EndSplineSet
Validated: 1
EndChar

StartChar: dollar
Encoding: 36 36 18
GlifName: dollar
Width: 552
Flags: W
HStem: -8 47<300 300> 640 44<300 300>
VStem: 77 54 80 87<512 557> 255 44<235.5 278 235.5 299 235.5 299 418 436.5> 413 86<136 178>
LayerCount: 2
Fore
SplineSet
499 183 m 0xdc
 499 89 438 3 300 -8 c 1
 300 -34 301 -61 301 -91 c 1
 286 -91 264 -86 255 -80 c 1
 255 -9 l 1
 181 -6 128 19 68 55 c 1
 76 105 77 160 77 197 c 1
 92 201 114 203 131 203 c 1xec
 136 111 170 52 255 41 c 1
 255 299 l 1
 169 340 80 385 80 505 c 0
 80 609 146 675 255 684 c 1
 255 744 l 1
 275 744 287 742 301 733 c 1
 301 717 300 701 300 684 c 1
 362 681 416 662 448 641 c 1
 448 602 449 545 454 509 c 1
 439 503 416 500 398 500 c 1
 380 602 348 634 300 640 c 1
 299 560 299 478 299 395 c 1
 392 350 499 308 499 183 c 0xdc
167 542 m 0
 167 482 205 447 255 418 c 1
 255 639 l 1
 199 632 167 597 167 542 c 0
300 39 m 1
 381 44 413 88 413 143 c 0
 413 213 361 248 299 278 c 1
 299 193 299 122 300 39 c 1
EndSplineSet
Validated: 1
EndChar

StartChar: percent
Encoding: 37 37 19
GlifName: percent
Width: 863
Flags: W
HStem: -8 42<597 640.5 597 666.5> 268 42<592 637.5> 359 42<227 270.5 227 296.5> 635 42<222 267.5> 657 20
VStem: 90 77<489 555> 327 76<481 548> 460 77<122 188> 697 76<114 181>
LayerCount: 2
Fore
SplineSet
174 -7 m 1xf780
 156 3 142 17 138 30 c 1
 691 686 l 1
 710 682 721 671 733 657 c 1xef80
 174 -7 l 1xf780
246 359 m 0
 142 359 90 436 90 512 c 0
 90 598 146 677 256 677 c 0
 353 677 403 598 403 526 c 0
 403 436 347 359 246 359 c 0
254 401 m 0
 287 401 327 438 327 512 c 0
 327 584 292 635 243 635 c 0
 201 635 167 588 167 525 c 0
 167 453 200 401 254 401 c 0
616 -8 m 0
 512 -8 460 69 460 145 c 0
 460 231 516 310 626 310 c 0
 723 310 773 231 773 159 c 0
 773 69 717 -8 616 -8 c 0
624 34 m 0
 657 34 697 71 697 145 c 0
 697 217 662 268 613 268 c 0
 571 268 537 221 537 158 c 0
 537 86 570 34 624 34 c 0
EndSplineSet
Validated: 1
EndChar

StartChar: ampersand
Encoding: 38 38 20
GlifName: ampersand
Width: 742
Flags: HW
HStem: -10 77<242 305> 10 45 420 41 662 20G 673 44<277 327>
VStem: 54 84<181.5 254.5> 142 79<557.5 606> 384 53 550.6 116.4
LayerCount: 2
Fore
SplineSet
572 102 m 0x6b80
 605 67 627 59 687 55 c 1
 687 42 686 24 681 10 c 1x6d
 643 10 568 1 535 -9 c 1
 509 26 483 58 457 89 c 1
 400 19 342 -10 268 -10 c 0
 108 -10 54 106 54 208 c 0xad
 54 301 110 372 182 421 c 1
 156 468 142 514 142 568 c 0
 142 644 201 717 306 717 c 0xab
 363 717 400 706 442 682 c 1xb5
 438.291713066 656.041991463 436.23359317 626.23359317 436.23359317 596.246380842 c 0
 436.23359317 585.80089087 436.483314774 575.333704529 437 565 c 1
 421 558 400 557 384 557 c 1
 379 642 354 673 300 673 c 0
 254 673 221 641 221 587 c 0
 221 528 238 487 315 391 c 0
 348 350 391 298 485 196 c 1
 518 251 537 293 547 334 c 0
 549.555636658 344.222546634 550.913228106 353.169754817 550.913228106 361.054352866 c 0
 550.913228106 393.277089441 528.238879532 407.752224094 472 419 c 1
 468 432 465 448 465 461 c 1
 493 459 534 458 567 458 c 0
 600 458 644 459 667 461 c 1
 667 449 666 432 663 420 c 1
 622 405 607 385 594 338 c 0
 578 281 556 230 517 161 c 1
 534 143 552 123 572 102 c 0x6b80
281 67 m 0xad
 336 67 378 84 424 127 c 1
 371 188 318 245 265 307 c 0
 241 336 220 362 202 389 c 1
 167 352 138 305 138 237 c 0
 138 126 203 67 281 67 c 0xad
EndSplineSet
Validated: 1
EndChar

StartChar: quotesingle
Encoding: 39 39 21
GlifName: quotesingle
Width: 198
Flags: W
HStem: 694 20G
VStem: 80 40
LayerCount: 2
Fore
SplineSet
138 690 m 2
 138 681 l 1
 130 623 126 564 120 477 c 1
 106 477 86 480 80 487 c 1
 77 557 71 627 60 693 c 1
 79 696 103 705 117 714 c 1
 129 712 137 703 138 690 c 2
EndSplineSet
Validated: 1
EndChar

StartChar: parenleft
Encoding: 40 40 22
GlifName: parenleft
Width: 291
Flags: HW
HStem: -271.87 1013.11
VStem: 35 85<142.5 327>
LayerCount: 2
Fore
SplineSet
250 729 m 1
 156 588 120 442 120 240 c 0
 120 33 161 -117 256 -266 c 1
 250.134983296 -270.561679659 241.721935412 -272.150656273 233.25156392 -272.150656273 c 0
 228.723959911 -272.150656273 224.179977728 -271.696662955 220 -271 c 1
 103 -115 35 45 35 240 c 0
 35 414 87 556 215 741 c 1
 217.507848362 741.295040984 219.798073769 741.437745899 221.915621605 741.437745899 c 0
 234.152336069 741.437745899 240.622725411 736.672315573 250 729 c 1
EndSplineSet
Validated: 1
EndChar

StartChar: parenright
Encoding: 41 41 23
GlifName: parenright
Width: 291
Flags: HW
HStem: -271.87 1012.87
VStem: 171 85<142.5 327 142.5 341>
LayerCount: 2
Fore
SplineSet
76 741 m 1
 204 556 256 414 256 240 c 0
 256 45 188 -115 71 -271 c 1
 67.1683537491 -271.696662955 62.7300334076 -272.150656273 58.1922158129 -272.150656273 c 0
 49.7027364515 -272.150656273 40.8650167038 -270.561679659 35 -266 c 1
 130 -117 171 33 171 240 c 0
 171 442 135 588 41 729 c 1
 49.2336879396 736.318833724 58.3043341149 741.126792741 72.0404123762 741.126792741 c 0
 73.3188337241 741.126792741 74.6376674482 741.085145784 76 741 c 1
EndSplineSet
Validated: 1
EndChar

StartChar: asterisk
Encoding: 42 42 24
GlifName: asterisk
Width: 443
Flags: HW
HStem: 574 29
VStem: 217 164
LayerCount: 2
Fore
SplineSet
233 603 m 1
 281 611 322 621 373 635 c 1
 378.856406461 622.555136271 382.569219382 603.679491924 382.569219382 586.219163867 c 0
 382.569219382 579.82824024 382.07179677 573.626933041 381 568 c 1
 338 571 285 573 236 574 c 1
 259 530 281 495 309 451 c 1
 293 436 275 427 248 424 c 1
 239 464 224 515 209 561 c 1
 175 527 148 495 116 455 c 1
 99 464 77 484 71 505 c 1
 106 526 150 556 190 585 c 1
 147 606 108 622 60 640 c 1
 64 659 75 685 93 698 c 1
 124 671 166 639 205 610 c 1
 212 658 215 699 217 751 c 1
 220.536672571 751.372281323 224.454476947 751.571320917 228.60507541 751.571320917 c 0
 246.752659547 751.571320917 269.350531909 747.76631206 284 738 c 1
 267 699 249 649 233 603 c 1
EndSplineSet
Validated: 1
EndChar

StartChar: plus
Encoding: 43 43 25
GlifName: plus
Width: 550
Flags: W
HStem: 234 49<218 250 298 328.5> 483 20G<288 298> 493 10
VStem: 250 48<197.5 234 283 316>
LayerCount: 2
Fore
SplineSet
501 283 m 1xd0
 501 263 500 247 491 233 c 1
 402 234 359 234 298 234 c 1
 298 13 l 1
 289 7 263 3 248 3 c 1
 249 71 250 161 250 234 c 1
 186 234 111 233 49 232 c 1
 49 246 52 274 58 283 c 1
 250 283 l 1
 250 349 250 397 249 493 c 1xb0
 263 502 278 503 298 503 c 1
 298 283 l 1
 501 283 l 1xd0
EndSplineSet
Validated: 1
EndChar

StartChar: comma
Encoding: 44 44 26
GlifName: comma
Width: 259
Flags: W
HStem: -185 282
VStem: 124 75<-60 44>
LayerCount: 2
Fore
SplineSet
199 25 m 0
 199 -54 149 -130 92 -185 c 1
 80 -185 67 -179 60 -170 c 1
 101 -124 124 -77 124 -43 c 0
 124 -15 109 3 77 7 c 1
 77 20 79 50 85 67 c 1
 115 73 143 83 165 97 c 1
 188 88 199 63 199 25 c 0
EndSplineSet
Validated: 1
EndChar

StartChar: hyphen
Encoding: 45 45 27
GlifName: hyphen
Width: 419
Flags: W
HStem: 229 65<309.5 346>
VStem: 60 299<225 294>
LayerCount: 2
Fore
SplineSet
359 294 m 1
 359 273 355 247 346 229 c 1
 273 229 131 227 60 225 c 1
 60 248 67 277 76 294 c 1
 359 294 l 1
EndSplineSet
Validated: 1
EndChar

StartChar: period
Encoding: 46 46 28
GlifName: period
Width: 236
Flags: W
HStem: -10 132<99.5 135>
VStem: 48 139<36 72.5>
LayerCount: 2
Fore
SplineSet
116 -10 m 4
 73 -10 48 17 48 54 c 4
 48 91 78 122 121 122 c 4
 162 122 187 88 187 60 c 4
 187 12 154 -10 116 -10 c 4
EndSplineSet
Validated: 1
EndChar

StartChar: slash
Encoding: 47 47 29
GlifName: slash
Width: 365
Flags: W
HStem: -9 21G<76 76> 693 20G<291 291>
VStem: 33 301
LayerCount: 2
Fore
SplineSet
76 -9 m 1
 57 -3 40 8 33 17 c 1
 291 713 l 1
 305 709 325 697 334 687 c 1
 76 -9 l 1
EndSplineSet
Validated: 1
EndChar

StartChar: zero
Encoding: 48 48 30
GlifName: zero
Width: 601
Flags: HW
HStem: -9 57<268 372.5> 455 51<239 336.5>
VStem: 40 91<219.5 320.5 219.5 335.5> 467 94<183.5 278>
LayerCount: 2
Back
SplineSet
561 255 m 4
 561 94 441 -9 304 -9 c 4
 165 -9 40 94 40 255 c 4
 40 416 174 506 304 506 c 4
 434 506 561 416 561 255 c 4
131 269 m 4
 131 170 206 48 330 48 c 4
 427 48 467 134 467 233 c 4
 467 323 398 455 275 455 c 4
 181 455 131 372 131 269 c 4
EndSplineSet
Fore
SplineSet
304.87890625 394 m 4
 416.370117188 394 506.85546875 303.514648438 506.85546875 191.9765625 c 0
 506.85546875 80.4853515625 416.370117188 -10 304.85546875 -10 c 0
 193.397460938 -9.9677734375 102.9375 80.517578125 102.9375 192.0234375 c 0
 102.9375 303.482421875 193.397460938 393.967773438 304.87890625 394 c 4
175.661132812 191.991210938 m 0
 175.661132812 120.674804688 233.540039062 62.7646484375 304.869140625 62.7255859375 c 0
 376.22265625 62.7255859375 434.133789062 120.63671875 434.133789062 192.012695312 c 0
 434.133789062 263.3671875 376.22265625 321.278320312 304.869140625 321.278320312 c 0
 233.540039062 321.239257812 175.661132812 263.329101562 175.661132812 191.991210938 c 0
EndSplineSet
EndChar

StartChar: one
Encoding: 49 49 31
GlifName: one
Width: 388
Flags: HW
LayerCount: 2
Back
SplineSet
239 127 m 6
 239 61 255 42 308 40 c 5
 312 26 313 11 313 -3 c 5
 274 -1 219 0 194 0 c 4
 158 0 111 -1 75 -3 c 5
 75 11 76 26 80 40 c 5
 130 42 149 61 149 127 c 6
 149 373 l 6
 149 438 135 457 80 460 c 5
 77 472 75 488 75 503 c 5
 107 501 162 500 194 500 c 4
 236 500 281 501 313 503 c 5
 313 486 311 472 308 460 c 5
 255 457 239 438 239 373 c 6
 239 127 l 6
EndSplineSet
Fore
SplineSet
100 0 m 2
 94 0 90 10 90 16 c 0
 90 22 94 32 100 32 c 2
 115 32 l 2
 121 32 125 36 125 42 c 0
 125 342 l 0
 125 347.99609375 121 352 115 352 c 2
 100 352 l 2
 94 352 90 362 90 368 c 0
 90 374 94 384 100 384 c 2
 226 384 l 2
 232 384 236 374 236 368 c 0
 236 362 232 352 226 352 c 2
 211 352 l 2
 205 352 201 347.99609375 201 342 c 0
 201 42 l 0
 201 36 205 32 211 32 c 2
 226 32 l 2
 232 32 236 22 236 16 c 0
 236 10 232 0 226 0 c 2
 100 0 l 2
EndSplineSet
EndChar

StartChar: two
Encoding: 50 50 32
GlifName: two
Width: 537
Flags: HW
HStem: -2 92 460 46<227 274.5>
VStem: 100.12 50.88 333 97<342.5 391> 414 47
LayerCount: 2
Back
SplineSet
461 144 m 5xe8
 461 93 464 58 472 21 c 5
 466 9 456 -2 440 -2 c 4
 376 -1 305 0 247 0 c 4xe8
 188 0 116 -1 78 -2 c 5
 67 10 65 21 65 39 c 5
 122 92 183 147 236 194 c 4
 314 263 333 306 333 358 c 4
 333 424 303 460 246 460 c 4
 194 460 166 431 151 321 c 5
 134 321 110 323 97 328 c 5
 98.9081318457 344.69615365 100.133582353 366.853758011 100.133582353 389.370782904 c 4
 100.133582353 414.055999184 98.66076927 439.173186611 95 458 c 5
 134 486 191 506 263 506 c 4
 355 506 430 473 430 374 c 4xf0
 430 311 399 277 320 204 c 6
 198 90 l 5
 344 90 l 6
 399 90 411 95 414 151 c 5
 432 151 448 149 461 144 c 5xe8
EndSplineSet
Fore
SplineSet
258 394 m 0xe0
 349 394 367 328.848484848 367 269 c 0
 367 220.563380282 286.586626838 137.286384977 212.658203125 88 c 1
 212.658203125 78 l 1
 224.848083496 82 247.873413086 82 256 82 c 0
 269.524938911 82 284.730422218 69.837890625 309 69.837890625 c 3
 329.81685694 69.837890625 338.223947593 77.0399126556 355 105 c 0
 358 110 359 117 387 117 c 0
 399.475063161 117 402.993164062 99.1482848108 402.993164062 84 c 3
 402.993164062 68.1594846199 389.137210967 39.2142161659 382 25 c 1
 367.169864152 -2.75028128321 341.027688654 -7.3720703125 327 -7.3720703125 c 3
 282.443713177 -7.3720703125 266.800310125 39 239 39 c 0
 209 39 188.71941762 -6 140 -6 c 0
 117 -6 106 31.7678571429 106 41 c 1
 120 57.5 133.010869878 73.2864334217 154 90 c 2
 208 133 l 2
 244.75775789 162.270066468 291 216.776595745 291 258 c 1
 291 302.960867881 263.141032218 322.036132812 234 322.036132812 c 3
 188.233246204 322.036132812 154.775214369 268.251388935 144 250 c 5
 133 252 119 255 101 264 c 5
 125.553253216 315.014466382 166.756890695 394 258 394 c 0xe0
EndSplineSet
EndChar

StartChar: three
Encoding: 51 51 33
GlifName: three
Width: 493
Flags: HW
HStem: -171 50<163 229.5 157.5 279> 172 76 420 82
VStem: 362 101<-8.5 74.5> 426 12
LayerCount: 2
Back
SplineSet
168.133789062 283.677734375 m 5xe0
 168.133789062 283.696289062 l 5
 116.990234375 282.038085938 l 5
 137.755859375 332.232421875 170 394 272 394 c 4
 316 394 379.555664062 357.609375 379.555664062 277.336914062 c 4
 379.555664062 208.602539062 346.268554688 161.119140625 285.385742188 111.149414062 c 5
 285.456054688 123.3203125 l 5
 347.178710938 123.3203125 391.483398438 63.916015625 391.483398438 13.9072265625 c 4
 391.483398438 -83.8037109375 290.787109375 -187.948242188 205.9375 -187.948242188 c 4
 179.358398438 -187.948242188 166.501953125 -185.932617188 144.091796875 -184.235351562 c 5
 133.28515625 -149.46875 l 5
 141.729492188 -149.666992188 157.938476562 -151.5234375 165.665039062 -151.5234375 c 4
 261.15625 -151.5234375 299.987304688 -72.92578125 299.987304688 17.9951171875 c 4
 299.987304688 45.1865234375 287.3515625 81.3388671875 254.346679688 81.3388671875 c 4
 222.759765625 81.3388671875 191.302734375 70.74609375 161.33203125 56.458984375 c 5
 161.33203125 88.4482421875 l 5
 181.733398438 96.736328125 209.994140625 109.833007812 235.079101562 127.026367188 c 5
 272.282226562 163.673828125 283.958984375 180.10546875 283.958984375 281.72265625 c 4
 283.958984375 304.015625 274.408203125 332.256835938 241.956054688 332.256835938 c 4
 197.694335938 332.256835938 177.845703125 305.595703125 168.133789062 283.677734375 c 5xe0
EndSplineSet
Fore
SplineSet
50 183 m 1xe0
 68 255 106 395 263 395 c 0
 328 395 400 355 400 250 c 0
 400 153 350 58 249 -2 c 1
 249 17 l 1
 372 17 433 -71 433 -142 c 0
 433 -350 252 -433 144 -433 c 0
 110 -433 100 -431 72 -429 c 1
 58 -395 l 1
 69 -395 118 -390 128 -390 c 0
 190 -390 268 -308 268 -180 c 0
 267 -111 206 -78 144 -78 c 3
 132 -78 120 -80 109 -82 c 1
 109 -11 l 1
 134 -11 179 2 203 20 c 0
 227 38 278 69 278 179 c 0
 278 210 266 262 225 262 c 0
 169 262 115 223 105 183 c 1
 50 183 l 1xe0
EndSplineSet
EndChar

StartChar: four
Encoding: 52 52 34
GlifName: four
Width: 597
Flags: HW
HStem: -6 21G 0 79<279 330 330 337 431 518 518 525> 486 20G<386 394>
VStem: 337 94<-138 0 -152 0 79 357 357 357>
LayerCount: 2
Back
SplineSet
547 70 m 5x70
 538 52 529 19 529 0 c 5
 431 0 l 5
 431 -152 l 5
 406 -152 352 -167 348 -171 c 5
 340 -163 337 -152 337 -138 c 6
 337 0 l 5
 330 0 l 6x70
 228 0 148 -3 63 -6 c 5
 55 2 45 17 45 32 c 5xb0
 386 506 l 5
 402 506 421 502 431 496 c 5
 431 79 l 5
 518 79 l 6
 532 79 541 76 547 70 c 5x70
152 79 m 5
 337 79 l 5
 337 357 l 5
 152 79 l 5
EndSplineSet
Fore
SplineSet
307 384 m 1x30
 390 384 l 1
 399 -179 l 1
 294 -179 l 1
 307 384 l 1x30
128 53 m 1
 147 77 l 1
 158 77 l 1
 481 77 l 1
 481 7 l 1
 128 7 l 1
 128 53 l 1
307 384 m 1
 351 384 l 1
 171 77 l 1
 172 7 l 1
 128 53 l 1
 127 53 l 1
 307 384 l 1
311 -108 m 1
 422 -108 l 1
 422 -179 l 1
 311 -179 l 1
 311 -108 l 1
EndSplineSet
EndChar

StartChar: five
Encoding: 53 53 35
GlifName: five
Width: 488
Flags: HW
HStem: -171 50<151 211 151 228.5> 410 143<331 404> 482 20G<134 134>
VStem: 321 100<-9.5 97> 359 39
LayerCount: 2
Back
SplineSet
134 384 m 5xb0
 189.028901734 384 224.404624277 384 270 384 c 5xa8
 339 384 l 5
 339 348.864 339 307.872 348 262 c 5
 338.4 251 317.6 244 276 244 c 4
 271.530431653 244 265.687866669 270.970052083 259 324.91015625 c 5
 226.807241452 324.426694241 175.202228844 322.789975491 162 320 c 5xc8
 134.001953125 230 l 5
 236.255664063 194.644351464 304.424804688 133.053215258 304.424804688 21 c 4
 304.424804688 -84.5640138408 210.388024803 -141 138 -171 c 4
 108.277488731 -183.317995145 77.5130434783 -189.75 64 -191 c 5
 64 -182.381835938 65.8461538462 -171 67.79296875 -165.145507812 c 5
 82.9112391195 -158.333333333 117.091558317 -141.312967964 143 -121 c 4
 176.487492787 -94.7448366631 213.424804688 -64.7142857143 213.424804688 -6 c 4
 213.424804688 79.2087912088 150.466885653 137.648351648 98.001953125 146 c 5
 87.001953125 153 78.3625962376 166.691188489 81.001953125 177 c 6
 134 384 l 5xb0
EndSplineSet
Fore
SplineSet
140 344 m 1x80
 272 367 l 2
 298 372 379 409 400 422 c 1
 413 390 428 365 448 325 c 1
 448 307 407 270 365 270 c 0
 361 270 375 279 296 292 c 1
 162 266 l 1
 152 237 l 1
 253 208 366 122 366 -40 c 0
 366 -216 196 -299 124 -329 c 0
 94 -341 64 -348 50 -349 c 1
 50 -340 52 -329 54 -323 c 1
 69 -316 103 -299 129 -279 c 0
 162 -253 255 -208 255 -67 c 0
 255 64 142 138 90 146 c 1
 79 153 70 167 73 177 c 2
 140 344 l 1x80
EndSplineSet
EndChar

StartChar: six
Encoding: 54 54 36
GlifName: six
Width: 503
Flags: HW
HStem: -9 48<240.5 304.5 240.5 312> 336 59<255.5 263.5> 607 31
VStem: 35 96<163 254.5 163 389> 377 89<145.5 239>
LayerCount: 2
Back
SplineSet
279 395 m 4
 393 395 466 330 466 212 c 4
 466 79 369 -9 255 -9 c 4
 112 -9 35 78 35 240 c 4
 35 538 252 631 409 638 c 5
 416 630 419 623 419 607 c 5
 258 574 163 507 138 343 c 5
 194 380 232 395 279 395 c 4
264 39 m 4
 345 39 377 113 377 175 c 4
 377 303 293 336 234 336 c 4
 203 336 174 330 133 304 c 5
 132 285 131 265 131 244 c 4
 131 82 217 39 264 39 c 4
EndSplineSet
Fore
SplineSet
303 636 m 0
 334 655 377 679 423 698 c 1
 430.75862069 698 443.102016943 691.159437304 448 679 c 0
 451 671.552380952 451.940053875 664.864294452 452 656 c 1
 398.555555556 629.802139037 369.882661875 611.04047332 335 585 c 0
 272.794537609 538.56261258 213.849229012 460.046728972 190 394 c 1
 379.735714286 394 453 291.983606557 453 198 c 0
 453 54 356.46184739 -10 251 -10 c 0
 122 -10 50 87.2757201646 50 213 c 0
 50 423.02980842 169.869320085 554.403776826 303 636 c 0
171 349 m 1
 163.605633803 328.408284024 150 257.901680402 150 204 c 0
 150 138 180.537037037 37 247 37 c 0
 297.776859504 37 338.239669421 77 343 197 c 1
 343 297.523476523 269.532663317 349 171 349 c 1
EndSplineSet
EndChar

StartChar: seven
Encoding: 55 55 37
GlifName: seven
Width: 485
Flags: HW
HStem: 338 165 409 21G<162.5 191 191 347> 465 38
VStem: 120 106<-121 -69>
LayerCount: 2
Back
SplineSet
149 -176 m 1x70
 130 -169 120 -155 120 -132 c 0
 120 -6 211 177 347 409 c 1
 191 409 l 2x70
 134 409 115 399 99 338 c 1
 78 338 61 342 48 350 c 1x90
 60 401 65 446 67 503 c 1
 119 500 165 500 245 500 c 0
 315 500 369 500 427 503 c 1
 436 492 441 481 442 465 c 1
 392 392 342 303 304 230 c 0
 240 105 226 21 226 -121 c 1
 190 -136 163 -158 149 -176 c 1x70
EndSplineSet
Fore
SplineSet
46 384 m 1x10
 357 384 l 1
 357 319 l 1
 312 297 l 1
 46 297 l 1
 46 384 l 1x10
292 384 m 1
 357 384 l 1
 357 319 l 1
 149 -167 l 1
 87 -167 l 1
 282 296 l 1
 292 384 l 1
EndSplineSet
EndChar

StartChar: eight
Encoding: 56 56 38
GlifName: eight
Width: 508
Flags: HW
HStem: -9 45<224 292.5 224 312.5> 592 45<229 280.5>
VStem: 50 90<114.5 186> 77 94 341 90<465.5 522> 363 95<105.5 170.5>
LayerCount: 2
Back
SplineSet
315 354 m 5xe4
 405 294 458 239 458 156 c 4
 458 55 377 -9 248 -9 c 4
 126 -9 50 49 50 141 c 4xe4
 50 231 101 283 191 336 c 5
 115 387 77 431 77 492 c 4
 77 581 143 637 249 637 c 4
 361 637 431 586 431 504 c 4xd8
 431 427 373 386 315 354 c 5xe4
170.971287569 509.043535928 m 4
 170.971287569 458.811577923 196.336825563 428.178807154 265 386 c 4
 269 383 274 381 278 378 c 5
 324 407 341 438 341 491 c 4
 341 553 307 592 254 592 c 4
 202.982971983 592 170.971287569 560.060123317 170.971287569 509.043535928 c 4
261 36 m 4xe4
 324 36 363 75 363 136 c 4
 363 205 316 252 227 312 c 5
 161 263 140 226 140 149 c 4
 140 80 187 36 261 36 c 4xe4
EndSplineSet
Fore
SplineSet
66 545 m 0xc0
 66 636 146 698 254 698 c 0
 320 698 434 638 434 532 c 0
 434 434 401 419 322 361 c 1
 391 316 445 256 445 173 c 0
 445 61 323 -10 254 -10 c 0
 160 -10 52 42 52 148 c 0
 52 241 91 296 166 342 c 1
 109 399 66 469 66 545 c 0xc0
334 543 m 0
 334 584.538987653 297.807801971 638.01313833 238.000004672 638.01313833 c 3
 201 638.01313833 169 597.426902791 169 543 c 0
 169 486 223 428 267 392 c 1
 313 441 334 470 334 543 c 0
211 303 m 1
 172 265 159 216 159 169 c 0
 159 104 219 48 268 48 c 0
 304 48 332 94 334 163 c 0
 334 211 280 255 211 303 c 1
EndSplineSet
EndChar

StartChar: nine
Encoding: 57 57 39
GlifName: nine
Width: 519
Flags: HW
HStem: 93 63<260 270> 462 44<215 292>
VStem: 40 93<248 354.5> 392 92<227.5 315.5>
LayerCount: 2
Back
SplineSet
263 506 m 4
 415 506 484 414 484 242 c 4
 484 -21 240 -150 90 -170 c 5
 81 -158 80 -149 80 -134 c 5
 253 -69 352 18 382 145 c 5
 338 108 295 93 245 93 c 4
 133 93 40 169 40 283 c 4
 40 426 139 506 263 506 c 4
293 156 m 4
 329 156 364 168 390 192 c 5
 391 206 392 220 392 235 c 4
 392 396 335 462 249 462 c 4
 181 462 133 396 133 318 c 4
 133 178 227 156 293 156 c 4
EndSplineSet
Fore
SplineSet
265 394 m 6
 265 394 l 2
 374 394 450 307 450 200 c 0
 448 126 435 71 383 12 c 2
 96 -315 l 1
 50 -256 l 1
 267 7 l 1
 138 16 86 98 86 200 c 0
 86 307 158 394 265 394 c 6
265 316 m 0
 203 316 165 267 165 200 c 0
 165 140 190 83 265 83 c 0
 333 83 373 132 373 200 c 0
 373 259 331 316 265 316 c 0
EndSplineSet
EndChar

StartChar: colon
Encoding: 58 58 40
GlifName: colon
Width: 236
Flags: W
HStem: 25 110<103 132.5> 311 110<103 132.5>
VStem: 60 116<63 93.5 349 379.5>
LayerCount: 2
Fore
SplineSet
117 311 m 0
 81 311 60 333 60 364 c 0
 60 395 85 421 121 421 c 0
 155 421 176 392 176 369 c 0
 176 329 148 311 117 311 c 0
117 25 m 0
 81 25 60 47 60 78 c 0
 60 109 85 135 121 135 c 0
 155 135 176 106 176 83 c 0
 176 43 148 25 117 25 c 0
EndSplineSet
Validated: 1
EndChar

StartChar: semicolon
Encoding: 59 59 41
GlifName: semicolon
Width: 259
Flags: W
HStem: 311 110<125 154.5>
VStem: 82 116<349 379.5> 124 75<-60 44>
LayerCount: 2
Fore
SplineSet
139 311 m 0xc0
 103 311 82 333 82 364 c 0
 82 395 107 421 143 421 c 0
 177 421 198 392 198 369 c 0
 198 329 170 311 139 311 c 0xc0
199 25 m 0xa0
 199 -54 149 -130 92 -185 c 1
 80 -185 67 -179 60 -170 c 1
 101 -124 124 -77 124 -43 c 0
 124 -15 109 3 77 7 c 1
 77 20 79 50 85 67 c 1
 115 73 143 83 165 97 c 1
 188 88 199 63 199 25 c 0xa0
EndSplineSet
Validated: 1
EndChar

StartChar: less
Encoding: 60 60 42
GlifName: less
Width: 550
Flags: HW
HStem: 485 20G<435 435>
VStem: 64.15 408.85
LayerCount: 2
Fore
SplineSet
456 18 m 1
 323 97 187 172 66 234 c 1
 64.7335008386 240.332495807 64.0685092244 246.464489098 64.0685092244 252.364237841 c 0
 64.0685092244 265.097738679 67.1662479036 276.749371855 74 287 c 1
 435 505 l 1
 452 499 462 490 473 472 c 1
 117 260 l 1
 466 74 l 1
 467.033370453 69.0914903487 467.532813659 63.7157943568 467.532813659 58.2522364645 c 0
 467.532813659 42.5672976994 463.416573868 26.1582312545 456 18 c 1
EndSplineSet
Validated: 1
EndChar

StartChar: equal
Encoding: 61 61 43
GlifName: equal
Width: 550
Flags: W
HStem: 149 48<240 325> 315 47<240 325>
VStem: 57 437<147 197 186.5 320.5>
LayerCount: 2
Fore
SplineSet
57 313 m 1
 57 328 62 353 68 362 c 1
 493 362 l 1
 493 342 491 328 483 314 c 1
 405 315 367 315 283 315 c 0
 197 315 146 315 57 313 c 1
57 147 m 1
 57 162 61 188 67 197 c 1
 494 197 l 1
 494 176 492 162 484 148 c 1
 406 149 367 149 283 149 c 0
 197 149 145 149 57 147 c 1
EndSplineSet
Validated: 1
EndChar

StartChar: greater
Encoding: 62 62 44
GlifName: greater
Width: 550
Flags: HW
HStem: 486 20G<117 117>
VStem: 75 412.12
LayerCount: 2
Fore
SplineSet
486 277 m 1
 486.75 272.75 487.125 268.5 487.125 264.28125 c 0
 487.125 251.625 483.75 239.25 477 228 c 1
 329 153 237 98 96 14 c 1
 88.5834261323 22.8998886413 84.4671863407 37.3003340761 84.4671863407 51.897949154 c 0
 84.4671863407 56.98275798 84.9666295471 62.0914903487 86 67 c 1
 436 259 l 1
 75 472 l 1
 87 490 98 500 117 506 c 1
 486 277 l 1
EndSplineSet
Validated: 1
EndChar

StartChar: question
Encoding: 63 63 45
GlifName: question
Width: 537
Flags: HW
HStem: -10 132<255.5 291> 673 41<240 286>
VStem: 123.37 53.63 204 139<36 72.5> 219 71<286.5 339 261 381.5> 346 89<527.5 605.5>
LayerCount: 2
Fore
SplineSet
274 714 m 0x6c
 368 714 435 669 435 586 c 0
 435 455 290 409 290 269 c 0
 290 253 295 220 301 201 c 1
 289 194 278 193 265 193 c 1
 243 208 219 258 219 315 c 0
 219 448 346 478 346 577 c 0
 346 634 307 673 265 673 c 0
 215 673 188 636 177 544 c 1
 158 544 133 547 120 554 c 1
 122.110100927 578.793685888 123.385353243 598.299997245 123.385353243 617.363374842 c 0
 123.385353243 634.437373153 122.362373842 651.156059729 120 671 c 1
 153 692 199 714 274 714 c 0x6c
272 -10 m 0xf0
 229 -10 204 17 204 54 c 0
 204 91 234 122 277 122 c 0
 318 122 343 88 343 60 c 0
 343 12 310 -10 272 -10 c 0xf0
EndSplineSet
Validated: 1
EndChar

StartChar: at
Encoding: 64 64 46
GlifName: at
Width: 997
Flags: W
HStem: -202 45<420.5 595 420.5 595> -9 78<684.5 698> -9 82<449 471> 422 45<464 510> 619 41<413 624.5>
VStem: 125 62<132.5 347 132.5 347.5> 315 90<170 277> 580 85<58.5 180> 823 49<259 423>
LayerCount: 2
Fore
SplineSet
822 -43 m 1xdf80
 839 -46 849 -54 853 -68 c 1
 792 -153 664 -202 526 -202 c 0
 253 -202 125 -21 125 228 c 0
 125 467 275 660 536 660 c 0
 761 660 872 524 872 359 c 0
 872 144 748 -9 648 -9 c 0
 596 -9 580 28 580 89 c 0
 580 107 580 133 581 165 c 1
 551 62 503 -9 439 -9 c 0
 365 -9 315 47 315 198 c 0
 315 356 391 467 502 467 c 0
 534 467 560 465 592 458 c 0
 608 458 626 461 643 467 c 1
 661 461 665 445 665 371 c 2
 665 180 l 2
 665 81 668 69 701 69 c 0
 741 69 823 167 823 351 c 0
 823 495 723 619 526 619 c 0
 300 619 187 457 187 237 c 0
 187 28 301 -157 540 -157 c 0
 650 -157 752 -122 822 -43 c 1xdf80
465 73 m 0xbf80
 498 73 567 162 584 339 c 0
 584 357 585 376 585 393 c 1
 557 413 524 422 496 422 c 0
 432 422 405 365 405 228 c 0
 405 112 433 73 465 73 c 0xbf80
EndSplineSet
Validated: 1
EndChar

StartChar: D
Encoding: 68 68 50
GlifName: D_
Width: 780
Flags: HW
HStem: -3 21G 0 45<278 371.5> 640 38<295.5 374>
VStem: 131 94<138 549 549 582.5> 592 103<227 448.5>
LayerCount: 2
Fore
SplineSet
98 690 m 1x78
 301 690 l 1
 305 685 308 680 308 673 c 0
 308 667 305.381630826 656 301 656 c 2
 250 656 l 2
 244 656 240 652 240 646 c 2
 240 44 l 2
 240 38 244 34 250 34 c 2
 301 34 l 2
 305.381630825 34 308 23 308 17 c 0
 308 10 305 5 301 0 c 1
 97 0 l 1
 92.625 5 90 12 90 17 c 0
 90 23.375 93.1273320616 34 97 34 c 2
 148 34 l 2
 154 34 158 38 158 44 c 2
 158 646 l 2
 158 652 154 656 148 656 c 2
 98 656 l 2
 94.067929362 656 91 666.625 91 673 c 0
 91 678 93.625 685 98 690 c 1x78
330 692 m 0
 507 692 710 641.919504644 710 355 c 0
 710 31 443 0 330 0 c 0
 284.040086703 0 219.209566252 0 158 0 c 1
 158 690 l 1
 214.847457627 690 273.152542373 692 330 692 c 0
330 34 m 0
 489 34 607 105.572881356 607 340 c 0
 607 567.126666667 464 654 314 654 c 0
 290 654 257 650 240 645 c 1
 240 44 l 17
 240 38 244 34 250 34 c 1
 330 34 l 0
EndSplineSet
EndChar

StartChar: F
Encoding: 70 70 52
GlifName: F_
Width: 677
VWidth: 0
Flags: HW
LayerCount: 2
Fore
SplineSet
240 70 m 5
 240 44 l 6
 240 38.0645044532 244 34 250 34 c 6
 301 34 l 6
 305.381630825 34 308 23 308 17 c 4
 308 10 305 5 301 0 c 5
 97 0 l 5
 92.625 5 90 12 90 17 c 4
 90 23.375 93.1273320616 34 97 34 c 6
 148 34 l 6
 154 34 158 38.0645044532 158 44 c 6
 158 70 l 5
 240 70 l 5
98 690 m 1
 240 690 l 1
 240 0 l 1
 158 0 l 1
 158 646 l 2
 158 652 154 656 148 656 c 2
 98 656 l 2
 94.067929362 656 91 666.625 91 673 c 0
 91 678 93.625 685 98 690 c 1
484 703 m 1
 505 655 l 2
 526.431640295 606.013393611 536.034867163 579.598819824 536.034867163 566.480096167 c 0
 536.034867163 557.949861136 531.880503773 555 524 555 c 0
 514 555 496.194718933 575.098350891 484 599 c 0
 459 648 439 657 348 657 c 0
 275 657 246 646 240 623 c 1
 240 357 l 1
 359 357 l 2
 394 357 396 373 408 398 c 1
 412 417 419 424 428 424 c 0
 440 424 447 421 447 408 c 2
 447 262 l 2
 447 250 440 246 428 246 c 0
 415 246 412.765068977 258.939724093 408 278 c 0
 403 298 395 312 359 312 c 2
 240 312 l 1
 240 70 l 1
 158 70 l 1
 158 690 l 1
 221 690 l 2
 253 690 292 695 340 697 c 2
 484 703 l 1
EndSplineSet
EndChar

StartChar: G
Encoding: 71 71 53
GlifName: G_
Width: 836
Flags: HW
HStem: -9 49<302.5 404 302.5 420.5> 644 41<304.5 430 294.5 436>
VStem: 35 106<278 440.5 278 459> 519 94<131 136 136 181 122 226.5> 558 53
LayerCount: 2
Back
SplineSet
364 -9 m 0xf0
 167 -9 35 132 35 347 c 0
 35 571 207 685 382 685 c 0
 478 685 563 666 622 638 c 1
 613 591 611 542 611 483 c 1
 595 477 579 474 558 474 c 1xe8
 553 614 482 644 390 644 c 0
 219 644 141 512 141 369 c 0
 141 187 221 40 384 40 c 0
 424 40 453 43 485 56 c 0
 508 66 519 80 519 131 c 6
 519 181 l 6
 519 272 509 279 433 281 c 5
 429 291 427 311 427 327 c 5
 452 325 508 324 549 324 c 4
 590 324 645 325 666 326 c 5
 666 314 665 294 660 281 c 5
 620 279 613 271 613 181 c 6
 613 136 l 6
 613 108 615 86 626 66 c 1
 569 24 477 -9 364 -9 c 0xf0
EndSplineSet
Fore
SplineSet
569 327 m 1xe0
 772 327 l 1
 776 322 779 317 779 310 c 0
 779 304 776.381630826 293 772 293 c 2
 721 293 l 2
 715 293 711 289 711 283 c 2
 711 180 l 1
 629 180 l 1
 629 283 l 2
 629 289 625 293 619 293 c 2
 569 293 l 2
 565.067929362 293 562 303.625 562 310 c 0
 562 315 564.625 322 569 327 c 1xe0
90 340 m 0
 90 589 278 708 444 708 c 0
 521 708 558.789163077 685.143663031 615 663 c 0
 630.823969427 656.766315074 640.669657661 652.602035177 647.403735576 652.602035177 c 0
 654.713199151 652.602035177 658.173312477 657.56326555 662 670 c 0
 666 683 672 689 678 689 c 0
 686 689 692 684 692 673 c 2
 692 514 l 2
 692 498 685 499 681 499 c 0
 676 499 671.918015178 499.976101307 667 517 c 0
 641 607 564 674 466 674 c 0
 276 674 187 534 187 355 c 0
 187 168 290 17 472 17 c 0
 546.543386606 17 629 70 629 134 c 1
 629 180 l 1
 711 180 l 1
 711 134 l 1
 711 42 604.072778956 -18 459 -18 c 0
 220 -18 90 117 90 340 c 0
EndSplineSet
EndChar

StartChar: J
Encoding: 74 74 56
GlifName: J_
Width: 398
Flags: HW
HStem: -249 21G 636 43
VStem: 120 94<34 125 125 549>
LayerCount: 2
Back
SplineSet
214 125 m 2
 214 -61 191 -156 20 -249 c 1
 11 -244 5 -234 3 -223 c 1
 78 -160 120 -93 120 34 c 2
 120 549 l 2
 120 616 104 633 51 636 c 1
 47 647 46 661 46 679 c 1
 75 677 123 676 167 676 c 0
 211 676 264 677 288 679 c 1
 288 661 287 647 283 636 c 1
 232 633 214 616 214 549 c 2
 214 125 l 2
EndSplineSet
Fore
SplineSet
240 125 m 2
 240 -61 217.711340206 -156 52 -249 c 1
 46.1764705882 -244 42.2941176471 -234 41 -223 c 1
 116 -160 158 -93 158 34 c 2
 158 300 l 1
 240 300 l 1
 240 125 l 2
98 690 m 5
 301 690 l 5
 305 685 308 680 308 673 c 4
 308 667 305.381630826 656 301 656 c 6
 250 656 l 6
 244 656 240 652 240 646 c 6
 240 300 l 5
 158 300 l 5
 158 646 l 6
 158 652 154 656 148 656 c 6
 98 656 l 6
 94.067929362 656 91 666.625 91 673 c 4
 91 678 93.625 685 98 690 c 5
EndSplineSet
EndChar

StartChar: K
Encoding: 75 75 57
GlifName: K_
Width: 720
VWidth: 0
Flags: HW
LayerCount: 2
Back
SplineSet
505 142 m 4x3c
 554 78 578 48 656 43 c 5
 656 32 655 14 651 0 c 5x38
 601 0 541 -1 492 -6 c 5x98
 447 68 320 239 224 326 c 5
 224 127 l 6
 224 60 240 43 293 40 c 5
 297 29 298 15 298 -3 c 5
 258 -1 216 0 177 0 c 4
 138 0 90 -1 56 -3 c 5
 56 15 57 29 61 40 c 5
 114 43 130 60 130 127 c 6x58
 130 549 l 6
 130 616 114 633 61 636 c 5
 57 647 56 661 56 679 c 5
 93 677 134 676 177 676 c 4
 220 676 258 677 298 679 c 5
 298 661 297 647 293 636 c 5
 240 633 224 616 224 549 c 6
 224 355 l 5
 413 553 l 6
 438.021512788 579.042799024 450.265962266 599.348957379 450.265962266 613.385861231 c 4
 450.265962266 626.837634605 439.021059684 634.531929354 417 636 c 5
 413 649 412 664 412 679 c 5
 434 677 475 676 515 676 c 4
 555 676 591 677 618 679 c 5
 618 666 617 648 612 636 c 5
 567 633 534 618 470 549 c 6
 307 376 l 5
 361 324 430 240 505 142 c 4x3c
EndSplineSet
Fore
SplineSet
592 44 m 1
 595.4 39 598.8 34 609 34 c 2
 653 34 l 2
 657.381630825 34 660 23 660 17 c 0
 660 10 657 5 653 0 c 1
 454 0 l 1
 449.625 5 447 12 447 17 c 0
 447 23.375 450.127332062 34 454 34 c 2
 483 34 l 2
 489 34 493 38 493 44 c 1
 592 44 l 1
293 335 m 1
 208 335 l 1
 208 375 l 1
 270 375 l 1
 333 404 l 1
 592 44 l 1
 596.187590602 31.0402857733 599.533735443 25 603 25 c 3
 618.82278481 25 645.405063291 25 653 34 c 1
 653 0 l 1
 523 0 l 1
 293 335 l 1
446 562 m 2
 312 375 l 1
 293 335 l 1
 208 335 l 1
 208 375 l 1
 270 375 l 1
 408 576 l 2
 427.152157456 603.895533687 435 624 435 639 c 0
 435 646 428 656 409 656 c 2
 407 656 l 2
 401 656 397 667 397 673 c 0
 397 679 401 687 407 690 c 1
 588 690 l 0
 594 690 598 682 598 673 c 0
 598 663 594 656 588 656 c 2
 559 656 l 2
 546 656 525.834916681 644.17742131 514 633 c 0
 496 616 469.766802078 595.167104393 446 562 c 2
EndSplineSet
Refer: 11 1048 N 1 0 0 1 0 0 2
EndChar

StartChar: L
Encoding: 76 76 58
GlifName: L_
Width: 678
VWidth: 0
Flags: HW
LayerCount: 2
Back
SplineSet
321 45 m 6x70
 432 45 463 78 496 171 c 5
 516 165 528 159 540 147 c 5
 525 101 515 44 509 -2 c 5
 470 -1 389 0 315 0 c 4x70
 241 0 106 -1 56 -3 c 5
 56 15 57 29 61 40 c 5xb0
 114 43 131 60 131 138 c 6
 131 549 l 6
 131 616 115 633 62 636 c 5
 58 647 57 663 57 679 c 5
 96 677 149 676 178 676 c 4
 221 676 259 677 299 679 c 5
 299 661 298 647 294 636 c 5
 241 633 225 616 225 546 c 6
 225 138 l 6
 225 64 240 45 315 45 c 6
 321 45 l 6x70
EndSplineSet
Fore
SplineSet
98 690 m 1
 301 690 l 1
 305 685 308 680 308 673 c 0
 308 667 305 656 301 656 c 2
 250 656 l 2
 244 656 240 652 240 646 c 2
 240 44 l 1
 158 44 l 1
 158 646 l 2
 158 652 154 656 148 656 c 2
 98 656 l 2
 94 656 91 667 91 673 c 0
 91 678 94 685 98 690 c 1
98 690 m 1
 301 690 l 1
 305 685 308 680 308 673 c 0
 308 667 305 656 301 656 c 2
 250 656 l 2
 244 656 240 652 240 646 c 2
 240 44 l 2
 240 38 244 34 250 34 c 2
 301 34 l 2
 305 34 308 23 308 17 c 0
 308 10 305 5 301 0 c 1
 97 0 l 1
 93 5 90 12 90 17 c 0
 90 23 93 34 97 34 c 2
 148 34 l 2
 154 34 158 38 158 44 c 2
 158 646 l 2
 158 652 154 656 148 656 c 2
 98 656 l 2
 94 656 91 667 91 673 c 0
 91 678 94 685 98 690 c 1
240 690 m 1
 240 0 l 1
 97 0 l 1
 93 5 90 12 90 17 c 0
 90 23 93 34 97 34 c 2
 148 34 l 2
 154 34 158 38 158 44 c 2
 158 690 l 1
 240 690 l 1
240 34 m 1
 301 34 l 1
 355 37 l 1
 489 46.3023255814 519.841926857 57.9786975997 562 117 c 0
 577 138 595 156 604 156 c 0
 613 156 618 154 618 148 c 0
 618 138 606.494594595 117.267567568 582 71 c 2
 546 3 l 1
 343 0 l 1
 158 0 l 1
 158 690 l 1
 240 690 l 1
 240 34 l 1
EndSplineSet
EndChar

StartChar: M
Encoding: 77 77 59
GlifName: M_
Width: 1016
VWidth: 0
Flags: HW
LayerCount: 2
Fore
SplineSet
800 690 m 1
 919 690 l 1
 923 685 926 680 926 673 c 0
 926 667 923.381835938 656 919 656 c 2
 868 656 l 2
 862 656 858 652 858 646 c 2
 858 44 l 2
 858 38 862 34 868 34 c 2
 919 34 l 2
 923.381835938 34 926 23 926 17 c 0
 926 10 923 5 919 0 c 1
 715 0 l 1
 710.625 5 708 12 708 17 c 0
 708 23.375 711.126953125 34 715 34 c 2
 766 34 l 2
 772 34 776 38 776 44 c 2
 776 641 l 1
 800 690 l 1
90 17 m 0
 90 23 93.6865234375 34 97 34 c 2
 120 34 l 2
 160 34 167.015177367 47.4657594893 169.951171875 73 c 0
 175.838867188 124.205078125 179.622070312 216.852539062 182.127929688 321 c 0
 186.227539062 586 l 3
 186.227539062 637.736328125 177 656 123 656 c 2
 97 656 l 1
 92.2255859375 661.043945312 90 667 90 673 c 0
 90 679 93.1923828125 685.479492188 97 690 c 1
 194 690 l 2
 270 690 l 1
 503.869140625 133 l 2
 508.160360491 122.779714163 514.363764248 118.87109375 518 118.87109375 c 3
 522.207657663 118.87109375 528.665890231 122.790649649 532.950195312 134 c 2
 719.467773438 622 l 2
 735.846484462 664.852856339 778.307617188 690 800 690 c 1
 858 690 l 1
 858 0 l 1
 776 0 l 1
 776 641 l 1
 533.190429688 40 l 2
 525.469351569 20.3607872583 506.734293598 15.861328125 497 15.861328125 c 3
 487.636805751 15.861328125 468.103129418 23.7244707099 461.365234375 39 c 2
 220 602 l 1
 220 316 l 0
 220 179.756835938 220.916528122 109.406279333 223 73 c 0
 224.53125 46.2431640625 233 34 245 34 c 1
 269 34 l 2
 273.971679688 34 276 23 276 17 c 0
 276 11 272.764648438 3.1875 269 0 c 1
 97 0 l 1
 93.75 3.400390625 90 11 90 17 c 0
EndSplineSet
Colour: ffff00
EndChar

StartChar: N
Encoding: 78 78 60
GlifName: N_
Width: 742
Flags: W
HStem: -6 21G<594 601> -3 43 636 40 636 43
VStem: 130 51<187 533> 586 51<163 494 0 548.5>
LayerCount: 2
Fore
SplineSet
606 676 m 0x6c
 634 676 674 677 701 679 c 1x5c
 701 666 700 650 696 636 c 1
 652 636 637 603 637 494 c 2
 637 0 l 1
 626 -4 608 -6 594 -6 c 1xac
 181 533 l 1
 181 187 l 2
 181 74 196 40 250 40 c 1
 254 28 255 16 255 -3 c 1
 225 -1 185 0 156 0 c 0
 127 0 81 -1 56 -3 c 1
 56 14 57 28 61 40 c 1
 115 40 130 74 130 187 c 2
 130 600 l 1
 126 605 l 2
 107 629 94 633 61 636 c 1x6c
 57 650 56 668 56 679 c 1
 76 677 105 676 130 676 c 0
 155 676 179 677 197 679 c 1x5c
 586 163 l 1
 586 494 l 2
 586 603 571 636 517 636 c 1x6c
 513 659 512 667 512 679 c 1x5c
 541 677 578 676 606 676 c 0x6c
EndSplineSet
Validated: 1
EndChar

StartChar: Q
Encoding: 81 81 63
GlifName: Q_
Width: 731
Flags: HW
HStem: -9 21G<266 365> -9 49<305.5 365> 637 48<285 415.5>
VStem: 35 103<282.5 442> 593 103<263 404>
LayerCount: 2
Fore
SplineSet
483 12 m 1xb8
 588.330917201 -20.624620372 632.840928435 -99.2993552616 741.25488311 -99.2993552616 c 0
 749.148440074 -99.2993552616 757.38076535 -98.8822838618 766 -98 c 1
 766 -110 764 -125 760 -138 c 1
 721 -150 687 -161 636 -184 c 1
 506 -151 515 -25 365 -9 c 1x78
 167 -9 35 141 35 340 c 0
 35 544 180 685 365 685 c 0
 556 685 696 545 696 340 c 0
 696 186 612 60 483 12 c 1xb8
138 367 m 0x78
 138 198 226 40 385 40 c 0
 515 40 593 161 593 314 c 0
 593 494 487 637 344 637 c 0
 226 637 138 529 138 367 c 0x78
EndSplineSet
Validated: 1
EndChar

StartChar: R
Encoding: 82 82 64
GlifName: R_
Width: 684
Flags: HW
HStem: -9 21G -3 43 0 43 307 44 634 44<315 358>
VStem: 130 94<127 308 354 549 549 582.5> 463 98<465.5 539.5>
LayerCount: 2
Fore
SplineSet
523 140 m 0x3e
 565 69 584 47 658 43 c 1
 658 27 658 14 654 0 c 1x3e
 604 0 546 -1 497 -9 c 1x9e
 456 57 443 84 418 131 c 0
 382 197 355 242 294 307 c 1
 283.230447378 306.585786438 272.975613382 306.343145751 263.1644302 306.343145751 c 0
 249.289321881 306.343145751 236.30151519 306.828427125 224 308 c 1
 224 127 l 2
 224 60 239 43 290 40 c 1
 294 28 295 11 295 -3 c 1
 252 0 201 0 176 0 c 0
 141 0 86 -1 56 -3 c 1
 56 11 57 27 61 40 c 1
 115 43 130 60 130 127 c 2x5e
 130 549 l 2
 130 616 115 636 61 636 c 1
 57 649 56 662 56 678 c 1
 76 677 129 676 176 676 c 0
 231 676 287 678 343 678 c 0
 494 678 561 605 561 510 c 0
 561 421 497 355 393 328 c 1
 443 275 467 235 523 140 c 0x3e
224 354 m 1x5e
 240 352 253 351 268 351 c 0
 377 351 463 396 463 500 c 0
 463 579 418 634 298 634 c 0
 269 634 248 631 224 626 c 1
 224 354 l 1x5e
EndSplineSet
Validated: 1
EndChar

StartChar: U
Encoding: 85 85 67
GlifName: U_
Width: 675
Flags: W
HStem: -9 53<303.5 385> 636 43
VStem: 106 94<231 245 245 549> 519 51<261 269 269 509>
LayerCount: 2
Fore
SplineSet
570 269 m 2
 570 154 559 94 513 48 c 0
 475 10 419 -9 351 -9 c 0
 165 -9 106 76 106 231 c 2
 106 549 l 2
 106 620 96 630 47 636 c 1
 43 650 42 666 42 679 c 1
 69 677 117 676 158 676 c 0
 199 676 244 677 274 679 c 1
 274 666 273 650 269 636 c 1
 210 631 200 622 200 549 c 2
 200 245 l 2
 200 132 237 44 370 44 c 0
 403 44 448 54 476 82 c 0
 507 113 519 154 519 261 c 2
 519 509 l 2
 519 605 509 631 450 636 c 1
 446 656 445 665 445 679 c 1
 468 677 509 676 539 676 c 0
 569 676 608 677 634 679 c 1
 634 670 633 658 629 636 c 1
 583 631 570 606 570 509 c 2
 570 269 l 2
EndSplineSet
Validated: 1
EndChar

StartChar: V
Encoding: 86 86 68
GlifName: V_
Width: 686
Flags: HW
HStem: -6 21G<322 330> 636 40 636 43
VStem: 25 174.4 533.82 127.18
LayerCount: 2
Fore
SplineSet
559 676 m 0xd8
 590 676 632 677 661 679 c 1xd8
 661 664 660 651 656 636 c 1
 614 626 595 584 570 518 c 0
 503 346 433 172 361 -2 c 1
 348 -5 338 -6 322 -6 c 1
 250 188 174 382 115 521 c 0
 73 619 66 632 30 636 c 1
 26 652 25 668 25 679 c 1
 51 677 104 676 146 676 c 0
 188 676 229 677 267 679 c 1
 267 667 265 650 262 636 c 1
 220.193646882 633.504098321 199.411941279 626.725398075 199.411941279 599.87267497 c 0
 199.411941279 583.690492759 206.959016787 560.21823681 222 526 c 0
 274 403 322 277 371 142 c 1
 425 265 474 385 520 514 c 0
 528.90416944 540.356341542 533.875840902 562.526475559 533.875840902 580.465220596 c 0
 533.875840902 612.892613465 517.629993345 631.493167443 479 636 c 1xb8
 475 651 474 668 474 679 c 1
 503 677 528 676 559 676 c 0xd8
EndSplineSet
Validated: 1
EndChar

StartChar: W
Encoding: 87 87 69
GlifName: W_
Width: 1003
Flags: HW
HStem: -9 21G<277 284.5 691 698.5> 636 43 656 20G<122.5 153.5 865 898.5> 664 20G<533.5 544>
VStem: 25 164.78 856.56 121.44
LayerCount: 2
Fore
SplineSet
883 676 m 0xa4
 914 676 951 677 978 679 c 1
 978 666 976 650 971 636 c 1xa4
 936 628 922 601 887 491 c 2
 731 -3 l 1
 720 -7 706 -9 691 -9 c 1
 632 158 560 355 496 522 c 1
 320 -3 l 1
 309 -7 292 -9 277 -9 c 1
 223 168 167 346 109 521 c 0
 72 628 66 632 30 636 c 1
 26 649 25 665 25 679 c 1
 57 677 107 676 138 676 c 0
 169 676 222 677 259 679 c 1
 259 668 258 652 254 636 c 1xcc
 209.154984499 633.437427686 189.756229354 628.412314046 189.756229354 601.730403407 c 0
 189.756229354 586.76367765 195.859935436 564.982766005 207 533 c 0
 243 422 289 278 324 160 c 1
 500 679 l 1
 510 683 523 684 544 684 c 1x98
 606 522 677 325 735 158 c 1
 841 494 l 2
 851.443237541 527.687863034 856.77955056 553.885570104 856.77955056 574.122377865 c 0
 856.77955056 613.957079362 836.102889028 630.695029043 793 636 c 1
 788 649 786 668 786 679 c 1
 814 677 847 676 883 676 c 0xa4
EndSplineSet
Validated: 1
EndChar

StartChar: X
Encoding: 88 88 70
GlifName: X_
Width: 667
Flags: HW
HStem: -3 43 0 40 636 40 636 43
VStem: 40 156.62 56 191.62 434.79 192.21 469.62 145.38
LayerCount: 2
Fore
SplineSet
621 40 m 1x9a
 625 28 627 12 627 -3 c 1x9a
 598 -1 546 0 505 0 c 0
 464 0 414 -1 384 -2 c 1x59
 384 10 385 26 388 40 c 1
 417.406141095 42.8829550093 435.17628077 48.425567486 435.17628077 69.0878057607 c 0
 435.17628077 84.2607404386 425.593858905 107.58682616 404 144 c 0
 377 191 348 237 320 284 c 1
 232 155 l 2
 208.578476742 120.556583445 196.334996868 96.0257713991 196.334996868 78.4049701175 c 0
 196.334996868 57.6567526349 213.310206569 46.4890533511 249 40 c 1
 253 26 254 10 254 -3 c 1
 220 -1 181 0 144 0 c 0
 107 0 67 -1 40 -3 c 1
 40 8 41 28 46 42 c 1x9a
 78 50 116 76 165 144 c 2
 293 327 l 1
 253 390 213 453 171 516 c 0
 100 624 94 629 62 635 c 1
 57 651 56 665 56 679 c 1
 91 677 140 676 178 676 c 0
 216 676 268 677 299 678 c 1xa5
 299 666 298 651 295 636 c 1
 263.687197494 630.408428124 247.069262729 621.064975122 247.069262729 600.801845726 c 0
 247.069262729 584.826275441 257.398702193 562.06321093 279 529 c 0
 307 487 334 445 361 403 c 1
 434 518 l 2
 458.310483333 556.716695679 470.055131552 582.867556243 470.055131552 600.649759159 c 0
 470.055131552 622.36652236 452.538157716 631.601553086 419 636 c 1
 415 651 414 668 414 679 c 1
 447 677 486 676 516 676 c 0
 546 676 590 677 615 679 c 1
 615 666 615 651 611 636 c 1x95
 580 628 556 612 496 521 c 2
 389 358 l 1
 431 291 472 224 512 157 c 0
 568 64 589 45 621 40 c 1x9a
EndSplineSet
Validated: 1
EndChar

StartChar: Y
Encoding: 89 89 71
GlifName: Y_
Width: 630
Flags: HW
HStem: 0 40 639 37 639 39
VStem: 25 186.96 271 94<150 163 163 259 259 259> 476.24 128.76
LayerCount: 2
Fore
SplineSet
519 676 m 0xdc
 549 676 582 677 605 678 c 1xcc
 605 664 604 653 601 639 c 1
 565 629 534 599 500 531 c 2
 365 260 l 1
 365 163 l 2
 365 57 374 49 442 40 c 1
 446 28 448 13 448 -3 c 1
 404 -2 358 0 321 0 c 0
 277 0 213 -1 185 -2 c 1
 185 12 187 28 191 40 c 1
 262 46 271 56 271 150 c 2
 271 259 l 1
 105 578 l 2
 84 619 68 635 31 637 c 1
 26 652 25 664 25 678 c 1
 53 677 91 676 129 676 c 0
 167 676 232 676 263 678 c 1
 263 663 262 653 258 639 c 1
 226.539837297 635.974984355 211.916998749 627.459536921 211.916998749 608.581789359 c 0
 211.916998749 596.256809762 218.150093867 579.514821652 230 557 c 0xbc
 265 490 307 404 347 314 c 1
 388 405 425 482 455 542 c 0
 469.271443942 569.750029888 476.313714149 589.170794385 476.313714149 603.003545242 c 0
 476.313714149 624.064182389 459.989263085 632.171431987 428 637 c 1
 424 651 421 663 421 678 c 1
 445 676 489 676 519 676 c 0xdc
EndSplineSet
Validated: 1
EndChar

StartChar: Z
Encoding: 90 90 72
GlifName: Z_
Width: 631
Flags: W
HStem: -3 45 508 170 636 42
VStem: 58 510
LayerCount: 2
Fore
SplineSet
516 169 m 1xb0
 537 167 554 162 568 152 c 1
 557 108 551 50 550 -3 c 1
 452 0 381 0 289 0 c 0
 197 0 107 -1 66 -3 c 1
 61 7 58 16 58 29 c 1
 183 231 307 431 425 636 c 1
 283 636 l 2xb0
 195 636 161 617 140 508 c 1
 123 508 96 510 83 518 c 1xd0
 95 560 102 624 102 678 c 1
 143 677 280 676 346 676 c 0
 412 676 467 676 538 678 c 1
 544 671 549 658 549 645 c 1
 428 434 310 237 185 42 c 1
 339 42 l 2
 462 42 494 60 516 169 c 1xb0
EndSplineSet
Validated: 1
EndChar

StartChar: bracketleft
Encoding: 91 91 73
GlifName: bracketleft
Width: 272
Flags: W
HStem: 704 38
VStem: 35 70<-189 -157 -157 610>
LayerCount: 2
Fore
SplineSet
35 742 m 1
 70 740 104 740 130 740 c 0
 165 740 188 740 226 742 c 1
 235 734 237 718 237 704 c 1
 130 695 105 688 105 610 c 2
 105 -157 l 2
 105 -221 145 -225 226 -229 c 1
 235 -239 237 -250 237 -269 c 1
 209 -267 168 -267 141 -267 c 0
 108 -267 69 -267 35 -269 c 1
 35 742 l 1
EndSplineSet
Validated: 1
EndChar

StartChar: backslash
Encoding: 92 92 74
GlifName: backslash
Width: 380
Flags: HW
HStem: -3 21G<295 295> 0 21G<347 347> 693 20G<52 62.5>
VStem: 31 316
LayerCount: 2
Fore
SplineSet
57 713 m 0x70
 68 713 78 712 84 709 c 1
 347 0 l 1
 340.333333333 -2.66666666667 323.444444444 -4.44444444444 310.259259259 -4.44444444444 c 0
 303.666666667 -4.44444444444 298 -4 295 -3 c 1xb0
 31 709 l 1
 37 712 47 713 57 713 c 0x70
EndSplineSet
Validated: 1
EndChar

StartChar: bracketright
Encoding: 93 93 75
GlifName: bracketright
Width: 272
Flags: W
HStem: 704 38
VStem: 167 70<-157 610 610 649>
LayerCount: 2
Fore
SplineSet
237 -269 m 1
 203 -267 164 -267 131 -267 c 0
 104 -267 63 -267 35 -269 c 1
 35 -250 37 -239 46 -229 c 1
 127 -225 167 -221 167 -157 c 2
 167 610 l 2
 167 688 142 695 35 704 c 1
 35 718 37 734 46 742 c 1
 84 740 107 740 142 740 c 0
 168 740 202 740 237 742 c 1
 237 -269 l 1
EndSplineSet
Validated: 1
EndChar

StartChar: asciicircum
Encoding: 94 94 76
GlifName: asciicircum
Width: 550
Flags: HW
HStem: 404 21G
VStem: 42 465
LayerCount: 2
Fore
SplineSet
276 644 m 1
 202 556 126 462 69 383 c 1
 54 396 47 409 42 430 c 1
 248 685 l 1
 259.25 691.75 275 695.125 289.34375 695.125 c 0
 294.125 695.125 298.75 694.75 303 694 c 1
 357 612 445 486 507 404 c 1
 498.100111359 396.583426132 482.049498886 392.467186341 466.599266878 392.467186341 c 0
 461.217464737 392.467186341 455.908509651 392.966629547 451 394 c 1
 276 644 l 1
EndSplineSet
Validated: 1
EndChar

StartChar: underscore
Encoding: 95 95 77
GlifName: underscore
Width: 550
Flags: W
HStem: -141 49<226 305>
VStem: 32 486<-143 -92>
LayerCount: 2
Fore
SplineSet
32 -143 m 1
 32 -122 35 -105 44 -92 c 1
 518 -92 l 1
 518 -106 513 -131 506 -142 c 1
 396 -141 347 -141 263 -141 c 0
 189 -141 131 -142 32 -143 c 1
EndSplineSet
Validated: 1
EndChar

StartChar: grave
Encoding: 96 96 78
GlifName: grave
Width: 300
Flags: HW
HStem: 692 20G 704 10.75
VStem: 66 167
LayerCount: 2
Fore
SplineSet
193 535 m 1x60
 147 607 108 659 66 704 c 1
 82.047662318 712.023831159 102.285860323 715.095211051 123.187585189 715.095211051 c 0
 136.150284669 715.095211051 149.368186788 713.913911093 162 712 c 1xa0
 179 655 201 597 233 537 c 1
 227 534 220.25 533 213.375 533 c 0
 206.5 533 199.5 534 193 535 c 1x60
EndSplineSet
Validated: 1
EndChar

StartChar: b
Encoding: 98 98 80
GlifName: b
Width: 547
Flags: W
HStem: -9 46<243.5 290.5 243.5 333> 404 21G<266.5 318> 447 20G<286.5 378.5> 646 37<19 34 19 44> 697 20G
VStem: 85 90<186 213 407 416 416 575 575 598.5> 408 99<175 296>
LayerCount: 2
Fore
SplineSet
320 467 m 0
 437 467 507 399 507 245 c 0
 507 105 408 -9 258 -9 c 0
 167 -9 103 21 63 59 c 1
 77 77 85 107 85 186 c 2
 85 575 l 2
 85 622 78 646 10 646 c 1
 10 661 12 672 19 683 c 1
 49 683 129 700 153 717 c 1
 165 713 175 702 175 677 c 2
 175 416 l 2
 175 398 173 385 171 373 c 1
 176 382 180 388 183 393 c 0
 201 423 253 467 320 467 c 0
263 37 m 0
 318 37 408 73 408 232 c 0
 408 360 340 404 296 404 c 0
 237 404 175 353 175 213 c 2
 175 72 l 1
 198 51 224 37 263 37 c 0
EndSplineSet
Validated: 1
EndChar

StartChar: d
Encoding: 100 100 82
GlifName: d
Width: 564
Flags: W
HStem: -9 63<229 260.5> 22 46 421 46<256.5 303.5> 646 37<306 321 306 331> 697 20G
VStem: 40 99<162 283> 372 90<245 386 386 386 453 575 575 598.5>
LayerCount: 2
Fore
SplineSet
462 136 m 2x7e
 462 89 469 68 524 68 c 1
 524 54 523 36 518 22 c 1x7e
 485 20 435 8 404 -9 c 1
 390 -3 379 3 379 49 c 0
 379 69 382 81 387 107 c 1
 377 85 369 73 364 65 c 0
 346 35 294 -9 227 -9 c 0xbe
 110 -9 40 59 40 213 c 0
 40 353 139 467 289 467 c 0
 322 467 345 462 372 453 c 1
 372 575 l 2
 372 622 365 646 297 646 c 1
 297 661 299 672 306 683 c 1
 336 683 416 700 440 717 c 1
 452 713 462 702 462 677 c 2
 462 136 l 2x7e
251 54 m 0xbe
 310 54 372 105 372 245 c 2
 372 386 l 1
 349 407 323 421 284 421 c 0
 229 421 139 385 139 226 c 0
 139 98 207 54 251 54 c 0xbe
EndSplineSet
Validated: 1
EndChar

StartChar: f
Encoding: 102 102 84
GlifName: f
Width: 342
Flags: W
HStem: -3 43 403 45<36 116 280.5 298> 659 55<273 309>
VStem: 116 90<127 147 147 392 448 488 488 519> 359 57<572 590 572 591>
LayerCount: 2
Fore
SplineSet
325 714 m 0
 377 714 398 702 420 689 c 1
 417 647 416 608 416 572 c 1
 399 567 377 564 359 564 c 1
 359 618 337 659 281 659 c 0
 227 659 206 608 206 519 c 2
 206 448 l 1
 308 448 l 1
 308 435 306 416 298 403 c 1
 263 403 232 399 206 392 c 1
 206 147 l 2
 206 60 232 43 295 40 c 1
 299 29 300 15 300 -3 c 1
 269 -1 221 0 174 0 c 0
 127 0 68 -1 42 -3 c 1
 42 15 43 29 47 40 c 1
 100 43 116 60 116 127 c 2
 116 395 l 1
 87 401 56 403 36 403 c 1
 36 420 40 435 50 448 c 1
 116 448 l 1
 116 488 l 2
 116 638 221 714 325 714 c 0
EndSplineSet
Validated: 1
EndChar

StartChar: g
Encoding: 103 103 85
GlifName: g
Width: 511
Flags: W
HStem: -249 53<198 283 198 287> -17 80<218 283.5> -6 21G 139 46<225.5 273 219 298> 412 46 422 36 422 45<200.5 249 177.5 258.5>
VStem: 41 86<-127 -89.5> 57 92<272.5 341.5 272.5 347> 67 70<49 111.5> 326 94<260.5 322 260.5 327.5> 380 83<-93.5 -61.5>
LayerCount: 2
Fore
SplineSet
282 63 m 0xd250
 416 63 463 33 463 -48 c 0
 463 -139 359 -249 215 -249 c 0
 92 -249 41 -202 41 -114 c 0xb310
 41 -65 67 -28 115 -6 c 1
 78 7 67 30 67 68 c 0xb260
 67 106 88 143 120 174 c 1
 82 201 57 244 57 301 c 0
 57 393 118 467 237 467 c 0xb2a0
 261 467 282 464 300 458 c 1
 464 458 l 1xb4a0
 469 441 471 417 471 396 c 1
 446 402 405 409 374 412 c 1
 406 379 420 337 420 307 c 0xb8a0
 420 214 357 139 239 139 c 0
 212 139 186 143 162 152 c 1
 144 134 137 118 137 105 c 0
 137 69 154 63 282 63 c 0xd250
227 422 m 0xb2a0
 174 422 149 369 149 314 c 0
 149 231 187 185 251 185 c 0
 295 185 326 222 326 292 c 0
 326 363 290 422 227 422 c 0xb2a0
239 -196 m 0xd310
 327 -196 380 -144 380 -87 c 0
 380 -36 352 -17 215 -17 c 0
 194 -17 176 -16 161 -15 c 1
 135 -37 127 -60 127 -93 c 0
 127 -161 157 -196 239 -196 c 0xd310
EndSplineSet
Validated: 1
EndChar

StartChar: h
Encoding: 104 104 86
GlifName: h
Width: 596
Flags: W
HStem: -3 43 401 61<317.5 340> 646 37<44 59 44 69> 697 20G
VStem: 110 90<127 234 415 423 423 575 575 598.5> 406 90<127 279 279 299>
LayerCount: 2
Fore
SplineSet
555 40 m 1
 559 28 560 15 560 -3 c 1
 531 -1 492 0 451 0 c 0
 410 0 363 -2 332 -3 c 1
 332 15 333 29 337 40 c 1
 385 40 406 60 406 127 c 2
 406 279 l 2
 406 373 367 401 313 401 c 0
 261 401 200 356 200 234 c 2
 200 127 l 2
 200 60 217 40 269 40 c 1
 273 28 274 15 274 -3 c 1
 246 -2 196 0 155 0 c 0
 114 0 65 -1 36 -3 c 1
 36 15 37 29 41 40 c 1
 93 40 110 60 110 127 c 2
 110 575 l 2
 110 622 103 646 35 646 c 1
 35 661 37 672 44 683 c 1
 74 683 154 700 178 717 c 1
 190 713 200 702 200 677 c 2
 200 423 l 2
 200 407 199 387 193 364 c 1
 197 371 200 379 208 390 c 0
 230 421 282 462 353 462 c 0
 429 462 496 421 496 299 c 2
 496 127 l 2
 496 58 515 40 555 40 c 1
EndSplineSet
Validated: 1
EndChar

StartChar: i
Encoding: 105 105 87
GlifName: i
Width: 301
Flags: HW
LayerCount: 2
Back
SplineSet
148 580 m 0xf8
 114 580 89 606 89 638 c 0
 89 674 117 699 148 699 c 0
 184 699 208 674 208 638 c 0
 208 607 181 580 148 580 c 0xf8
37 -3 m 1
 37 10 38 27 42 40 c 1
 95 40 111 60 111 127 c 2
 111 325 l 2
 111 372 104 396 36 396 c 1
 36 411 38 422 45 433 c 1
 75 433 155 450 179 467 c 1
 191 463 201 452 201 427 c 2
 201 127 l 2
 201 60 217 40 260 40 c 1
 264 26 265 6 265 -3 c 1
 230 -1 190 0 152 0 c 0xf4
 114 0 70 -1 37 -3 c 1
EndSplineSet
Fore
SplineSet
100 0 m 6
 94 0 90 10 90 16 c 4
 90 22 94 32 100 32 c 6
 115 32 l 6
 121 32 125 36 125 42 c 4
 125 342 l 4
 125 347.99609375 121 352 115 352 c 6
 100 352 l 6
 94 352 90 362 90 368 c 4
 90 374 94 384 100 384 c 6
 191 384 l 5
 197 384 201 380 201 374 c 5
 201 42 l 4
 201 36 205 32 211 32 c 6
 226 32 l 6
 232 32 236 22 236 16 c 4
 236 10 232 -7.34763812293e-016 226 0 c 6
 100 0 l 6
148 450 m 0xf8
 114 450 89 476 89 508 c 0
 89 544 117 569 148 569 c 0
 184 569 208 544 208 508 c 0
 208 477 181 450 148 450 c 0xf8
EndSplineSet
EndChar

StartChar: j
Encoding: 106 106 88
GlifName: j
Width: 283
Flags: W
HStem: -249 21G 396 37<45 60 45 70> 447 20G 580 119<132.5 164.5>
VStem: 89 119<622.5 656 622.5 656> 111 90<19 33 33 325 325 348.5>
LayerCount: 2
Fore
SplineSet
148 580 m 0xf8
 114 580 89 606 89 638 c 0
 89 674 117 699 148 699 c 0
 184 699 208 674 208 638 c 0
 208 607 181 580 148 580 c 0xf8
35 -249 m 1
 25 -244 15 -234 13 -221 c 1
 90 -134 111 -79 111 19 c 2
 111 325 l 2
 111 372 104 396 36 396 c 1
 36 411 38 422 45 433 c 1
 75 433 155 450 179 467 c 1
 191 463 201 452 201 427 c 2
 201 33 l 2xf4
 201 -111 115 -203 35 -249 c 1
EndSplineSet
Validated: 1
EndChar

StartChar: k
Encoding: 107 107 89
GlifName: k
Width: 545
Flags: HW
LayerCount: 2
Back
SplineSet
421 106 m 4x3e
 461 57 479 47 525 43 c 5
 525 24 524 11 520 0 c 5x3e
 472 0 436 -2 392 -9 c 5x9e
 351 53 269 154 200 225 c 5
 200 127 l 6
 200 60 216 40 259 40 c 5
 263 26 264 6 264 -3 c 5
 229 -1 189 0 151 0 c 4
 113 0 69 -1 36 -3 c 5
 36 10 37 27 41 40 c 5
 94 40 110 60 110 127 c 6x5e
 110 575 l 6
 110 622 103 646 35 646 c 5
 35 661 37 672 44 683 c 5
 74 683 154 700 178 717 c 5
 190 713 200 702 200 677 c 6
 200 256 l 5
 274 323 l 6
 320 364 338 389 338 403 c 4
 338 414 327 419 309 419 c 5
 305 432 303 445 303 460 c 5
 346 458 380 458 407 458 c 4
 429 458 465 458 501 460 c 5
 501 447 499 430 494 418 c 5
 455 417 422 402 372 357 c 6
 277 271 l 5
 318 228 360 180 421 106 c 4x3e
EndSplineSet
Fore
SplineSet
191 176 m 1
 191 205 l 1
 229 205 l 1
 271 205 304.788386716 173.016890311 320.040039062 139.08984375 c 0
 348.154381323 71.8056292998 396.011479855 29.107421875 435.118164062 29.107421875 c 0
 448.044455027 29.107421875 460.016864858 33.7700733737 470 43.755859375 c 0
 474.625866946 48.3829546451 480.266020878 50.9978774671 484.999999779 50.9978774671 c 3
 490.051445589 50.9978774671 494 48.1123840191 494 43 c 0
 494 20.5107673431 426.763789621 -13.099609375 379.7734375 -13.099609375 c 0
 332.896046162 -13.099609375 302.578577957 13.5970752734 274.447265625 74.0458984375 c 0
 232.630409716 165.70029789 227.446649958 176 205 176 c 2
 201 176 l 1
 191 176 l 1
173 205 m 1
 201 205 l 1
 298 312 l 2
 310.855606942 325.518267094 315 340.363984946 315 342 c 0
 315 348 315 352 309 352 c 1
 300 352 l 2
 294 352 290 362 290 368 c 0
 290 374 294 384 300 384 c 2
 394 384 l 2
 400 384 404 374 404 368 c 0
 404 362 400 352 394 352 c 1
 384 352 l 0
 369 352 349.489675014 335.530662846 331.703156698 317.000000914 c 2
 229 205 l 1
 229 176 l 1
 173 176 l 1
 173 205 l 1
EndSplineSet
Refer: 90 108 N 1 0 0 1 0 0 2
EndChar

StartChar: l
Encoding: 108 108 90
GlifName: l
Width: 326
Flags: HW
LayerCount: 2
Back
SplineSet
36 -3 m 5
 36 10 37 27 41 40 c 5
 94 40 110 60 110 127 c 6
 110 575 l 6
 110 622 103 646 35 646 c 5
 35 661 37 672 44 683 c 5
 74 683 154 700 178 717 c 5
 190 713 200 702 200 677 c 6
 200 127 l 6
 200 60 216 40 259 40 c 5
 263 26 264 6 264 -3 c 5
 229 -1 189 0 151 0 c 4
 113 0 69 -1 36 -3 c 5
EndSplineSet
Fore
SplineSet
100 0 m 2
 94 0 90 10 90 16 c 0
 90 22 94 32 100 32 c 2
 115 32 l 2
 121 32 125 36 125 42 c 0
 125 648 l 0
 125 653.99609375 121 658 115 658 c 2
 100 658 l 2
 94 658 90 668 90 674 c 0
 90 680 94 690 100 690 c 2
 191 690 l 1
 197 690 201 686 201 680 c 1
 201 42 l 0
 201 36 205 32 211 32 c 2
 226 32 l 2
 232 32 236 22 236 16 c 0
 236 10 232 -7.34763812293e-016 226 0 c 2
 100 0 l 2
EndSplineSet
EndChar

StartChar: q
Encoding: 113 113 95
GlifName: q
Width: 546
Flags: W
HStem: -245 43 -1 61<232.5 250.5> 421 46<244.5 304.5>
VStem: 40 99<164.5 282> 372 90<-115 20 20 35.5 233 291>
LayerCount: 2
Fore
SplineSet
531 -202 m 1
 535 -214 536 -227 536 -245 c 1
 511 -243 455 -242 412 -242 c 0
 369 -242 322 -243 288 -245 c 1
 288 -227 289 -213 293 -202 c 1
 356 -199 372 -182 372 -115 c 2
 372 20 l 2
 372 51 376 79 387 123 c 1
 379 101 368 76 358 63 c 0
 331 28 277 -1 224 -1 c 0
 127 -1 40 71 40 214 c 0
 40 350 138 467 284 467 c 0
 375 467 440 441 482 400 c 1
 469 380 462 350 462 291 c 2
 462 -115 l 2
 462 -182 478 -199 531 -202 c 1
261 60 m 0
 307 60 372 103 372 233 c 2
 372 386 l 1
 357 402 321 421 288 421 c 0
 201 421 139 352 139 227 c 0
 139 102 204 60 261 60 c 0
EndSplineSet
Validated: 1
EndChar

StartChar: r
Encoding: 114 114 96
GlifName: r
Width: 419
Flags: W
HStem: -3 43 385 73<268.5 343.5> 396 37 447 20G
VStem: 111 90<127 147 147 243> 335 57
LayerCount: 2
Fore
SplineSet
330 458 m 0xcc
 357 458 378 450 399 434 c 1
 394 401 392 351 392 316 c 1
 380 312 357 307 335 307 c 1
 332 371 312 385 286 385 c 0xcc
 251 385 201 321 201 243 c 2
 201 147 l 2
 201 60 227 43 290 40 c 1
 294 29 295 15 295 -3 c 1
 264 -1 216 0 169 0 c 0
 122 0 63 -1 37 -3 c 1
 37 15 38 29 42 40 c 1
 95 43 111 60 111 127 c 2
 111 325 l 2
 111 372 102 394 36 396 c 1
 36 411 38 422 45 433 c 1
 86 436 148 451 179 467 c 1
 191 463 201 452 201 423 c 0xbc
 201 385 194 355 188 325 c 1
 196 348 201 365 209 377 c 0
 238 423 278 458 330 458 c 0xcc
EndSplineSet
Validated: 1
EndChar

StartChar: t
Encoding: 116 116 98
GlifName: t
Width: 351
Flags: W
HStem: -9 54<222 229> 391 57<29 92> 404 21G
VStem: 92 90<120 141 141 391 448 568>
LayerCount: 2
Fore
SplineSet
208 -9 m 0xb0
 129 -9 92 29 92 120 c 2
 92 391 l 1xd0
 72 398 53 402 20 404 c 1xb0
 20 421 22 432 29 448 c 1
 92 448 l 1
 92 580 l 1
 118 587 146 603 166 620 c 1
 179 614 182 610 182 568 c 2
 182 448 l 1
 312 448 l 1xd0
 312 435 309 419 303 404 c 1xb0
 255 402 215 398 182 391 c 1xd0
 182 141 l 2
 182 74 204 45 240 45 c 0
 268 45 287 53 306 69 c 1
 314 60 320 47 321 36 c 1
 299 11 250 -9 208 -9 c 0xb0
EndSplineSet
Validated: 1
EndChar

StartChar: u
Encoding: 117 117 99
GlifName: u
Width: 564
Flags: W
HStem: -9 21G -4 61<224 252> 22 46 396 37 401 37 447 20G
VStem: 82 90<174 196 196 325 325 348.5> 372 90<228 330 330 353.5>
LayerCount: 2
Fore
SplineSet
462 136 m 2x37
 462 89 469 68 524 68 c 1
 524 54 523 36 518 22 c 1
 485 20 435 8 404 -9 c 1
 390 -3 379 3 379 49 c 0
 379 58 379 71 382 91 c 1xb7
 375 75 364 61 350 47 c 0
 315 12 279 -4 225 -4 c 0
 135 -4 82 41 82 174 c 2
 82 325 l 2
 82 372 77 394 16 396 c 1
 16 411 17 421 23 433 c 1
 64 436 119 451 150 467 c 1
 162 463 172 452 172 423 c 2x57
 172 196 l 2
 172 106 193 57 255 57 c 0
 321 57 372 112 372 228 c 2
 372 330 l 2
 372 377 363 399 297 401 c 1
 297 416 297 426 304 438 c 1x4f
 356 441 410 453 440 467 c 1
 452 463 462 452 462 423 c 2
 462 136 l 2x37
EndSplineSet
Validated: 1
EndChar

StartChar: v
Encoding: 118 118 100
GlifName: v
Width: 528
Flags: HW
HStem: -9 21G<243 251> 420 41 438 20G<99 141 404.5 435.5>
VStem: 15 158.84 388.93 124.07
LayerCount: 2
Fore
SplineSet
420 458 m 0xb8
 451 458 489 459 513 461 c 1
 513 443 510 430 504 418 c 1xb8
 471 411 457 388 424 309 c 2
 289 0 l 1
 277 -6 259 -9 243 -9 c 1
 217 57 103 312 83 355 c 0
 57 408 48 415 21 418 c 1
 16 435 15 442 15 461 c 1
 43 459 78 458 120 458 c 0
 162 458 211 459 243 461 c 1
 243 446 240 432 236 420 c 1
 191.782581855 416.700192676 173.698111815 411.222639676 173.698111815 392.356960837 c 0
 173.698111815 382.636608759 178.499036621 369.362080898 187 351 c 0xd8
 204 314 258 187 291 100 c 1
 371 300 l 2
 383.218656962 331.265386931 388.979892732 354.911016856 388.979892732 372.561322425 c 0
 388.979892732 404.025284588 370.672014558 416.437489054 338 419 c 1
 331 432 327 447 327 461 c 1
 353 459 389 458 420 458 c 0xb8
EndSplineSet
Validated: 1
EndChar

StartChar: w
Encoding: 119 119 101
GlifName: w
Width: 774
Flags: HW
HStem: -9 21G<215 226 530 539.5> 438 20G<91 135 393 393 656.5 689> 440 20G 441 20G 442 20G<426.5 433>
VStem: 15 152.24 644.87 114.13
LayerCount: 2
Fore
SplineSet
671 458 m 4xc6
 707 458 736 459 759 461 c 1
 759 443 757 431 751 417 c 1x96
 721 409 710 389 677 291 c 2
 576 0 l 1
 564 -7 549 -9 530 -9 c 1
 487 101 436 224 390 328 c 1
 259 0 l 1
 248 -7 237 -9 215 -9 c 1
 170 120 126 238 77 358 c 0
 62 395 50 408 21 417 c 1
 16 430 15 448 15 460 c 1
 41 459 69 458 113 458 c 0xa6
 157 458 189 459 223 461 c 1
 223 448 222 427 218 417 c 1x96
 180.240377654 412.954326177 167.031970328 403.907478924 167.031970328 387.10039691 c 0
 167.031970328 378.981472404 170.114184557 369.051678093 175 357 c 0
 204 285 236 194 262 119 c 1
 393 458 l 1
 403 461 420 462 433 462 c 1x8e
 475 366 526 240 574 118 c 1
 631 288 l 2
 640.83071046 318.760610149 645.331481262 342.381112454 645.331481262 360.487953519 c 0
 645.331481262 399.478926013 624.461135079 412.902718154 591 417 c 1
 585 431 582 447 582 461 c 1x96
 607 459 642 458 671 458 c 4xc6
EndSplineSet
Validated: 1
EndChar

StartChar: z
Encoding: 122 122 104
GlifName: z
Width: 501
Flags: W
HStem: -2 47 414 47
VStem: 395 53
LayerCount: 2
Fore
SplineSet
448 150 m 1
 448 117 450 53 456 17 c 1
 451 6 440 -2 424 -2 c 0
 373 -1 332 0 245 0 c 0
 157 0 103 -1 67 -2 c 1
 58 7 51 22 51 38 c 1
 117 129 263 334 315 414 c 1
 223 414 l 2
 151 414 131 396 112 308 c 1
 96 308 75 310 60 316 c 1
 64 360 67 410 67 461 c 1
 108 459 189 458 250 458 c 0
 309 458 388 459 427 461 c 1
 436 450 440 432 440 418 c 1
 374 323 241 139 170 45 c 1
 297 45 l 2
 368 45 388 60 395 156 c 1
 411 156 428 155 448 150 c 1
EndSplineSet
Validated: 1
EndChar

StartChar: braceleft
Encoding: 123 123 105
GlifName: braceleft
Width: 327
Flags: HW
HStem: -271 1012
VStem: 123 77<561 587.5> 124 80<-105.5 -82 -142 -38> 133 91<61 116.5>
LayerCount: 2
Fore
SplineSet
286 -271 m 1xa0
 150 -229 124 -148 124 -63 c 0
 124 -13 133 38 133 84 c 0
 133 149 116 202 35 228 c 1
 35 240 35 248 40 260 c 1
 117 286 135 335 135 394 c 0x90
 135 442 123 497 123 549 c 0
 123 626 149 699 277 741 c 1
 283 732 286 723 286 714 c 1
 218 691 200 645 200 591 c 0xc0
 200 529.451234931 223.030744411 458.979526736 223.030744411 394.803522472 c 0
 223.030744411 327.614676948 198.864957836 270.491656628 96 246 c 1
 199 219 224 158 224 86 c 0x90
 224 21 204 -51 204 -113 c 0
 204 -171 222 -220 292 -242 c 1
 292 -255 292 -263 286 -271 c 1xa0
EndSplineSet
Validated: 1
EndChar

StartChar: bar
Encoding: 124 124 106
GlifName: bar
Width: 170
Flags: W
HStem: 692 20G<100 110>
VStem: 60 49<145 325 145 701>
LayerCount: 2
Fore
SplineSet
60 -241 m 1
 60 701 l 1
 74 710 90 712 110 712 c 1
 110 597 109 416 109 234 c 0
 109 56 110 -113 110 -230 c 1
 101 -236 75 -241 60 -241 c 1
EndSplineSet
Validated: 1
EndChar

StartChar: braceright
Encoding: 125 125 107
GlifName: braceright
Width: 327
Flags: HW
HStem: -271 1012
VStem: 103 91<61 116.5 61 122> 123 80<-105.5 -82> 127 77<561 587.5 523 618>
LayerCount: 2
Fore
SplineSet
41 -271 m 1xa0
 35 -263 35 -255 35 -242 c 1
 105 -220 123 -171 123 -113 c 0xa0
 123 -51 103 21 103 86 c 0
 103 158 128 219 231 246 c 1
 128.135042164 270.491656628 103.969255589 327.614676948 103.969255589 394.803522472 c 0
 103.969255589 458.993824602 127 529.437055026 127 591 c 0
 127 645 109 691 41 714 c 1
 41 723 44 732 50 741 c 1
 178 699 204 626 204 549 c 0x90
 204 497 192 442 192 394 c 0
 192 335 210 286 287 260 c 1
 292 248 292 240 292 228 c 1xc0
 211 202 194 149 194 84 c 0
 194 38 203 -13 203 -63 c 0
 203 -148 177 -229 41 -271 c 1xa0
EndSplineSet
Validated: 1
EndChar

StartChar: asciitilde
Encoding: 126 126 108
GlifName: asciitilde
Width: 550
Flags: W
HStem: 198 62<347 390> 260 57<163 214>
VStem: 46 458
LayerCount: 2
Fore
SplineSet
68 195 m 1x60
 55 201 48 208 46 221 c 1
 96 294 141 317 184 317 c 0x60
 252 317 314 260 380 260 c 0
 410 260 440 272 473 305 c 1
 486 304 494 301 504 292 c 1
 453 220 409 198 371 198 c 0xa0
 304 198 248 260 180 260 c 0
 146 260 110 244 68 195 c 1x60
EndSplineSet
Validated: 1
EndChar

StartChar: uni0420
Encoding: 192 1056 111
GlifName: uni0420
Width: 924
VWidth: 0
Flags: W
HStem: -370 38<158.002 226 318 385.998> -18 45<422.412 604.14> 660 48<442.548 622.117>
VStem: 226 92<-332 71 124.489 543.803> 754 100<209.44 506.136>
LayerCount: 2
Fore
SplineSet
754 360 m 0
 754 554 669 660 523 660 c 0
 406 660 318 557 318 458 c 2
 318 168 l 1
 335 110 407 27 507 27 c 0
 666 27 754 162 754 360 c 0
226 523 m 2
 226 565 199 598 176 611 c 0
 167.318406406 616.130032578 156.145240338 617.931457346 145.000000673 617.931457346 c 3
 127.902122302 617.931457346 110.869967422 613.237674766 103 609 c 2
 70 592 l 2
 68 591 65 590 63 590 c 0
 56 590 50 595 50 605 c 0
 50 607 50 614 55 617 c 2
 268 736 l 1
 278 736 280 730 283 725 c 0
 285 720 286 712 283 709 c 2
 268 699 l 2
 263 695 249 689 243 684 c 1
 259 677 273 662 286 648 c 0
 300 633 317 593 317 593 c 1
 379 679.754385965 481 706.99122807 555 708 c 0
 749 708 854 573.617142857 854 357 c 0
 854 146 769 -18 541 -18 c 0
 426 -18 357 28 318 71 c 1
 318 -322 l 2
 318 -328 322 -332 328 -332 c 2
 379 -332 l 2
 383 -332 386 -344 386 -351 c 0
 386 -359 383 -364 379 -370 c 1
 165 -370 l 1
 161 -364 158 -357 158 -351 c 0
 158 -344 161 -332 165 -332 c 2
 216 -332 l 2
 222 -332 226 -328 226 -322 c 2
 226 496 l 1
 226 523 l 2
EndSplineSet
Substitution2: "'ss03' Style Set 3 lookup 2-1" uni0420.ss03
Substitution2: "'ss01' Style Set 1 lookup 0-1" uni0420.ss01
Colour: ff00
EndChar

StartChar: uni0422
Encoding: 194 1058 112
GlifName: uni0422
Width: 774
VWidth: 0
Flags: W
HStem: 0 38<272.002 341 433 502.998> 659 35<146.278 341 433 627.722>
VStem: 341 92<38 659>
LayerCount: 2
Fore
SplineSet
120.474609375 737.861328125 m 1
 158.970703125 737.861328125 l 1
 145.603515625 703.201171875 l 2
 145.603515625 696.109375 149.623046875 694 156.79296875 694 c 2
 280 694 l 1
 341 694 l 1
 433 694 l 1
 494 694 l 1
 550.16015625 694 l 1
 617.20703125 694 l 2
 624.376953125 694 628.396484375 696.109375 628.396484375 703.201171875 c 2
 615.029296875 737.861328125 l 1
 653.525390625 737.861328125 l 1
 655.111328125 730.209960938 670.084960938 696.514648438 691.86328125 648.4140625 c 0
 706.639648438 617.333007812 713.499023438 602.602539062 724 572.55859375 c 1
 699 572.55859375 l 1
 673.162109375 610.03125 l 2
 643.172851562 654.7578125 626 659 554 659 c 2
 443 659 l 2
 434.797851562 659 433 655.4140625 433 649 c 2
 433 48 l 2
 433 42 437 38 443 38 c 2
 496 38 l 2
 500 38 503 25.3330078125 503 19 c 0
 503 11.1767578125 500 5.587890625 496 0 c 1
 433 0 l 1
 279 0 l 1
 275 5.587890625 272 13.412109375 272 19 c 0
 272 25.3330078125 275 38 279 38 c 2
 331 38 l 2
 337 38 341 42 341 48 c 2
 341 649 l 2
 341 654.774414062 340.3125 659 331 659 c 2
 220 659 l 2
 148 659 130.827148438 654.7578125 100.837890625 610.03125 c 2
 75 572.55859375 l 1
 50 572.55859375 l 1
 60.5009765625 602.602539062 67.3603515625 617.333007812 82.13671875 648.4140625 c 0
 103.915039062 696.514648438 118.888671875 730.209960938 120.474609375 737.861328125 c 1
EndSplineSet
Substitution2: "'ss03' Style Set 3 lookup 2-1" uni0422.ss03
Substitution2: "'ss01' Style Set 1 lookup 0-1" uni0422.ss01
Colour: ff00
EndChar

StartChar: uni043D
Encoding: 221 1085 113
GlifName: uni043D_
Width: 602
VWidth: 0
Flags: MW
HStem: 0 32<90 130.997 200.997 241.994 360 400.997 470.997 511.994> 184 26<165.997 445.997> 364 32<90 130.997 200.997 241.994 360 400.997 470.997 511.994>
VStem: 130.997 70<32 184 210 364> 400.997 70<32 184 210 364>
LayerCount: 2
Fore
SplineSet
165.997070312 210 m 1
 445.997070312 210 l 1
 445.997070312 184 l 1
 165.997070312 184 l 1
 165.997070312 210 l 1
369.997070312 0 m 2
 363.997070312 0 359.997070312 10 359.997070312 16 c 0
 359.997070312 22 363.997070312 32 369.997070312 32 c 2
 390.997070312 32 l 2
 396.997070312 32 400.997070312 36 400.997070312 42 c 2
 400.997070312 354 l 2
 400.997070312 359.99609375 396.997070312 364 390.997070312 364 c 2
 369.997070312 364 l 2
 363.997070312 364 359.997070312 374 359.997070312 380 c 0
 359.997070312 386 363.997070312 396 369.997070312 396 c 2
 501.997070312 396 l 2
 507.997070312 396 511.997070312 386 511.997070312 380 c 0
 511.997070312 374 507.997070312 364 501.997070312 364 c 2
 480.997070312 364 l 2
 474.997070312 364 470.997070312 359.99609375 470.997070312 354 c 2
 470.997070312 42 l 2
 470.997070312 36 474.997070312 32 480.997070312 32 c 2
 501.997070312 32 l 2
 507.997070312 32 511.997070312 22 511.997070312 16 c 0
 511.997070312 10 507.997070312 0 501.997070312 0 c 2
 369.997070312 0 l 2
99.9970703125 0 m 2
 93.9970703125 0 89.9970703125 10 89.9970703125 16 c 0
 89.9970703125 22 93.9970703125 32 99.9970703125 32 c 2
 120.997070312 32 l 2
 126.997070312 32 130.997070312 36 130.997070312 42 c 2
 130.997070312 354 l 2
 130.997070312 359.99609375 126.997070312 364 120.997070312 364 c 2
 99.9970703125 364 l 2
 93.9970703125 364 89.9970703125 374 89.9970703125 380 c 0
 89.9970703125 386 93.9970703125 396 99.9970703125 396 c 2
 231.997070312 396 l 2
 237.997070312 396 241.997070312 386 241.997070312 380 c 0
 241.997070312 374 237.997070312 364 231.997070312 364 c 2
 210.997070312 364 l 2
 204.997070312 364 200.997070312 359.99609375 200.997070312 354 c 2
 200.997070312 42 l 2
 200.997070312 36 204.997070312 32 210.997070312 32 c 2
 231.997070312 32 l 2
 237.997070312 32 241.997070312 22 241.997070312 16 c 0
 241.997070312 10 237.997070312 0 231.997070312 0 c 2
 99.9970703125 0 l 2
EndSplineSet
Substitution2: "'ss03' Style Set 3 lookup 2-1" uni043D.ss03
Substitution2: "'ss01' Style Set 1 lookup 0-1" uni043D.ss01
EndChar

StartChar: uni041F
Encoding: 191 1055 114
GlifName: uni041F_
Width: 945
VWidth: 0
Flags: HW
HStem: 0 42<109.002 177 269 336.998 641.002 709 801 868.998> 666 52<499.953 651.145>
VStem: 177 92<42 612.524> 709 92<42 600.327>
LayerCount: 2
Back
SplineSet
57 634 m 6
 262 723 l 6
 270 724 276 715 276 709 c 4
 276 704 274 697 272 696 c 6
 238 676 l 6
 234 674 227 671 227 667 c 4
 227 666 227 666 228 665 c 4
 273 624 269 523 269 478 c 6
 269 52 l 6
 269 46 273 42 279 42 c 6
 330 42 l 6
 334 42 337 27 337 21 c 4
 337 14 334 5 330 0 c 5
 116 0 l 5
 112 5 109 16 109 21 c 4
 109 27 112 42 116 42 c 6
 167 42 l 6
 173 42 177 46 177 52 c 6
 177 522 l 6
 177 587 162 628 126 628 c 4
 122 628 115 628 110 626 c 6
 63 604 l 6
 57 601 50 612 50 617 c 4
 50 622 51 631 57 634 c 6
239 479 m 5
 308 557 445 718 597 718 c 4
 640.113402062 718 801 703 801 509 c 6
 801 52 l 6
 801 46 805 42 811 42 c 6
 862 42 l 6
 866 42 869 27 869 21 c 4
 869 14 866 5 862 0 c 5
 648 0 l 5
 644 5 641 16 641 21 c 4
 641 27 644 42 648 42 c 6
 699 42 l 6
 705 42 709 46 709 52 c 6
 709 472 l 6
 709 583 682 666 577 666 c 4
 453 666 311 514 239 434 c 5
 239 479 l 5
EndSplineSet
Fore
SplineSet
55.939453125 638.595703125 m 2
 259.5 724 l 2
 267.5 725 274.970703125 714.1171875 278.75 706.25 c 0
 281.614257812 700.287109375 282.131835938 687.454101562 280.131835938 686.454101562 c 2
 246.131835938 666.454101562 l 2
 242.131835938 664.454101562 238.666992188 661.01171875 238.666992188 657.01171875 c 0
 238.666992188 656.01171875 241.381835938 651.704101562 242.381835938 650.704101562 c 0
 266.01976871 622.910163509 269 579.54725465 269 540.000001634 c 3
 269 516.682376809 269 494.691245623 269 478 c 2
 269 52 l 2
 269 46 273 42 279 42 c 2
 330 42 l 2
 334 42 337 27 337 21 c 0
 337 14 334 5 330 0 c 1
 116 0 l 1
 112 5 109 16 109 21 c 0
 109 27 112 42 116 42 c 2
 167 42 l 2
 173 42 177 46 177 52 c 2
 177 547.102539062 l 2
 177 611.749023438 143.615234375 619.161132812 121.403320312 619.161132812 c 0
 108.918945312 619.161132812 87.7763671875 612.08984375 82.7763671875 610.08984375 c 2
 66.53515625 601.87890625 l 2
 60.53515625 598.87890625 50 612 50 617 c 0
 50 622 49.939453125 635.595703125 55.939453125 638.595703125 c 2
239 525.5 m 1
 273 525.5 l 1
 347.15625 605.4765625 452.926757812 718 583 718 c 0
 668.11328125 718 782.740234375 695.779296875 791 536 c 0
 793.64987916 484.744395788 794.525395061 427.958733098 794.525395061 370.000006083 c 3
 794.525395061 317.551037857 793.794221078 264.141435419 793 213 c 0
 792.166015625 159.302734375 787 52 787 52 c 2
 786.627929688 46.01171875 791 42 797 42 c 2
 848 42 l 2
 852 42 855 27 855 21 c 0
 855 14 852 5 848 0 c 1
 634 0 l 1
 630 5 627 16 627 21 c 0
 627 27 630 42 634 42 c 2
 685 42 l 2
 691 42 694.634765625 46.0107421875 695 52 c 2
 695 52 700.188476562 161.302734375 701 216 c 0
 701.672902774 261.338713907 702.297304885 309.176925448 702.297304885 355.99999508 c 3
 702.297304885 408.999646152 701.477882347 460.698669478 699 506 c 0
 692.9375 616.833984375 668 666 563 666 c 0
 439 666 311 519.657226562 239 439.657226562 c 1
 239 525.5 l 1
EndSplineSet
Substitution2: "'ss03' Style Set 3 lookup 2-1" uni041F.ss03
Substitution2: "'ss01' Style Set 1 lookup 0-1" uni041F.ss01
Colour: ff00
EndChar

StartChar: uni0421
Encoding: 193 1057 115
GlifName: uni0421
Width: 791
VWidth: 0
Flags: W
HStem: -18 42<343.431 548.753> 674 34<335.164 510.087>
VStem: 70 97<216.187 475.597> 655 35<472.999 557.188 624.157 679.701> 681.183 39.8168<147.126 209.148>
LayerCount: 2
Fore
SplineSet
70 340 m 0xe8
 70 589 249 708 415 708 c 0
 499.856725264 708 569.732944116 678.652828983 620.999999542 638.280843841 c 0
 630.529153983 630.776787321 640.023506098 624 643 624 c 0
 650 624 656 650 659 665 c 0
 662 678 670 680 676 680 c 0
 684 680 693 675 693 664 c 2
 693 664 684 613 684 586 c 0
 684 554 690 488 690 488 c 2
 691 472 678 473 674 473 c 0
 669 473 657 469 655 486 c 0xf0
 649 527 640 565 623 582 c 0
 569 637 498 674 428 674 c 0
 238 674 167 506 167 355 c 0
 167 168 270 24 452 24 c 0
 538 24 590 63 632 107 c 0
 668.78190302 145.620998171 681.183155731 188.469835059 681.183155731 205.999999462 c 3
 681.183155731 209.005585802 683.999851924 209.975662242 685.999999629 209.975662242 c 3
 701.566910604 209.975662242 721 208.111129935 721 198 c 0
 721 185 714 155 699 129 c 0
 648 42 560 -18 439 -18 c 0
 223 -18 70 117 70 340 c 0xe8
EndSplineSet
Substitution2: "'ss03' Style Set 3 lookup 2-1" uni0421.ss03
Substitution2: "'ss01' Style Set 1 lookup 0-1" uni0421.ss01
Colour: ff00
EndChar

StartChar: uni0423
Encoding: 195 1059 116
GlifName: uni0423
Width: 890
VWidth: 0
Flags: HW
LayerCount: 2
Fore
SplineSet
50 -388.268554688 m 0
 50 -359.056640625 73.279296875 -336.428710938 101.702148438 -336.173828125 c 0
 123.586914062 -336.173828125 148.177734375 -354.14453125 148.177734375 -380.1171875 c 0
 148.177734375 -390.248046875 145.384765625 -403.577148438 155.296875 -403.577148438 c 0
 203.203125 -403.577148438 317.66015625 -305.336914062 400.080078125 -137.474609375 c 0
 435.82421875 -68.74609375 465.068359375 -2.5166015625 465.068359375 9.7021484375 c 0
 465.068359375 21.9306640625 432.5078125 75.8759765625 411.033203125 121.727539062 c 2
 171.733398438 598.306640625 l 2
 150.873046875 641.779296875 137.668945312 664 125.6953125 664 c 2
 80.3203125 664 l 2
 71.982421875 664 70.3203125 669.030273438 70.3203125 677 c 0
 70.3203125 682.548828125 69.46484375 690 80.3203125 690 c 2
 222.26953125 690 l 1
 258.756835938 615.084960938 l 1
 472.021484375 167.331054688 l 2
 486.802734375 137.860351562 503.533203125 113.177734375 512.229492188 113.177734375 c 0
 512.50390625 113.177734375 518.778320312 113.19140625 519.0546875 113.21875 c 0
 529.09765625 113.21875 550.26171875 173.870117188 599.130859375 321.321289062 c 0
 622.22265625 390.995117188 630.650390625 430.828125 652.2109375 498.323242188 c 0
 664.803710938 537.745117188 679.107421875 597.677734375 679.107421875 621.728515625 c 0
 679.107421875 630.590820312 679.9453125 664 641.549804688 664 c 2
 600.3203125 664 l 2
 591.922851562 664 590.3203125 669.658203125 590.3203125 677 c 0
 590.3203125 686.612304688 593.884765625 690 600.3203125 690 c 2
 811.3203125 690 l 2
 818.674804688 690 821.3203125 685.69140625 821.3203125 677 c 0
 821.3203125 667.059570312 819.0546875 664 811.3203125 664 c 2
 780.044921875 664 l 2
 744.000976562 664 738.620117188 647.432617188 727.30078125 616.250976562 c 0
 719.680664062 595.259765625 688.276367188 496.283203125 677.5703125 465.333007812 c 0
 616.563476562 288.963867188 564.590820312 133.03515625 506.250976562 3.03125 c 0
 481.172851562 -52.8525390625 456.396484375 -103.946289062 431.96875 -149.8125 c 0
 372.701171875 -261.09765625 308.551757812 -341.6171875 257.750976562 -385.1484375 c 0
 203.651367188 -431.505859375 149.654296875 -445 114.116210938 -445 c 0
 78.0458984375 -445 50 -422.658203125 50 -388.268554688 c 0
EndSplineSet
Substitution2: "'ss03' Style Set 3 lookup 2-1" uni0423.ss03
Substitution2: "'ss01' Style Set 1 lookup 0-1" uni0423.ss01
Colour: ff00
EndChar

StartChar: uni0424
Encoding: 196 1060 117
GlifName: uni0424
Width: 741
VWidth: 0
Flags: HW
LayerCount: 2
Fore
SplineSet
619 356 m 0
 619 468 563 570 446 570 c 2
 404 570 l 1
 404 159 l 1
 459 159 l 2
 553 159 619 262 619 356 c 0
360 570 m 1
 318 570 l 2
 207 570 132 470 132 357 c 0
 132 238 208.120117188 159 305 159 c 2
 360 159 l 1
 360 570 l 1
287 0 m 2
 280 0 277 9 277 19 c 0
 277 27 278.68359375 35.7822265625 287 38 c 2
 302 42 l 1
 329.303710938 53.9287109375 360 87 360 113 c 2
 360 120 l 1
 186 120 50 188.98828125 50 364 c 0
 50 486 138.986328125 593 292 593 c 2
 360 593 l 1
 360 597 l 2
 360 624.081054688 317.900390625 651.700195312 302 657 c 2
 287 662 l 2
 278.916015625 664.694335938 277 675 277 681 c 0
 277 686 281 700 287 700 c 2
 467 700 l 2
 475 700 477 688 477 681 c 0
 477 675 475.174804688 664.404296875 467 662 c 2
 450 657 l 2
 435.760742188 652.8125 404 627.970703125 404 597 c 2
 404 593 l 1
 469 593 l 2
 611 593 691 472 691 361 c 0
 691 184 555 120 404 120 c 1
 404 113 l 2
 404 86 427.868164062 53.8681640625 450 42 c 1
 467 38 l 2
 475.80859375 35.927734375 477 24 477 19 c 0
 477 11 474 0 467 0 c 2
 287 0 l 2
EndSplineSet
Substitution2: "'ss03' Style Set 3 lookup 2-1" uni0424.ss03
Substitution2: "'ss01' Style Set 1 lookup 0-1" uni0424.ss01
Colour: ff00
EndChar

StartChar: uni0425
Encoding: 197 1061 118
GlifName: uni0425
Width: 845
VWidth: 0
Flags: HW
LayerCount: 2
Fore
SplineSet
60 40.3037109375 m 2
 83.048828125 40.3037109375 l 2
 111.689453125 40.3037109375 129.13671875 46.6298828125 173.3203125 95.78515625 c 2
 380.388671875 331.88671875 l 1
 195.193359375 605.015625 l 2
 169.077148438 643.034179688 148.747070312 664.032226562 111.6640625 663.971679688 c 2
 71 663.971679688 l 2
 63.5126953125 664.043945312 61 670.630859375 61 682.971679688 c 0
 61 696.625 63.271484375 701.971679688 71 701.971679688 c 2
 242.876953125 701.971679688 l 1
 443.525390625 393.990234375 l 1
 606.311523438 596.975585938 l 2
 631.204101562 628.510742188 638.43359375 632.962890625 638.43359375 644.017578125 c 0
 638.43359375 650.728515625 637.09375 663.971679688 623.53515625 663.971679688 c 2
 613 663.971679688 l 2
 604.942382812 663.971679688 603 673.146484375 603 682.971679688 c 0
 603 692.64453125 607.6953125 701.971679688 613 701.971679688 c 2
 785 701.971679688 l 2
 793 701.971679688 795 690.663085938 795 682.971679688 c 0
 795 672.551757812 792.286132812 663.971679688 785 663.971679688 c 2
 751.275390625 663.971679688 l 2
 721.87109375 660.366210938 708.045898438 662.525390625 668.241210938 617.259765625 c 2
 460.97265625 363.784179688 l 1
 669 55.3505859375 l 1
 697.859375 38.7705078125 l 1
 763 38.7705078125 l 2
 771.157226562 38.7705078125 773 26.77734375 773 20.9716796875 c 0
 773 12.46484375 770.916992188 0.3271484375 763 0.3271484375 c 2
 593.61328125 0.3271484375 l 1
 401.4921875 301.995117188 l 1
 218.034179688 82.3212890625 l 2
 203.623046875 65.06640625 197.3203125 51.6171875 197.3203125 50.66015625 c 0
 197.3203125 43.9130859375 209.940429688 39.9716796875 226 39.9716796875 c 2
 241 39.9716796875 l 2
 248.705078125 39.9716796875 251 31.2666015625 251 20.9716796875 c 0
 251 10.4248046875 250.223632812 -0 241 -0 c 2
 60 -0 l 2
 51.7236328125 -0 50 8.447265625 50 20.9716796875 c 0
 50 33.484375 52.76171875 40.1123046875 60 40.3037109375 c 2
EndSplineSet
Substitution2: "'ss03' Style Set 3 lookup 2-1" uni0425.ss03
Substitution2: "'ss01' Style Set 1 lookup 0-1" uni0425.ss01
Colour: ff00
EndChar

StartChar: uni0426
Encoding: 198 1062 119
GlifName: uni0426
Width: 787
VWidth: 0
Flags: MW
HStem: -266.268 47.7676<759.789 802.432> 0 40<219 505 527 665> 510 190<127 219 505 597> 666 34<60.0022 127 219 286.998 438.002 505 597 664.998>
VStem: 127 92<40 666> 505 92<40 666>
LayerCount: 2
Back
SplineSet
569 0 m 5
 569 40 l 5
 821 40 l 6
 826.032258065 40 830 36.5 830 33 c 4
 830 25 824.954221941 19.2250851231 815 9 c 6
 668 -142 l 5
 707 -159 l 6
 727.943646409 -168.129281768 763.336611416 -193.683540329 784 -216 c 4
 809 -243 830 -256 855 -256 c 4
 875 -256 897.286198874 -245.752982432 928 -229 c 4
 950 -217 966 -210 975 -210 c 4
 980 -210 982.735088936 -211.470177872 984 -214 c 4
 985 -216 986 -218 986 -220 c 4
 986 -234 958.178656701 -255.38133796 903 -281 c 4
 875 -294 852 -300 829 -300 c 4
 808 -300 788 -295 763 -285 c 5
 763 -285 l 5
 742 -276 708.618797695 -252.292828819 687 -234 c 4
 661 -212 646 -202 628 -202 c 4
 617 -202 604.059008063 -206.126611663 587 -214 c 4
 574 -220 564 -223 559 -223 c 4
 554 -223 552 -221 552 -218 c 4
 552 -207 576.473938381 -178.490571814 621 -135 c 4
 721 -34 l 6
 721 -34 743 -13 743 -8 c 4
 743 4.4408920985e-016 730 0 730 0 c 6
 569 0 l 5
487 690 m 5
 690 690 l 5
 694 685 697 680 697 673 c 4
 697 667 694.381630826 656 690 656 c 6
 639 656 l 6
 633 656 629 652 629 646 c 6
 629 500 l 5
 547 500 l 5
 547 646 l 6
 547 652 543 656 537 656 c 6
 487 656 l 6
 483.067929362 656 480 666.625 480 673 c 4
 480 678 482.625 685 487 690 c 5
97 690 m 5
 300 690 l 5
 304 685 307 680 307 673 c 4
 307 667 304.381630826 656 300 656 c 6
 249 656 l 6
 243 656 239 652 239 646 c 6
 239 500 l 5
 157 500 l 5
 157 646 l 6
 157 652 153 656 147 656 c 6
 97 656 l 6
 93.067929362 656 90 666.625 90 673 c 4
 90 678 92.625 685 97 690 c 5
239 500 m 5
 239 50 l 5
 239 44 243 40 249 40 c 5
 537 40 l 5
 543 40 547 44 547 50 c 5
 547 500 l 5
 629 500 l 5
 629 40 l 4
 629 10 619 -3.67381906147e-015 589 0 c 6
 197 0 l 6
 167 0 157 10 157 40 c 4
 157 500 l 5
 239 500 l 5
EndSplineSet
Fore
SplineSet
527 0 m 1xcc
 527 40 l 1
 744 40 l 2
 749.032226562 40 753 36.5 753 33 c 0
 753 25 748.26953125 18.908203125 738 9 c 2
 618.32421875 -106.454101562 l 1
 639.1015625 -109.483398438 665.529296875 -113.802734375 685.254882812 -121.686523438 c 0
 700.262695312 -127.684570312 719.336914062 -145.017578125 737.859375 -169.140625 c 0
 759.677734375 -197.5546875 769.36328125 -218.5 788 -218.5 c 0
 800 -218.5 795.795898438 -207.215820312 802.75 -201 c 0
 809.25 -195.190429688 820 -194.75 829 -194.75 c 0
 843.141601562 -195.122070312 856.842773438 -213.297851562 857 -224.75 c 0
 857 -238.75 849.8359375 -266.267578125 814.5 -266.267578125 c 0
 768.977539062 -267.466796875 701.196289062 -247.08203125 675.615234375 -228.8828125 c 0
 656.703125 -215.428710938 634.573242188 -195.94140625 622.12109375 -184.311523438 c 0
 609.55859375 -172.579101562 592.434570312 -164.686523438 574.434570312 -164.686523438 c 0
 563.434570312 -164.686523438 549.05859375 -180.126953125 532 -188 c 0
 519 -194 513 -195 508 -195 c 0
 503 -195 501 -193 501 -190 c 0
 501 -179 533.473632812 -152.490234375 578 -109 c 2
 656 -34 l 1
 656 -34 678 -13 678 -8 c 0
 678 0 665 0 665 0 c 1
 527 0 l 1xcc
445 700 m 1xdc
 658 700 l 1
 662 695 665 690 665 683 c 0
 665 677 662.381835938 666 658 666 c 2
 607 666 l 2xdc
 601 666 597 662 597 656 c 2
 597 510 l 1
 505 510 l 1xec
 505 656 l 2
 505 662 501 666 495 666 c 2
 445 666 l 2
 441.068359375 666 438 676.625 438 683 c 0
 438 688 440.625 695 445 700 c 1xdc
67 700 m 1
 280 700 l 1
 284 695 287 690 287 683 c 0
 287 677 284.381835938 666 280 666 c 2
 229 666 l 2xdc
 223 666 219 662 219 656 c 2
 219 510 l 1
 127 510 l 1xec
 127 656 l 2
 127 662 123 666 117 666 c 2
 67 666 l 2
 63.068359375 666 60 676.625 60 683 c 0
 60 688 62.625 695 67 700 c 1
219 510 m 1xec
 219 50 l 2
 219 44 223 40 229 40 c 2
 495 40 l 2
 501 40 505 44 505 50 c 2
 505 510 l 1
 597 510 l 1
 597 40 l 2
 597 10 581.999023438 -0.1416015625 552 0 c 2
 127 0 l 1
 127 510 l 1
 219 510 l 1xec
EndSplineSet
Substitution2: "'ss03' Style Set 3 lookup 2-1" uni0426.ss03
Substitution2: "'ss01' Style Set 1 lookup 0-1" uni0426.ss01
Colour: ff00
EndChar

StartChar: uni0427
Encoding: 199 1063 120
GlifName: uni0427
Width: 656
VWidth: 0
Flags: HW
HStem: 0 38<372.002 440 532 599.998> 298 34<273.843 377.169> 377 20G<434.066 475> 662 38<80.0022 147 239 306.998 373.002 440 532 599.998>
VStem: 147 92<360.524 662> 440 92<38 340 397 662>
LayerCount: 2
Back
SplineSet
380 700 m 5
 593 700 l 5
 597 694.412109375 600 688.823242188 600 681 c 4
 600 674.293945312 597.381835938 662 593 662 c 6
 542 662 l 6
 536 662 532 658 532 652 c 6
 532 48 l 6
 532 42 536 38 542 38 c 6
 593 38 l 6
 597.381835938 38 600 25.7060546875 600 19 c 4
 600 11.1767578125 597 5.587890625 593 0 c 5
 379 0 l 5
 374.625 5.587890625 372 13.412109375 372 19 c 4
 372 26.125 375.126953125 38 379 38 c 6
 430 38 l 6
 436 38 440 42 440 48 c 6
 440 652 l 6
 440 658 436 662 430 662 c 6
 380 662 l 6
 376.068359375 662 373 673.875 373 681 c 4
 373 686.587890625 375.625 694.412109375 380 700 c 5
87 700 m 5
 300 700 l 5
 304 694.411764706 307 688.823529412 307 681 c 4
 307 674.294117647 304.381630826 662 300 662 c 6
 249 662 l 6
 243 662 239 658 239 652 c 6
 239 500 l 5
 147 500 l 5
 147 652 l 6
 147 658 143 662 137 662 c 6
 87 662 l 6
 83.067929362 662 80 673.875 80 681 c 4
 80 686.588235294 82.625 694.411764706 87 700 c 5
239 500 m 5
 239 449 l 6
 239 409 241.378378378 332 327 332 c 4
 363.235129821 332 428.132556607 361.154235085 440 397 c 5
 475 397 l 5
 475 357 l 5
 440 340 l 5
 413.240054251 328 342.42316074 298 306 298 c 4
 188.701299892 298 147 363.05411316 147 437 c 6
 147 500 l 5
 239 500 l 5
EndSplineSet
Fore
SplineSet
346 700 m 1
 559 700 l 1
 563 694.412109375 566 688.823242188 566 681 c 0
 566 674.293945312 563.381835938 662 559 662 c 2
 508 662 l 2
 502 662 498 658 498 652 c 2
 498 48 l 2
 498 42 502 38 508 38 c 2
 559 38 l 2
 563.381835938 38 566 25.7060546875 566 19 c 0
 566 11.1767578125 563 5.587890625 559 0 c 1
 345 0 l 1
 340.625 5.587890625 338 13.412109375 338 19 c 0
 338 26.125 341.126953125 38 345 38 c 2
 396 38 l 2
 402 38 406 42 406 48 c 2
 406 652 l 2
 406 658 402 662 396 662 c 2
 346 662 l 2
 342.068359375 662 339 673.875 339 681 c 0
 339 686.587890625 341.625 694.412109375 346 700 c 1
67 700 m 1
 209.022460938 700 l 2
 214.791015625 700 218.999023438 697.969726562 218.999023438 690 c 2
 219 500 l 1
 127 500 l 1
 127 652 l 2
 127 658 123 662 117 662 c 2
 67 662 l 2
 63.068359375 662 60 673.875 60 681 c 0
 60 686.587890625 62.625 694.412109375 67 700 c 1
219 500 m 1
 219 430.5 l 2
 219 390.5 224.877929688 350 302 350 c 0
 338.235351562 350 394.1328125 379.154296875 406 415 c 1
 441 415 l 1
 441 378 l 1
 406 378 l 1
 385.240234375 355 339.422851562 320 286 320 c 0
 168.701171875 320 127 363.053710938 127 437 c 2
 127 500 l 1
 219 500 l 1
EndSplineSet
Substitution2: "'ss03' Style Set 3 lookup 2-1" uni0427.ss03
Substitution2: "'ss01' Style Set 1 lookup 0-1" uni0427.ss01
Colour: ff00
EndChar

StartChar: uni0428
Encoding: 200 1064 121
GlifName: uni0428
Width: 1099
VWidth: 0
Flags: W
HStem: 0 38<249 503 595 849> 510 190<157 249 503 595 849 941> 662 38<90.0022 157 249 316.998 436.002 503 595 662.998 782.002 849 941 1009>
VStem: 157 92<38 662> 503 92<38 662> 849 92<38 662>
CounterMasks: 1 1c
LayerCount: 2
Fore
SplineSet
789 700 m 1xbc
 1002 700 l 1
 1006 694.411764706 1009 688.823529412 1009 681 c 0
 1009 674.294117647 1006.38163083 662 1002 662 c 2
 951 662 l 2xbc
 945 662 941 658 941 652 c 2
 941 510 l 1
 849 510 l 1xdc
 849 652 l 2
 849 658 845 662 839 662 c 2
 789 662 l 2
 785.067929362 662 782 673.875 782 681 c 0
 782 686.588235294 784.625 694.411764706 789 700 c 1xbc
443 700 m 1
 656 700 l 1
 660 694.411764706 663 688.823529412 663 681 c 0
 663 674.294117647 660.381630826 662 656 662 c 2
 605 662 l 2xbc
 599 662 595 658 595 652 c 2
 595 510 l 1
 503 510 l 1xdc
 503 652 l 2
 503 658 499 662 493 662 c 2
 443 662 l 2
 439.067929362 662 436 673.875 436 681 c 0
 436 686.588235294 438.625 694.411764706 443 700 c 1
97 700 m 1
 310 700 l 1
 314 694.411764706 317 688.823529412 317 681 c 0
 317 674.294117647 314.381630826 662 310 662 c 2
 259 662 l 2xbc
 253 662 249 658 249 652 c 2
 249 510 l 1
 157 510 l 1xdc
 157 652 l 2
 157 658 153 662 147 662 c 2
 97 662 l 2
 93.067929362 662 90 673.875 90 681 c 0
 90 686.588235294 92.625 694.411764706 97 700 c 1
249 510 m 1xdc
 249 48 l 1
 249 42 253 38 259 38 c 1
 493 38 l 1
 499 38 503 42 503 48 c 1
 503 510 l 1
 595 510 l 1
 595 48 l 1
 595 42 599 38 605 38 c 1
 839 38 l 1
 845 38 849 42 849 48 c 1
 849 510 l 1
 941 510 l 1
 941 0 l 1
 157 0 l 1
 157 510 l 1
 249 510 l 1xdc
EndSplineSet
Substitution2: "'ss03' Style Set 3 lookup 2-1" uni0428.ss03
Substitution2: "'ss01' Style Set 1 lookup 0-1" uni0428.ss01
Colour: ff00
EndChar

StartChar: uni0429
Encoding: 201 1065 122
GlifName: uni0429
Width: 1096
VWidth: 0
Flags: HW
LayerCount: 2
Back
SplineSet
789 700 m 5xbc
 1002 700 l 5
 1006 694.412109375 1009 688.823242188 1009 681 c 4
 1009 674.293945312 1006.38183594 662 1002 662 c 6
 951 662 l 6xbc
 945 662 941 658 941 652 c 6
 941 510 l 5
 849 510 l 5xdc
 849 652 l 6
 849 658 845 662 839 662 c 6
 789 662 l 6
 785.068359375 662 782 673.875 782 681 c 4
 782 686.587890625 784.625 694.412109375 789 700 c 5xbc
443 700 m 5
 656 700 l 5
 660 694.412109375 663 688.823242188 663 681 c 4
 663 674.293945312 660.381835938 662 656 662 c 6
 605 662 l 6xbc
 599 662 595 658 595 652 c 6
 595 510 l 5
 503 510 l 5xdc
 503 652 l 6
 503 658 499 662 493 662 c 6
 443 662 l 6
 439.068359375 662 436 673.875 436 681 c 4
 436 686.587890625 438.625 694.412109375 443 700 c 5
97 700 m 5
 310 700 l 5
 314 694.412109375 317 688.823242188 317 681 c 4
 317 674.293945312 314.381835938 662 310 662 c 6
 259 662 l 6xbc
 253 662 249 658 249 652 c 6
 249 510 l 5
 157 510 l 5xdc
 157 652 l 6
 157 658 153 662 147 662 c 6
 97 662 l 6
 93.068359375 662 90 673.875 90 681 c 4
 90 686.587890625 92.625 694.412109375 97 700 c 5
249 510 m 5xdc
 249 48 l 5
 249 42 253 38 259 38 c 5
 493 38 l 5
 499 38 503 42 503 48 c 5
 503 510 l 5
 595 510 l 5
 595 48 l 5
 595 42 599 38 605 38 c 5
 839 38 l 5
 845 38 849 42 849 48 c 5
 849 510 l 5
 941 510 l 5
 941 0 l 5
 157 0 l 5
 157 510 l 5
 249 510 l 5xdc
850 0 m 5
 850 50 l 5
 1105 50 l 4
 1124.09090909 48 1133 37 1133 23 c 4
 1133 14.2455997459 1130.23597649 2.68234106641 1120.68164062 -14 c 6
 998.119233596 -228 l 6
 989.029357848 -243.871370815 976.114123382 -245 962 -245 c 4
 944 -245 930 -239 930 -232 c 4
 930 -225 957.325029126 -170.978322427 990 -112 c 4
 1040 -13 l 4
 1040 -5.64646464646 1036.75 -8.2660928883e-016 1030 0 c 6
 850 0 l 5
EndSplineSet
Fore
SplineSet
789 700 m 1
 1002 700 l 1
 1006 694.412109375 1009 688.823242188 1009 681 c 0
 1009 674.293945312 1006.38183594 662 1002 662 c 2
 951 662 l 2
 945 662 941 658 941 652 c 2
 941 510 l 1
 849 510 l 1
 849 652 l 2
 849 658 845 662 839 662 c 2
 789 662 l 2
 785.068359375 662 782 673.875 782 681 c 0
 782 686.587890625 784.625 694.412109375 789 700 c 1
443 700 m 1
 656 700 l 1
 660 694.412109375 663 688.823242188 663 681 c 0
 663 674.293945312 660.381835938 662 656 662 c 2
 605 662 l 2
 599 662 595 658 595 652 c 2
 595 510 l 1
 503 510 l 1
 503 652 l 2
 503 658 499 662 493 662 c 2
 443 662 l 2
 439.068359375 662 436 673.875 436 681 c 0
 436 686.587890625 438.625 694.412109375 443 700 c 1
97 700 m 1
 310 700 l 1
 314 694.412109375 317 688.823242188 317 681 c 0
 317 674.293945312 314.381835938 662 310 662 c 2
 259 662 l 2
 253 662 249 658 249 652 c 2
 249 510 l 1
 157 510 l 1
 157 652 l 2
 157 658 153 662 147 662 c 2
 97 662 l 2
 93.068359375 662 90 673.875 90 681 c 0
 90 686.587890625 92.625 694.412109375 97 700 c 1
249 510 m 1
 249 48 l 2
 249 42 253 38 259 38 c 2
 493 38 l 2
 499 38 503 42 503 48 c 2
 503 510 l 1
 595 510 l 1
 595 48 l 2
 595 42 599 38 605 38 c 2
 839 38 l 2
 845 38 849 42 849 48 c 2
 849 510 l 1
 941 510 l 1
 941 0 l 1
 157 0 l 1
 157 510 l 1
 249 510 l 1
889.44140625 38 m 1
 1113.28027344 38 l 2
 1124.29101562 36.8466796875 1126.44140625 35.232421875 1126.44140625 21.232421875 c 0
 1126.44140625 15.4775390625 1085.17773438 -57.318359375 1075.62304688 -74 c 2
 989.560546875 -228 l 2
 980.637695312 -243.966796875 969.555664062 -245 955.44140625 -245 c 0
 937.44140625 -245 929.44140625 -239 929.44140625 -232 c 0
 929.44140625 -225 956.766601562 -170.978515625 989.44140625 -112 c 2
 1039.44140625 -13 l 2
 1039.44140625 -5.646484375 1036.19140625 0 1029.44140625 0 c 2
 889.44140625 0 l 1
 889.44140625 38 l 1
EndSplineSet
Substitution2: "'ss03' Style Set 3 lookup 2-1" uni0429.ss03
Substitution2: "'ss01' Style Set 1 lookup 0-1" uni0429.ss01
Colour: ff00
EndChar

StartChar: uni042A
Encoding: 202 1066 123
GlifName: uni042A_
Width: 854
VWidth: 0
Flags: HW
HStem: 0 34<160.002 228 320 519.477> 662 36<404.072 555.102>
VStem: 29 12<836 853.302> 228 92<34 603.027 623 974.879> 686 98<229.414 505.776>
LayerCount: 2
Back
SplineSet
379 34 m 6
 554 34 671 162 671 324 c 4
 671 509 569 634 416 634 c 4
 363 634 289 600 265 561 c 5
 265 44 l 6
 265 38 269 34 275 34 c 6
 379 34 l 6
265 917 m 6
 265 611 l 5
 302 640 367 676 471 676 c 4
 662 676 769 537 769 336 c 4
 769 165 660 0 477 0 c 6
 122 0 l 5
 118 5 115 12 115 17 c 4
 115 23 118 34 122 34 c 6
 173 34 l 6
 179 34 183 38 183 44 c 6
 183 873 l 5
 176 879 165 881 156 881 c 4
 141 881 122 876 99 864 c 4
 48 838 12 802 12 777 c 4
 12 766 8 760 2 760 c 4
 -6 760 -19 770 -19 787 c 4
 -19 789 -20 791 -20 793 c 4
 -20 851.37890625 96 947 203 947 c 6
 236 947 l 6
 250 947 265 944.875 265 930 c 6
 265 917 l 6
EndSplineSet
Fore
SplineSet
434 34 m 2
 609 34 686 184 686 346 c 0
 686 531 631 662 466 662 c 0
 398 662 320 606 320 520 c 2
 320 44 l 2
 320 38 324 34 330 34 c 2
 434 34 l 2
304 1008 m 2
 315.711072664 969.520761246 320 929 320 889 c 2
 320 623 l 1
 351 655 405 698 500 698 c 0
 691 698 784 559 784 358 c 0
 784 187 684 -3.08600801163e-014 432 0 c 2
 167 0 l 1
 163 5 160 12 160 17 c 0
 160 23 163 34 167 34 c 2
 218 34 l 2
 224 34 228 38 228 44 c 2
 228 876 l 1
 228 915 l 2
 228 983 201.97166718 978.136785824 192 976 c 0
 178 973 145.20344802 965.60172401 122 954 c 0
 90 938 64.3178772204 919.855400644 51 891 c 0
 45 878 41 866 41 836 c 1
 29 836 l 1
 26 845 19.8279345087 862.930163728 13 880 c 0
 5 900 12.2938108457 902.778989913 19 912 c 0
 35 934 52.0251685154 961.94848672 93 982 c 0
 140 1005 198.961752238 1025.13192921 216 1030 c 0
 223 1032 258 1040 276 1040 c 0
 288 1040 294.517301038 1039.15743945 297 1031 c 2
 304 1008 l 2
EndSplineSet
Substitution2: "'ss03' Style Set 3 lookup 2-1" uni042A.ss03
Substitution2: "'ss01' Style Set 1 lookup 0-1" uni042A.ss01
Colour: ff00
EndChar

StartChar: uni042B
Encoding: 203 1067 124
GlifName: uni042B_
Width: 1215
VWidth: 0
Flags: W
HStem: 0 34<90.0022 200 292 502.292 857.121 945 1037 1124.92> 662 38<400.93 542.764 862.002 945 1037 1121> 886 34<103.002 200 292 389.998>
VStem: 200 92<34 571.065 609 886> 673 104<202.76 497.056> 945 92<38 662>
LayerCount: 2
Fore
SplineSet
869 700 m 1
 1114 700 l 1
 1118 694.412109375 1121 688.823242188 1121 681 c 0
 1121 674.293945312 1118.38183594 662 1114 662 c 2
 1047 662 l 2
 1041 662 1037 658 1037 652 c 2
 1037 48 l 2
 1037 42 1041 38 1047 38 c 2
 1118 38 l 2
 1122.38183594 38 1125 25.7060546875 1125 19 c 0
 1125 11.1767578125 1122 5.587890625 1118 0 c 1
 864 0 l 1
 859.625 5.587890625 857 13.412109375 857 19 c 0
 857 26.125 860.126953125 38 864 38 c 2
 935 38 l 2
 941 38 945 42 945 48 c 2
 945 652 l 2
 945 658 941 662 935 662 c 2
 869 662 l 2
 865.068359375 662 862 673.875 862 681 c 0
 862 686.587890625 864.625 694.412109375 869 700 c 1
406 34 m 2
 581 34 673 162 673 324 c 0
 673 509 622 659 469 659 c 0
 393 659 292 591 292 502 c 2
 292 44 l 2
 292 38 296 34 302 34 c 2
 406 34 l 2
110 920 m 1
 383 920 l 1
 387 915 390 910 390 903 c 0
 390 897 387 886 383 886 c 2
 302 886 l 2
 296 886 292 882 292 876 c 2
 292 609 l 1
 318 641 382 701 498 701 c 0
 689 701 777 540 777 339 c 0
 777 139 657 0 463 0 c 2
 97 0 l 1
 93 5 90 12 90 17 c 0
 90 23 93 34 97 34 c 2
 190 34 l 2
 196 34 200 38 200 44 c 2
 200 876 l 2
 200 882 196 886 190 886 c 2
 110 886 l 2
 106 886 103 897 103 903 c 0
 103 908 106 915 110 920 c 1
EndSplineSet
Substitution2: "'ss03' Style Set 3 lookup 2-1" uni042B.ss03
Substitution2: "'ss01' Style Set 1 lookup 0-1" uni042B.ss01
Colour: ff00
EndChar

StartChar: uni042C
Encoding: 204 1068 125
GlifName: uni042C_
Width: 847
VWidth: 0
Flags: W
HStem: 0 34<90.0022 200 292 502.292> 659 42<391.5 552.156> 886 34<103.002 200 292 389.998>
VStem: 200 92<34 571.065 609 886> 673 104<202.76 497.056>
LayerCount: 2
Back
SplineSet
354 34 m 6
 528.703395835 34 646 161.619200557 646 324 c 4
 646 509 543.514664856 634.021484375 390.706054688 634.021484375 c 4
 338.08286488 634.021484375 263.655025464 600.425132941 240 561 c 5
 240 44 l 6
 240 38 244 34 250 34 c 4
 354 34 l 6
98 920 m 5
 301 920 l 5
 305 915 308 910 308 903 c 4
 308 897 305.381630826 886 301 886 c 6
 250 886 l 6
 244 886 240 882 240 876 c 6
 240 611.216796875 l 5
 277 639.999734573 342.167228453 676 446 676 c 4
 636.617994999 676 744 537.175452715 744 336 c 4
 744 165.283115356 634.540812449 0 452 0 c 4
 97 0 l 5
 92.625 5 90 12 90 17 c 4
 90 23.375 93.1273320616 34 97 34 c 6
 148 34 l 6
 154 34 158 38 158 44 c 6
 158 876 l 6
 158 882 154 886 148 886 c 6
 98 886 l 6
 94.067929362 886 91 896.625 91 903 c 4
 91 908 93.625 915 98 920 c 5
EndSplineSet
Fore
SplineSet
406 34 m 1
 581 34 673 162 673 324 c 0
 673 509 622 659 469 659 c 0
 393 659 292 591 292 502 c 2
 292 44 l 2
 292 38 296 34 302 34 c 2
 406 34 l 1
110 920 m 1
 383 920 l 1
 387 915 390 910 390 903 c 0
 390 897 387 886 383 886 c 2
 302 886 l 2
 296 886 292 882 292 876 c 2
 292 609 l 1
 318 641 382 701 498 701 c 0
 689 701 777 540 777 339 c 0
 777 139 657 0 463 0 c 2
 97 0 l 1
 93 5 90 12 90 17 c 0
 90 23 93 34 97 34 c 2
 190 34 l 2
 196 34 200 38 200 44 c 2
 200 876 l 2
 200 882 196 886 190 886 c 2
 110 886 l 2
 106 886 103 897 103 903 c 0
 103 908 106 915 110 920 c 1
EndSplineSet
Substitution2: "'ss03' Style Set 3 lookup 2-1" uni042C.ss03
Substitution2: "'ss01' Style Set 1 lookup 0-1" uni042C.ss01
Colour: ff00
EndChar

StartChar: uni042D
Encoding: 205 1069 126
GlifName: uni042D_
Width: 762
VWidth: 0
Flags: HW
LayerCount: 2
Back
SplineSet
100.368164062 36.8251953125 m 6
 100.096679688 69.4541015625 95.673828125 117.883789062 90.5380859375 144.432617188 c 4
 87.4825910687 160.2322529 86.0155429102 172.413423435 86.0155429102 180.974622052 c 4
 86.0155429102 191.095707931 88.0658997205 196.157495631 91.9660317285 196.157495631 c 4
 99.1552035482 196.157495631 112.629560361 178.958501867 131.1328125 144.544921875 c 4
 157.048828125 96.3984375 174.6640625 79.3994140625 225.182617188 53.7333984375 c 4
 268.268894527 31.8464555231 311.138427802 21.6373080974 351.6859672 21.6373080974 c 4
 489.196965873 21.6373080974 600.002082076 139.055486533 601.986328125 316.607421875 c 4
 602.012584069 318.95769747 602.025444042 321.304423199 602.025444042 323.641593325 c 4
 602.025444042 361.552369299 598.641799317 396.948927965 594.162109375 404.19921875 c 4
 588.514831938 413.332909463 568.983833267 417.747875916 546.766168668 417.747875916 c 4
 521.450394189 417.747875916 492.646436467 412.015785507 476.918945312 401.000976562 c 4
 463.420898438 391.541015625 438.524414062 358.357421875 421.59375 327.25390625 c 4
 382.107307362 254.695273719 333.805962911 223.620203335 259.703001266 223.620203335 c 4
 257.313396172 223.620203335 254.896960622 223.652517524 252.453125 223.716796875 c 4
 187.165039062 225.434570312 95.544921875 261.961914062 84.533203125 290.658203125 c 4
 81.9937946728 297.275293349 80.62158013 302.376901312 80.62158013 305.980195785 c 4
 80.62158013 310.343245903 82.633464005 312.509531117 87.0212045373 312.509531117 c 4
 94.3470280669 312.509531117 108.295798371 306.470786472 130.561523438 294.53515625 c 4
 158.397298963 279.614384534 190.251609891 271.964948843 218.644550323 271.964948843 c 4
 241.524355016 271.964948843 262.156492701 276.932167535 276.626953125 287.064453125 c 4
 289.040039062 295.766601562 316.524414062 328.271484375 337.704101562 359.306640625 c 4
 387.751384299 432.646996825 423.508793513 453.602858071 502.019973819 453.602858071 c 4
 504.208523279 453.602858071 506.430294615 453.586574291 508.686523438 453.5546875 c 4
 511.797318108 453.506937153 514.860268035 453.483766117 517.861205913 453.483766117 c 4
 550.334120409 453.483766117 575.545898437 456.196917158 575.545898438 459.838867188 c 4
 575.545898438 488.456054688 510.68359375 568.112304688 461.88671875 599.430664062 c 4
 421.4892337 625.354134276 376.476721461 638.479494144 332.116008433 638.479494144 c 4
 297.083885899 638.479494144 262.458253207 630.293958842 230.833007812 613.76171875 c 4
 169.581054688 581.731445312 150.171875 557.737304688 134.224609375 494.288085938 c 4
 127.214597601 466.393276431 116.603341028 434.975077014 111.669926933 434.975077014 c 4
 107.014914557 434.975077014 101.079969053 478.562746064 98.2724609375 534.1953125 c 4
 95.373046875 591.610351562 90.95703125 646.209960938 88.4541015625 655.534179688 c 4
 85.904296875 665.0390625 91.287109375 672.487304688 100.705078125 672.487304688 c 4
 109.944335938 672.487304688 119.337890625 662.315429688 121.581054688 649.8828125 c 4
 125.597954969 627.610191288 131.697540822 616.947085453 146.797435919 616.947085453 c 4
 159.274000011 616.947085453 177.895248409 624.226992988 206.563476562 638.252929688 c 4
 258.865009642 663.843006419 301.70050781 675.857927567 346.774418905 675.857927567 c 4
 369.804427602 675.857927567 393.418792856 672.721331155 419.178710938 666.65625 c 4
 542.512695312 637.620117188 610.1015625 581.698242188 664.21875 463.908203125 c 4
 687.156685225 413.984663224 697.75442126 362.052418816 697.75442126 311.528527653 c 4
 697.75442126 145.966214998 583.954362946 -4.4729920388 417.66796875 -19.5498046875 c 4
 407.542100833 -20.4683779408 396.560325089 -20.9008508815 385.052937486 -20.9008508815 c 4
 311.608502353 -20.9008508815 216.753436475 -3.28420412575 186.359375 18.0068359375 c 4
 172.190990375 27.9302571479 160.955796733 32.9489076712 152.108955716 32.9489076712 c 4
 140.259503837 32.9489076712 132.694733271 23.9454975823 128.10546875 5.6650390625 c 4
 123.35415821 -13.2687721431 118.130141464 -22.1331860372 113.508573266 -22.1331860372 c 4
 106.378029931 -22.1331860372 100.681609848 -1.03152994194 100.368164062 36.74609375 c 6
 100.368164062 36.8251953125 l 6
EndSplineSet
Fore
SplineSet
87 -3 m 0
 89 25 92 115 80 155 c 0
 77 171 76 191 76 200 c 0
 76 205 79 209 85 209 c 0
 89 209 95 209 97 204 c 0
 102 194 112 165 121 151 c 0
 145 113 167 88 220 61 c 0
 265 37.303030303 310 27 352 27 c 0
 495 27 610 148.395424837 612 334 c 0
 612 336 612 340 612 342 c 0
 612 381 608 450 603 458 c 1
 528 458 l 2
 471 458 445 400 425 345 c 0
 402 282 354 238 256 238 c 0
 196 238 123 266 86 297 c 0
 81 301 75 307 73 312 c 0
 70 319 70 319 70 323 c 0
 70 328 76 334 81 334 c 0
 98 334 107 317 120 309 c 0
 147 292 184 288 214 288 c 0
 282 288 315 327 332 365 c 0
 369 454 418 478 496 475 c 2
 597 475 l 1
 592 505 506 669 332 669 c 0
 296 669 259 660 226 643 c 0
 162 610 132 574 115 508 c 0
 113 499 112 480 112 471 c 0
 112 462 107 457 95 457 c 0
 87 457 80 460 80 470 c 0
 80 487 89 537 88 561 c 0
 85 621 80 688 80 698 c 0
 80 705 85 708 95 708 c 0
 105 708 111 706 113 700 c 0
 113 676 122 637 129 624 c 1
 191 669 251 706 347 708 c 0
 551 708 710 552 712 329 c 0
 712 132.433526012 552 -18 387 -18 c 0
 311 -18 217 10.6511627907 180 26 c 0
 159 35 143 46 126 56 c 1
 124 51 123 40 122 30 c 0
 121 22 123 -4 123 -9 c 0
 123 -17 109 -18 104 -18 c 0
 93 -18 87 -14 87 -3 c 0
EndSplineSet
Substitution2: "'ss03' Style Set 3 lookup 2-1" uni042D.ss03
Substitution2: "'ss01' Style Set 1 lookup 0-1" uni042D.ss01
Colour: ff00
EndChar

StartChar: uni042E
Encoding: 206 1070 127
GlifName: uni042E_
Width: 1185
VWidth: 0
Flags: HMW
HStem: -18 36<585.263 756.604> 0 34<90.0023 158 240 307.998> 324 43<206 368> 656 34<91.0022 158 240 307.998> 672 36<578.605 748.881>
VStem: 158 82<34 324 367 656> 328 40<324 367> 918.999 86.001<209.171 469.042>
LayerCount: 2
Back
SplineSet
908.999023438 321 m 4xaf
 908.999023438 518 841.386159854 672 648 672 c 4
 530.119525916 672 423.999023438 520.309570312 423.999023438 367 c 4
 423.999023438 152.903320312 529.535331635 18 667 18 c 4
 828.266835163 18 908.999023438 164.452148438 908.999023438 321 c 4xaf
328 345 m 4
 328 534.763671875 452.372358656 708 667 708 c 4
 849.831980738 708 1005 555.1015625 1005 340 c 4
 1005 147.133789062 876.513626187 -18 673 -18 c 4
 480.079315604 -18 328 155.415039062 328 345 c 4
88 690 m 5x77
 301 690 l 5
 305 685 308 680 308 673 c 4
 308 667 305.381630826 656 301 656 c 6
 250 656 l 6
 244 656 240 652 240 646 c 6
 240 44 l 6
 240 38 244 34 250 34 c 6
 301 34 l 6
 305.381630825 34 308 23 308 17 c 4
 308 10 305 5 301 0 c 5
 87 0 l 5
 82.625 5 80 12 80 17 c 4
 80 23.375 83.1273320616 34 87 34 c 6
 138 34 l 6
 144 34 148 38 148 44 c 6
 148 646 l 6
 148 652 144 656 138 656 c 6
 88 656 l 6
 84.067929362 656 81 666.625 81 673 c 4
 81 678 83.625 685 88 690 c 5x77
206 367 m 5
 368 367 l 5
 368 324 l 5
 206 324 l 5
 206 367 l 5
EndSplineSet
Fore
SplineSet
1018.99902344 321 m 0xaf
 1018.99902344 518 939.385742188 672 746 672 c 0
 607.120117188 672 503.999023438 520.309570312 503.999023438 367 c 0
 503.999023438 176.903320312 630.53515625 18 747 18 c 0
 938.266601562 18 1018.99902344 154.452148438 1018.99902344 321 c 0xaf
408 345 m 0
 408 534.763671875 524.372070312 708 765 708 c 0
 977.83203125 708 1115 571.1015625 1115 340 c 0
 1115 147.133789062 990.513671875 -18 753 -18 c 0
 560.079101562 -18 408 155.415039062 408 345 c 0
98 690 m 1x77
 311 690 l 1
 315 685 318 680 318 673 c 0
 318 667 315.381835938 656 311 656 c 2
 260 656 l 2
 254 656 250 652 250 646 c 2
 250 44 l 2
 250 38 254 34 260 34 c 2
 311 34 l 2
 315.381835938 34 318 23 318 17 c 0
 318 10 315 5 311 0 c 1
 97 0 l 1
 92.625 5 90 12 90 17 c 0
 90 23.375 93.126953125 34 97 34 c 2
 148 34 l 2
 154 34 158 38 158 44 c 2
 158 646 l 2
 158 652 154 656 148 656 c 2
 98 656 l 2
 94.068359375 656 91 666.625 91 673 c 0
 91 678 93.625 685 98 690 c 1x77
216 367 m 5
 448 367 l 5
 448 324 l 5
 216 324 l 5
 216 367 l 5
EndSplineSet
Substitution2: "'ss03' Style Set 3 lookup 2-1" uni042E.ss03
Substitution2: "'ss01' Style Set 1 lookup 0-1" uni042E.ss01
Colour: ff00
EndChar

StartChar: uni042F
Encoding: 207 1071 128
GlifName: uni042F_
Width: 763
VWidth: 0
Flags: W
HStem: 0 34<60.0938 151.593 443.002 512 604 672.998> 331 29<412.038 512> 664 36<385.773 512 604 672.998>
VStem: 231 87<437.653 610.041> 512 92<34 331 360 664>
LayerCount: 2
Back
SplineSet
90 -9 m 4
 74 -7 66 -3 66 2 c 4
 66 11 92 23 132 27 c 4
 207 35 234 63 267 171 c 4
 292 254 338 293 388 316 c 4
 395 319 404 324 414 331 c 5
 403 335 398 337 376 348 c 4
 316 378 272 423 272 493 c 4
 272 619 356 690 519 690 c 6
 693 690 l 5
 697 685 700 680 700 673 c 4
 700 667 697 656 693 656 c 6
 642 656 l 6
 636 656 632 652 632 646 c 6
 632 44 l 6
 632 38 636 34 642 34 c 6
 693 34 l 6
 697 34 700 23 700 17 c 4
 700 10 697 5 693 0 c 5
 489 0 l 5
 485 5 482 12 482 17 c 4
 482 23 485 34 489 34 c 6
 540 34 l 6
 546 34 550 38 550 44 c 4
 550 302 l 4
 550 315 536 321 520 321 c 4
 497 321 461 311 437 295 c 4
 407 275 393 253 374 196 c 4
 339 92 315 52 272 25 c 4
 240 5 165 -11 114 -11 c 4
 105 -11 97 -10 90 -9 c 4
509 656 m 6
 472 656 414 639 389 610 c 4
 366 584 354 541 354 498 c 4
 354 460 366 421 389 397 c 4
 420 365 440 355 509 355 c 6
 550 355 l 5
 550 646 l 6
 550 652 546 656 540 656 c 6
 509 656 l 6
EndSplineSet
Fore
SplineSet
66 0 m 2
 60 0 60 10 60 15 c 0
 60 20 62 30 66 31 c 0
 80 35 110 37 131 42 c 0
 164 50 195 64 228 173 c 0
 253 257 282 301 333 324 c 0
 340 327 361 332 379 335 c 1
 379 339 l 1
 305 367 231 424 231 519 c 0
 231 647 307 700 454 700 c 2
 666 700 l 1
 670 695 673 689 673 682 c 0
 673 676 670 664 666 664 c 2
 614 664 l 2
 608 664 604 660 604 654 c 2
 604 45 l 2
 604 39 608 34 614 34 c 2
 666 34 l 2
 670 34 673 23 673 17 c 0
 673 10 670 5 666 0 c 1
 450 0 l 1
 446 5 443 12 443 17 c 0
 443 23 446 34 450 34 c 2
 502 34 l 2
 508 34 512 39 512 45 c 2
 512 320 l 2
 512 327 509 331 501 331 c 2
 466 331 l 2
 440 331 413 323 396 312 c 0
 366 292 336 242 332 199 c 0
 321 72 232 0 121 0 c 2
 66 0 l 2
475 664 m 1
 385 659 318 635 318 524 c 0
 318 415 400 361 475 360 c 2
 512 360 l 1
 512 654 l 2
 512 660 508 664 502 664 c 2
 475 664 l 1
EndSplineSet
Substitution2: "'ss03' Style Set 3 lookup 2-1" uni042F.ss03
Substitution2: "'ss01' Style Set 1 lookup 0-1" uni042F.ss01
Colour: ff00
EndChar

StartChar: uni0430
Encoding: 208 1072 129
GlifName: uni0430
Width: 427
VWidth: 0
Flags: HW
HStem: -11 52<279.485 346.83> -10 31<139.41 209.364> 165 18<149.651 220.896> 358 42<121.366 217.184>
VStem: 60 60<34.7904 150.697> 78 39<271.154 351.876> 235 70<41.5072 160.131 169 341.366>
LayerCount: 2
Back
SplineSet
235 52 m 1x7a
 235 152 l 1
 218 160 198 165 180 165 c 0
 153 165 120 145.923076923 120 103 c 0
 120 34.6666666667 151 21 179 21 c 0
 211 21 224 37 235 52 c 1x7a
60 89 m 0
 60 165.095238095 122 183 168 183 c 0
 192 183 216 177 235 169 c 1
 235 266 l 2
 235 331 214 358 168 358 c 0
 138 358 117 348 117 317 c 0
 117 306 120 289 121 287 c 0
 123 284 126 276 126 272 c 0
 126 267 122 264 117 264 c 0
 99 264 78 278 78 310 c 0
 78 336 92 362 109 377 c 0
 121 388 148 400 178 400 c 0
 259.165413534 400 305 366 305 282 c 2
 305 61 l 2
 305 44 316 41 323 41 c 0
 334 41 354 56 361 63 c 0
 365.149807296 67.1500760874 370.705402369 69.982421875 376 69.982421875 c 3
 379.636463685 69.982421875 383.149807298 68.8505165699 386 66 c 0
 387 65 388 64 388 62 c 0
 388 46 335 -11 300 -11 c 0xb6
 258.970588235 -11 246.205882353 14 238 32 c 1
 227 18 202 -10 157 -10 c 0
 93 -10 60 24.4831460674 60 89 c 0
EndSplineSet
Fore
SplineSet
238 56 m 1
 238 130 l 1
 221 141 196 147 178 147 c 0
 151 147 117 138 117 95 c 0
 117 39 154 25 182 25 c 0
 214 25 227 41 238 56 c 1
57 81 m 0
 57 145 125 167 171 167 c 0
 195 167 220 157 238 147 c 1
 238 278 l 2
 238 343 205 364 167 364 c 0
 133 364 114 345 114 319 c 0
 114 308 117.759652654 289.860521019 119 288 c 0
 121 285 126 272 126 268 c 0
 126 263 122 260 117 260 c 0
 99 260 73 281 73 317 c 0
 73 379 132 406 181 406 c 0
 262 406 308 378 308 294 c 2
 308 53 l 2
 308 36 319 33 326 33 c 0
 337 33 353.712839152 43.325290702 365 53 c 0
 372 59 384 75 389 75 c 0
 393 75 396 74 399 71 c 0
 400 70 401 69 401 67 c 0
 401 51.2051282051 338 -10 303 -10 c 0
 264 -10 248 18.3829787234 241 36 c 1
 231 22 205 -10 160 -10 c 0
 96 -10 57 16 57 81 c 0
EndSplineSet
Substitution2: "'ss03' Style Set 3 lookup 2-1" uni0430.ss03
Substitution2: "'ss01' Style Set 1 lookup 0-1" uni0430.ss01
EndChar

StartChar: uni0431
Encoding: 209 1073 130
GlifName: uni0431
Width: 468
VWidth: 0
Flags: HW
LayerCount: 2
Back
SplineSet
340 181 m 0
 340 285 308 344 233 344 c 0
 158 344 130 263 130 179 c 0
 130 90.2662721893 166 16 244 16 c 3
 323 16 340 90.298245614 340 181 c 0
50 218 m 0
 50 297 78.2959218708 371.509314624 124 428 c 0
 169.307086614 484 217.850393701 500 261 500 c 0
 279 500 297.192204705 494.375511821 317 484 c 0
 338 473 355 467 367 467 c 0
 380 467 387 477 387 495 c 0
 387 500 392 504 398 504 c 0
 405 504 409 500 409 493 c 0
 409 484 403.601886625 468.203773249 393 447 c 0
 382 425 368 415 348 415 c 0
 331 415 309.316062267 422.674517151 280 436 c 0
 258 446 247 451 236 451 c 0
 220 451 203.020183074 446.27887166 184 426 c 0
 162.275862069 401 121 339 121 314 c 1
 147.086956522 346 188.826086957 370 241 370 c 0
 358.202380952 370 420 293 420 166 c 0
 420 58.6593406593 342.220238095 -10 241 -10 c 3
 108.602272727 -10 50 80.6153846154 50 218 c 0
EndSplineSet
Fore
SplineSet
348 165 m 0
 348 269 315 344 241 344 c 0
 166 344 134 287 134 203 c 0
 134 114 174 16 252 16 c 0
 318 16 348 74 348 165 c 0
60 218 m 0
 60 297 86 372 132 428 c 0
 177 484 226 511 269 511 c 0
 287 511 305.956341102 506.719174706 325 491 c 0
 336.772026742 481.283036154 357 465 369 465 c 0
 382 465 393 480 393 501 c 0
 393 506 396 510 402 510 c 0
 409 510 413 506 413 499 c 0
 413 483 402 452 396 443 c 0
 389 433 370 417 356 417 c 0
 339 417 313.167517813 427.658510582 298 438 c 0
 276 453 259 464 244 464 c 0
 220 464 191 431 172 411 c 0
 153 389 145 371 140 337 c 1
 150 337 l 1
 173 355 209 370 249 370 c 0
 355 370 418 293 418 166 c 0
 418 64 350 -10 249 -10 c 0
 125 -10 60 103 60 218 c 0
EndSplineSet
Substitution2: "'ss03' Style Set 3 lookup 2-1" uni0431.ss03
Substitution2: "'ss02' Style Set 2 lookup 1-1" uni0431.ss02
Substitution2: "'ss01' Style Set 1 lookup 0-1" uni0431.ss01
EndChar

StartChar: uni0432
Encoding: 210 1074 131
GlifName: uni0432
Width: 440
VWidth: 0
Flags: HW
HStem: 0 32<90.0029 133 203 284.976> 204 20<203 264.466> 364 32<98.0029 133 203 274.116>
VStem: 133 70<0 194 234 396> 297.867 68.8945<248.309 345.698> 325.839 67.1611<62.1333 172.754>
LayerCount: 2
Back
SplineSet
558 0 m 6xf0
 552 0 548 10 548 16 c 4
 548 22 552 32 558 32 c 6
 573 32 l 6
 579 32 583 36 583 42 c 6
 583 348 l 6
 583 353.99609375 579 358 573 358 c 6
 558 358 l 6
 552 358 548 368 548 374 c 4
 548 380 552 390 558 390 c 6
 653 390 l 5
 653 0 l 5
 558 0 l 6xf0
738 286 m 4xf8
 738 316 721.635742188 358 681 358 c 6
 663 358 l 6
 657 358 653 353.995117188 653 347.995117188 c 6
 653 230 l 6
 653 224 657 220 663 220 c 6
 683.09765625 220 l 6
 711.5625 220 738 256.937683105 738 286 c 4xf8
761 105.364257812 m 4xf4
 761 158.075904301 731.41796875 200 692 200 c 6
 663 200 l 6
 657 200 653 196 653 190 c 6
 653 34 l 5
 686 34 l 6
 714.908203125 34 761 63.7467454289 761 105.364257812 c 4xf4
583 0 m 5
 583 390 l 5
 702 390 l 6
 774.241210938 390 808 357 808 297 c 4xf8
 808 255.986364424 772.18359375 223.747203666 748.78125 216.076171875 c 5
 783.71484375 207.997090512 837 173.175592676 837 112 c 4
 837 39.5828125 780.420898438 -9.84839432073e-015 700 0 c 6
 583 0 l 5
100 0 m 2
 94 0 90 10 90 16 c 0
 90 22 94 32 100 32 c 2
 115 32 l 2
 121 32 125 36 125 42 c 0
 125 342 l 0
 125 347.99609375 121 352 115 352 c 2
 100 352 l 2
 94 352 90 362 90 368 c 0
 90 374 94 384 100 384 c 2
 201 384 l 1
 201 0 l 1
 100 0 l 2
318 280 m 0
 318 310 308 352 261 352 c 2
 211 352 l 2
 205 352 201 347.995117188 201 341.995117188 c 2
 201 228 l 2
 201 222 205 218 211 218 c 2
 263.09765625 218 l 2
 295.09765625 218 318 251.818359375 318 280 c 0
325 97 m 3
 325 148.59765625 304.610351562 186 256 186 c 2
 211 186 l 2
 205 186 201 182 201 176 c 2
 201 32 l 1
 250 32 l 2
 298 32 325 56.548828125 325 97 c 3
125 0 m 1
 125 384 l 1
 264 384 l 2
 336.241210938 384 392 345 392 285 c 0
 392 245 356.18359375 211.557617188 332.78125 204.076171875 c 1
 367.71484375 196.15234375 405 170 405 110 c 0
 405 38.8759765625 344.420898438 -0 264 0 c 2
 125 0 l 1
EndSplineSet
Fore
SplineSet
312.838867188 107.364257812 m 0
 312.838867188 161.189894539 274.41796875 204 235 204 c 2
 200 204 l 2
 194 204 190 200 190 194 c 2
 190 42 l 2
 190 36 193 32 199 32 c 2
 229 32 l 2
 278 32 312.838867188 64.6457788507 312.838867188 107.364257812 c 0
284.8671875 290 m 0
 284.8671875 334 264.635742188 364 224 364 c 2
 200 364 l 2
 194 364 190 359.995117188 190 353.995117188 c 2
 190 234 l 2
 190 228 194 224 200 224 c 2
 226.09765625 224 l 2
 260 224 284.8671875 260.937683105 284.8671875 290 c 0
85 0 m 2
 79 0 75 6 75 16 c 0
 75 26 79 32 85 32 c 2
 110 32 l 2
 116 32 120 36 120 42 c 2
 120 354 l 2
 120 359.99609375 116 364 110 364 c 2
 85 364 l 2
 79 364 75 370 75 380 c 0
 75 390 79 396 85 396 c 2
 252.181640625 396 l 2
 318.345703125 396 353.76171875 360.032835601 353.76171875 301 c 0
 353.76171875 266.217513208 321.8125 228.879684668 291.78125 220.076171875 c 1
 338.315429688 205.526547129 380 176.351185351 380 114 c 0
 380 40.2896484375 323.420898438 0 243 0 c 2
 85 0 l 2
EndSplineSet
Substitution2: "'ss03' Style Set 3 lookup 2-1" uni0432.ss03
Substitution2: "'ss01' Style Set 1 lookup 0-1" uni0432.ss01
EndChar

StartChar: uni0433
Encoding: 211 1075 132
GlifName: uni0433
Width: 418
VWidth: 0
Flags: HW
HStem: 0 32<90.0029 135 205 249.997> 364 32<90.0029 135 205 330.848>
VStem: 135 70<32 364>
LayerCount: 2
Fore
SplineSet
85 0 m 2
 79 0 75 6 75 16 c 0
 75 26 79 32 85 32 c 2
 110 32 l 2
 116 32 120 36 120 42 c 2
 120 354 l 2
 120 360 116 364 110 364 c 2
 85 364 l 2
 79 364 75 370 75 380 c 0
 75 390 79 396 85 396 c 2
 296 396 l 2
 302.058239268 396 309.361660156 398.315905848 316 400.71875 c 0
 323.155808808 403.308899608 330.700810957 406 340 406 c 0
 347.846153846 406 354.614685875 376.323080775 356 368 c 0
 358.325986199 354.025284325 362.784083 338.569965489 369 326 c 0
 374.65391178 314.566533956 378 305.555555556 378 302 c 0
 378 296 376 293 372 293 c 0
 365 293 358 301 346 316 c 0
 322 346 307 364 268 364 c 2
 190 364 l 1
 190 42 l 2
 190 36 194 32 200 32 c 2
 225 32 l 2
 231 32 235 26 235 16 c 0
 235 6 231 0 225 0 c 2
 85 0 l 2
EndSplineSet
Substitution2: "'ss03' Style Set 3 lookup 2-1" uni0433.ss03
Substitution2: "'ss01' Style Set 1 lookup 0-1" uni0433.ss01
EndChar

StartChar: uni0434
Encoding: 212 1076 133
GlifName: uni0434
Width: 547
VWidth: 0
Flags: HW
HStem: -474 27<31.6129 196.724> -136 61<74.0811 291.925> -6 16<228.758 306.322> 358 32<240.876 350 420 454.997>
VStem: -102 28<-349.533 -219.233> 55 80<86.3726 271.06> 350 70<-191.038 19 25.7563 357.951>
LayerCount: 2
Back
SplineSet
-102 -282 m 4
 -102 -196 -63.3037109375 -133.279296875 11 -92 c 4
 29 -82 87.001953125 -76.1669921875 171 -75 c 4
 243 -74 308.48046875 -69.177734375 316 -65 c 4
 325 -60 328.561523438 -62.9130859375 326 -77 c 4
 324 -88 304.740234375 -107.555664062 284 -120 c 4
 264 -132 252 -136 231 -136 c 4
 215 -136 193.971679688 -134.166992188 158 -128 c 4
 123 -122 96 -119 73 -119 c 4
 -18 -119 -74 -210 -74 -285 c 4
 -74 -388 10 -447 103 -447 c 4
 289 -447 350 -338 350 -96 c 6
 350 19 l 5
 325 3 293 -6 250 -6 c 4
 143.236328125 -6 59 55 59 165 c 4
 59 310.890625 128.948242188 390 325 390 c 4
 445 390 l 4
 451 390 455 380 455 374 c 4
 455 368 451 358 445 358 c 6
 430 358 l 6
 424 358 420 354 420 348 c 4
 420 37 l 4
 420 -312 418.029296875 -349.149414062 264 -439 c 4
 228 -460 158 -474 102 -474 c 4
 -25 -474 -102 -380 -102 -282 c 4
325 358 m 4
 219 358 135 302.159179688 135 176 c 4
 135 88 191 10 269 10 c 4
 288 10 329 24 350 36 c 5
 350 348 l 4
 350 353 347.098632812 358 342 358 c 4
 337 358 331 358 325 358 c 4
EndSplineSet
Fore
SplineSet
-120 -250 m 0
 -120 -95 -10 -37 99 -37 c 0
 116.448242188 -37 146.780273438 -38.22265625 179 -41.5712890625 c 0
 215.029296875 -45.3173828125 253.627929688 -47 279 -47 c 0
 316.09765625 -47 357.000976562 -25.736328125 360 -23 c 0
 363.310546875 -19.9794921875 365.8203125 -19.353515625 368 -19.353515625 c 3
 371.456054688 -19.353515625 373 -23.6748046875 373 -33 c 0
 373 -40 335.009765625 -68.3935546875 314 -81 c 0
 294 -93 264 -107 243 -107 c 0
 227 -107 188.932617188 -106.172851562 176 -101 c 0
 141 -87 105 -79 82 -79 c 0
 -46 -79 -96 -178 -96 -253 c 0
 -96 -356 -4 -415 103 -415 c 0
 289 -415 368 -306 368 -64 c 2
 368 47 l 1
 343 31 311 22 268 22 c 0
 161 22 70 78 70 188 c 0
 70 320 133 396 290 396 c 0
 298.303710938 396 322.353515625 395.568359375 347 393.103515625 c 0
 372.73046875 390.53125 399.280273438 390 409 390 c 0
 421.419921875 390 434.086914062 390.48046875 447 392.970703125 c 0
 459.928710938 395.463867188 473.413085938 396 487 396 c 0
 493 396 497 386 497 380 c 0
 497 374 493 364 487 364 c 2
 448 364 l 2
 442 364 438 360 438 354 c 2
 438 106 l 2
 438 -100 436.072265625 -317.124023438 282 -407 c 0
 246 -428 176 -442 120 -442 c 0
 -30 -442 -120 -362 -120 -250 c 0
343 364 m 2
 237 364 144 325 144 199 c 0
 144 111 209 38 287 38 c 0
 306 38 347 52 368 64 c 1
 368 354 l 2
 368 359 365 364 360 364 c 2
 343 364 l 2
EndSplineSet
Substitution2: "'ss03' Style Set 3 lookup 2-1" uni0434.ss03
Substitution2: "'ss01' Style Set 1 lookup 0-1" uni0434.ss01
EndChar

StartChar: uni0435
Encoding: 213 1077 134
GlifName: uni0435
Width: 480
VWidth: 0
Flags: HW
LayerCount: 2
Back
SplineSet
391 190 m 5
 383 296.62890625 340 363 267 363 c 7
 177 363 140 270.442382812 140 194 c 7
 140 100.086914062 189 20 266 20 c 4
 358.1484375 20 391 84.400390625 391 190 c 5
60 192 m 7
 60 295.149414062 141.456054688 394 269 394 c 4
 396.34765625 394 471 309.172851562 471 190 c 7
 471 69.6005859375 389.651367188 -10 259 -10 c 7
 133.176757812 -10 60 77.404296875 60 192 c 7
EndSplineSet
Fore
SplineSet
320 301 m 0
 320 336.912109375 286 375 253 375 c 0
 195.372070312 375 149 309.79296875 149 282 c 1
 149 282 167.743164062 282 235 282 c 0
 307 282 320 285 320 301 c 0
60 183 m 0
 60 328.612304688 151 406 268 406 c 0
 348 406 400 341.760742188 400 287 c 0
 400 277 361.017578125 270.715820312 271 265 c 2
 145 257 l 1
 143.379882812 250.354492188 140 217.783203125 140 205 c 0
 140 132.69140625 190 42 282 42 c 0
 327.446289062 42 372.711914062 54.888671875 400 85 c 0
 407 91.6953125 413.5 96 416 96 c 0
 420 96 420 93 420 90 c 0
 420 87.986328125 415.07421875 79.7451171875 408 70 c 0
 366.331054688 25.9189453125 313.819335938 -10 241 -10 c 0
 148.443359375 -10 60 78 60 183 c 0
EndSplineSet
Substitution2: "'ss03' Style Set 3 lookup 2-1" uni0435.ss03
Substitution2: "'ss01' Style Set 1 lookup 0-1" uni0435.ss01
EndChar

StartChar: uni0436
Encoding: 214 1078 135
GlifName: uni0436
Width: 571
VWidth: 0
Flags: HW
LayerCount: 2
Back
SplineSet
217.016601562 0 m 6
 211.016601562 0 207.016601562 10 207.016601562 16 c 4
 207.016601562 22 211.016601562 32 217.016601562 32 c 6
 238.016601562 32 l 6
 244.016601562 32 248.016601562 36 248.016601562 42 c 6
 248.016601562 354 l 6
 248.016601562 359.99609375 244.016601562 364 238.016601562 364 c 6
 217.016601562 364 l 6
 211.016601562 364 207.016601562 374 207.016601562 380 c 4
 207.016601562 386 211.016601562 396 217.016601562 396 c 6
 349.016601562 396 l 6
 355.016601562 396 359.016601562 386 359.016601562 380 c 4
 359.016601562 374 355.016601562 364 349.016601562 364 c 6
 328.016601562 364 l 6
 322.016601562 364 318.016601562 359.99609375 318.016601562 354 c 6
 318.016601562 42 l 6
 318.016601562 36 322.016601562 32 328.016601562 32 c 6
 349.016601562 32 l 6
 355.016601562 32 359.016601562 22 359.016601562 16 c 4
 359.016601562 10 355.016601562 0 349.016601562 0 c 6
 217.016601562 0 l 6
262 300 m 5
 274 300 l 5
 274 287 l 5
 237.260742188 267.506835938 207.395507812 223.849609375 188.872070312 175 c 4
 177.509765625 145.037109375 170.995117188 106.836914062 164 57 c 6
 156 0 l 5
 107 0 l 6
 60 0 l 4
 54 0 50 10 50 16 c 7
 50 22 54 32 60 32 c 6
 67 32 l 6
 83 32 92 54 101 93 c 4
 112.74609375 143.8984375 139.494140625 193.478515625 168.75390625 232 c 4
 191.356445312 261.756835938 219.02734375 284.083984375 262 300 c 5
298 300 m 5
 343.484375 286.737304688 379.567382812 261.096679688 404 232 c 4
 437.82421875 191.71875 453.16796875 163.856445312 465 109 c 4
 476.663085938 54.92578125 489 32 503 32 c 6
 511 32 l 6
 517 32 521 22 521 16 c 4
 521 10 517 0 511 0 c 6
 392 0 l 6
 386 0 382 10 382 16 c 4
 382 21 386 32 392 32 c 5
 395 32 l 6
 403 32 406 56 406 69 c 4
 406 99 396.427734375 141.2109375 380 174 c 4
 355.409179688 223.08203125 325.563476562 264.909179688 286 287 c 5
 286 300 l 5
 298 300 l 5
286 300 m 5
 332.590820312 325.609375 394.208984375 354 419 354 c 4
 444 354 462 337 462 312 c 4
 462 277.587890625 443 273 431 273 c 4
 419 273 404.26953125 286.641601562 401 301 c 4
 397.20703125 315.279296875 390.77734375 322 385 322 c 4
 350.146484375 322 326.584960938 304.1640625 298 280 c 5
 286 280 l 5
 286 300 l 5
274 300 m 5
 274 280 l 5
 262 280 l 5
 235.626953125 303.284179688 207.993164062 322 175 322 c 4
 168 322 164.779296875 317.081054688 159 301 c 4
 152.21875 278.985351562 141 273 129 273 c 4
 117 273 96 277.587890625 96 312 c 4
 96 337 116 354 141 354 c 4
 165.490234375 354 226.54296875 326.8203125 274 300 c 5
EndSplineSet
Fore
SplineSet
262 300 m 1
 274 300 l 1
 274 291 l 1
 237.260742188 271.506835938 203.395507812 223.849609375 184.872070312 175 c 0
 173.509765625 145.037109375 170.76171875 106.869140625 164 57 c 2
 156 0 l 1
 107 0 l 1
 60 0 l 2
 54 0 50 10 50 16 c 0
 50 22 54 32 60 32 c 2
 67 32 l 2
 83 32 92 54 101 93 c 0
 112.74609375 143.8984375 139.494140625 193.477539062 168.75390625 232 c 0
 191.356445312 261.756835938 219.02734375 284.083984375 262 300 c 1
298 300 m 1
 343.484375 286.737304688 379.567382812 261.096679688 404 232 c 0
 437.82421875 191.71875 453.16796875 163.856445312 465 109 c 0
 476.663085938 54.92578125 489 32 503 32 c 2
 511 32 l 2
 517 32 521 22 521 16 c 0
 521 10 517 0 511 0 c 2
 392 0 l 2
 386 0 382 10 382 16 c 0
 382 21 386 32 392 32 c 2
 395 32 l 2
 403 32 406 56 406 69 c 0
 406 99 400.427734375 141.2109375 384 174 c 0
 359.409179688 223.08203125 325.563476562 268.909179688 286 291 c 1
 286 300 l 1
 298 300 l 1
286 314 m 1
 332.590820312 339.609375 406.866210938 368 431.657226562 368 c 0
 456.657226562 368 478.2734375 351 478.2734375 326 c 0
 478.2734375 297.615234375 448.725585938 291.21875 436.725585938 291.21875 c 0
 415.5625 291.21875 404.91796875 309.670898438 404.91796875 323.739257812 c 0
 404.91796875 328.405273438 405.365234375 338.463867188 406.87109375 346.854492188 c 1
 374.155273438 346.854492188 312.68359375 308.985351562 298 298 c 1
 286 298 l 1
 286 314 l 1
217.016601562 0 m 2
 211.016601562 0 207.016601562 10 207.016601562 16 c 0
 207.016601562 22 211.016601562 32 217.016601562 32 c 2
 238.016601562 32 l 2
 244.016601562 32 248.016601562 36 248.016601562 42 c 2
 248.016601562 354 l 2
 248.016601562 359.99609375 244.016601562 364 238.016601562 364 c 2
 217.016601562 364 l 2
 211.016601562 364 207.016601562 374 207.016601562 380 c 0
 207.016601562 386 211.016601562 396 217.016601562 396 c 2
 349.016601562 396 l 2
 355.016601562 396 359.016601562 386 359.016601562 380 c 0
 359.016601562 374 355.016601562 364 349.016601562 364 c 2
 328.016601562 364 l 2
 322.016601562 364 318.016601562 359.99609375 318.016601562 354 c 2
 318.016601562 42 l 2
 318.016601562 36 322.016601562 32 328.016601562 32 c 2
 349.016601562 32 l 2
 355.016601562 32 359.016601562 22 359.016601562 16 c 0
 359.016601562 10 355.016601562 0 349.016601562 0 c 2
 217.016601562 0 l 2
273.98046875 314 m 1
 273.98046875 298 l 1
 261.98046875 298 l 1
 247.296875 308.985351562 185.826171875 346.854492188 153.109375 346.854492188 c 1
 154.616210938 338.463867188 155.0625 328.405273438 155.0625 323.739257812 c 0
 155.0625 309.670898438 144.41796875 291.21875 123.254882812 291.21875 c 0
 111.254882812 291.21875 81.70703125 297.615234375 81.70703125 326 c 0
 81.70703125 351 103.323242188 368 128.323242188 368 c 0
 153.114257812 368 227.389648438 339.609375 273.98046875 314 c 1
EndSplineSet
Substitution2: "'ss03' Style Set 3 lookup 2-1" uni0436.ss03
Substitution2: "'ss01' Style Set 1 lookup 0-1" uni0436.ss01
EndChar

StartChar: uni0437
Encoding: 215 1079 136
GlifName: uni0437
Width: 348
VWidth: 0
Flags: HW
LayerCount: 2
Back
SplineSet
65 100 m 6
 65 105.423828125 70 110 76 110 c 4
 82 110 87 103 87 95 c 4
 87 71.046875 135 22 158 22 c 4
 214.22265625 22 236 49.279296875 236 84 c 4
 236 114 217.415039062 143.21484375 175 165 c 6
 161.37109375 172 l 6
 98.068359375 204.513671875 67 244.055664062 67 284 c 4
 67 364.9140625 137.452148438 394 185 394 c 4
 194.180664062 394 208.059570312 393.284179688 219 390.276367188 c 4
 227.086914062 388.052734375 233.935546875 388 237 388 c 4
 246.349609375 388 254.874023438 390.5 259 392 c 4
 261 394 262 394 264 394 c 4
 269 394 270.90234375 387.3203125 273 374 c 6
 280 314 l 6
 280.635742188 308.548828125 277.631835938 305 271 305 c 4
 263.6796875 305 258.998046875 314.670898438 253 331 c 4
 244.98046875 352.833007812 215 365 191 365 c 4
 158.017578125 365 127 356.4296875 127 305 c 4
 127 265.08203125 152.853515625 244.524414062 174 228.04296875 c 5
 215 208.072265625 l 6
 269.064453125 180.26171875 316 150.9453125 316 95 c 4
 316 39.5908203125 270.735351562 -10 167 -10 c 4
 154 -10 142.836914062 -4.6845703125 127 4 c 4
 114.889648438 10.6416015625 104 11 96 11 c 4
 88 11 81 8 77 4 c 4
 75 2 74 2 73 2 c 4
 68 2 65 4.7548828125 65 11 c 6
 65 100 l 6
EndSplineSet
Fore
SplineSet
70 100 m 2
 70 105 75 110 81 110 c 0
 87 110 92 103 92 95 c 0
 92 84 101.720703125 60.6923828125 116 48 c 0
 134 32 157 26 170 26 c 0
 226 26 250 61.34375 250 100 c 0
 250 132.857421875 231.255859375 157.583007812 202 169 c 2
 161 185 l 2
 94.568359375 210.924804688 81 247.400390625 81 289 c 0
 81 370 146 396 194 396 c 0
 203 396 209.89453125 394.702148438 218 392 c 0
 224 390 233 390 236 390 c 0
 245 390 248.46484375 391.46484375 252 395 c 0
 254 397 260 399 262 399 c 0
 267 399 270 397 270 393 c 2
 270 307 l 2
 270 302 268 297 260 297 c 0
 254 297 248 300 248 310 c 2
 248 328 l 2
 248 351 214 367 190 367 c 0
 157 367 129 361 129 310 c 0
 129 267.193359375 153.666015625 255.37890625 174 249 c 2
 225 233 l 2
 265.625 220.254882812 308 183.26171875 308 124 c 0
 308 55.4169921875 262 -10 174 -10 c 0
 161 -10 142.419921875 -4.2099609375 126 4 c 0
 118 8 112 11 104 11 c 0
 96 11 86 8 82 4 c 0
 80 2 79 2 78 2 c 0
 73 2 70 5 70 11 c 2
 70 100 l 1
 70 100 l 2
EndSplineSet
Substitution2: "'ss03' Style Set 3 lookup 2-1" uni0437.ss03
Substitution2: "'ss01' Style Set 1 lookup 0-1" uni0437.ss01
EndChar

StartChar: uni0438
Encoding: 216 1080 137
GlifName: uni0438
Width: 330
VWidth: 0
Flags: HW
HStem: 0 32<90 134.997 204.997 249.994> 364 32<90 134.997 204.997 249.994>
VStem: 134.997 70<32 364>
LayerCount: 2
Fore
SplineSet
94.9970703125 0 m 2
 88.9970703127 0 84.9970703125 6 84.9970703125 16 c 0
 84.9970703125 26 88.9970703127 32 94.9970703125 32 c 2
 119.997070312 32 l 2
 125.997070312 32 129.997070312 36 129.997070312 42 c 2
 129.997070312 354 l 2
 129.997070312 359.99609375 125.997070312 364 119.997070312 364 c 2
 94.9970703125 364 l 2
 88.9970703127 364 84.9970703125 370 84.9970703125 380 c 0
 84.9970703125 390 88.9970703127 396 94.9970703125 396 c 2
 234.997070312 396 l 2
 240.997070312 396 244.997070312 390 244.997070312 380 c 0
 244.997070312 370 240.997070312 364 234.997070312 364 c 2
 209.997070312 364 l 2
 203.997070312 364 199.997070312 359.99609375 199.997070312 354 c 2
 199.997070312 42 l 2
 199.997070312 36 203.997070312 32 209.997070312 32 c 2
 234.997070312 32 l 2
 240.997070312 32 244.997070312 26 244.997070312 16 c 0
 244.997070312 6 240.997070312 0 234.997070312 0 c 2
 94.9970703125 0 l 2
EndSplineSet
Substitution2: "'ss03' Style Set 3 lookup 2-1" uni0438.ss03
Substitution2: "'ss01' Style Set 1 lookup 0-1" uni0438.ss01
EndChar

StartChar: uni043A
Encoding: 218 1082 139
GlifName: uni043A_
Width: 539
VWidth: 0
Flags: HW
LayerCount: 2
Back
SplineSet
100.016601562 0 m 6
 94.0166015625 0 90.0166015625 10 90.0166015625 16 c 4
 90.0166015625 22 94.0166015625 32 100.016601562 32 c 6
 121.016601562 32 l 6
 127.016601562 32 131.016601562 36 131.016601562 42 c 6
 131.016601562 354 l 6
 131.016601562 359.99609375 127.016601562 364 121.016601562 364 c 6
 100.016601562 364 l 6
 94.0166015625 364 90.0166015625 374 90.0166015625 380 c 4
 90.0166015625 386 94.0166015625 396 100.016601562 396 c 6
 232.016601562 396 l 6
 238.016601562 396 242.016601562 386 242.016601562 380 c 4
 242.016601562 374 238.016601562 364 232.016601562 364 c 6
 211.016601562 364 l 6
 205.016601562 364 201.016601562 359.99609375 201.016601562 354 c 6
 201.016601562 42 l 6
 201.016601562 36 205.016601562 32 211.016601562 32 c 6
 232.016601562 32 l 6
 238.016601562 32 242.016601562 22 242.016601562 16 c 4
 242.016601562 10 238.016601562 0 232.016601562 0 c 6
 100.016601562 0 l 6
191 176 m 5
 191 205 l 5
 229 205 l 5
 271 205 304.788386716 173.016890311 320.040039062 139.08984375 c 4
 348.154381323 71.8056292998 396.011479855 29.107421875 435.118164062 29.107421875 c 4
 448.044455027 29.107421875 460.016864858 33.7700733737 470 43.755859375 c 4
 474.625866946 48.3829546451 480.266020878 50.9978774671 484.999999779 50.9978774671 c 7
 490.051445589 50.9978774671 494 48.1123840191 494 43 c 4
 494 20.5107673431 426.763789621 -13.099609375 379.7734375 -13.099609375 c 4
 332.896046162 -13.099609375 302.578577957 13.5970752734 274.447265625 74.0458984375 c 4
 232.630409716 165.70029789 227.446649958 176 205 176 c 6
 201 176 l 5
 191 176 l 5
173 205 m 5
 201 205 l 5
 303 324 l 6
 315.855606942 337.518267094 320 352.363984946 320 354 c 4
 320 360 320 364 314 364 c 5
 305 364 l 6
 299 364 295 374 295 380 c 4
 295 386 299 396 305 396 c 6
 399 396 l 6
 405 396 409 386 409 380 c 4
 409 374 405 364 399 364 c 5
 389 364 l 4
 373.999990908 364 354.489654097 347.530662416 336.703125 329 c 6
 229 205 l 5
 229 176 l 5
 173 176 l 5
 173 205 l 5
EndSplineSet
Fore
SplineSet
228 180 m 1
 228 196 l 1
 243 213 l 1
 279 213 308 191 317 174 c 0
 345 107 367 45 418 45 c 0
 431 45 461 48 475 59 c 0
 480 63 485 66 490 66 c 0
 495 66 499 63 499 58 c 0
 499 36 441 -10 394 -10 c 0
 347 -10 295 22 275 85 c 0
 246 165 227 180 210 180 c 2
 206 180 l 1
 228 180 l 1
 228 180 l 1
183 203 m 5
 211 203 l 5
 284 324 l 6
 294 340 301 352 301 354 c 4
 301 360 300 364 297 364 c 6
 292 364 l 6
 286 364 282 374 282 380 c 4
 282 386 286 396 292 396 c 6
 396 396 l 6
 402 396 406 386 406 380 c 4
 406 374 402 364 396 364 c 6
 370 364 l 6
 355 364 338 348 324 329 c 6
 243 213 l 5
 239 180 l 5
 183 180 l 5
 183 203 l 5
100 0 m 2
 94 0 90 10 90 16 c 0
 90 22 94 32 100 32 c 2
 121 32 l 2
 127 32 131 36 131 42 c 2
 131 354 l 2
 131 360 127 364 121 364 c 2
 100 364 l 2
 94 364 90 374 90 380 c 0
 90 386 94 396 100 396 c 2
 232 396 l 2
 238 396 242 386 242 380 c 0
 242 374 238 364 232 364 c 2
 211 364 l 2
 205 364 201 360 201 354 c 2
 201 42 l 2
 201 36 205 32 211 32 c 2
 232 32 l 2
 238 32 242 22 242 16 c 0
 242 10 238 0 232 0 c 2
 100 0 l 2
EndSplineSet
Substitution2: "'ss03' Style Set 3 lookup 2-1" uni043A.ss03
Substitution2: "'ss01' Style Set 1 lookup 0-1" uni043A.ss01
EndChar

StartChar: uni043B
Encoding: 219 1083 140
GlifName: uni043B_
Width: 519
VWidth: 0
Flags: HW
LayerCount: 2
Back
SplineSet
68.681640625 2.8681640625 m 4
 63.0478515625 9.6572265625 60.44140625 16.1552734375 60.44140625 21.814453125 c 4
 60.44140625 33.3056640625 71.1845703125 41.3408203125 89.1435546875 41.3408203125 c 4
 91.8798828125 41.3408203125 94.78515625 41.154296875 97.8447265625 40.7646484375 c 4
 100.272460938 40.455078125 102.515625 40.2578125 104.625976562 40.2578125 c 4
 124.646484375 40.2578125 132.646484375 58.05859375 171.4375 167.24609375 c 4
 209.248046875 273.671875 224.213867188 317.8515625 224.213867188 335.924804688 c 4
 224.213867188 346.319335938 219.264648438 348.079101562 210.86328125 348.079101562 c 4
 200.814453125 348.079101562 192.592773438 353.165039062 192.592773438 359.381835938 c 4
 192.592773438 365.59765625 213.2265625 370.682617188 238.443359375 370.682617188 c 6
 284.295898438 370.682617188 l 5
 324.774414062 283.091796875 l 6
 347.0390625 234.912109375 379.0390625 159.899414062 395.889648438 116.38671875 c 4
 415.540039062 65.6298828125 435.239257812 33.271484375 450.834960938 26.1171875 c 4
 466.360351562 18.9912109375 474 12.9697265625 474 8.330078125 c 4
 474 1.54296875 457.645507812 -2.28515625 425.70703125 -2.28515625 c 6
 376.26953125 -2.28515625 l 5
 316.2265625 145.275390625 l 6
 283.8515625 224.840820312 252.248046875 297.782226562 248.012695312 297.782226562 c 4
 242.907226562 297.782226562 218.494140625 240.4453125 192.915039062 168.150390625 c 4
 146.39453125 36.681640625 121.018554688 -15.185546875 95.9443359375 -15.185546875 c 4
 87.1220703125 -15.185546875 78.3369140625 -8.765625 68.681640625 2.8681640625 c 4
EndSplineSet
Fore
SplineSet
60 19 m 0
 60 30 69 47 87 47 c 0
 95 47 105 44 115 37 c 1
 130 62 156.407226562 135.268554688 170 180 c 2
 225 361 l 2
 225.725585938 363.387695312 226 365 226 366 c 0
 226 372 222.25 375 217 375 c 2
 197 375 l 2
 190 375 188 381 188 386 c 0
 188 391 189 396 197 396 c 2
 283 396 l 1
 442 28 l 1
 467 28 l 2
 476 28 479 21 479 14 c 0
 479 7 476 -0 468 0 c 2
 381 0 l 1
 253 312 l 0
 249.670898438 320.26953125 247 323 243 323 c 0
 238 323 235.530273438 320.145507812 233 312 c 2
 192 180 l 2
 150.754882812 47.2119140625 132 -10 92 -10 c 4
 73 -10 60 2 60 19 c 0
EndSplineSet
Substitution2: "'ss03' Style Set 3 lookup 2-1" uni043B.ss03
Substitution2: "'ss01' Style Set 1 lookup 0-1" uni043B.ss01
EndChar

StartChar: uni043C
Encoding: 220 1084 141
GlifName: uni043C_
Width: 625
VWidth: 0
Flags: HW
HStem: 0 32<105.003 140 166 200.997 397.003 432 502 536.997> 340 44<432 486.539> 352 32<80.0029 111.926 122 136 510.367 512 523 536.997> 369.902 14.0977<507.826 523>
VStem: 140 26<32 279.485 342 347.996> 432 70<32 340 342 347.996>
LayerCount: 2
Back
SplineSet
115 0 m 6x9c
 109 0 105 10 105 16 c 4
 105 22 109 32 115 32 c 6
 130 32 l 6
 136 32 140 36 140 42 c 4
 140 354 l 4
 140 359.99609375 136 364 130 364 c 6
 122 364 l 6
 122 364 112 374 112 380 c 4
 112 386 116 396 122 396 c 6xac
 166 396 l 5
 166 42 l 4
 166 36 170 32 176 32 c 6
 191 32 l 6
 197 32 201 22 201 16 c 4
 201 10 197 0 191 0 c 6
 115 0 l 6x9c
407 0 m 6
 401 0 397 10 397 16 c 4
 397 22 401 32 407 32 c 6
 422 32 l 6
 428 32 432 36 432 42 c 6
 432 396 l 5xcc
 527 396 l 6
 532.947265625 396 537 386 537 380 c 4
 537 374 533 364 527 364 c 6
 512 364 l 6
 506 364 502 359.99609375 502 354 c 4
 502 42 l 4
 502 36 506 32 512 32 c 6
 527 32 l 6
 533 32 537 22 537 16 c 4
 537 10 533 0 527 0 c 6
 407 0 l 6
100 364 m 6xac
 90 364 l 5
 84 364 80 374 80 380 c 7
 80 386 84 396 90 396 c 5xac
 166 396 l 5x9c
 314.587890625 198.923828125 l 5
 432 396 l 5xcc
 523 396 l 5xac
 523 381.90234375 l 4x9c
 507.826171875 381.90234375 496.098632812 373.860351562 489.419921875 369.83203125 c 4
 487.490234375 368.66796875 486.5390625 362.697265625 486.5390625 352 c 5
 432 352 l 5xcc
 298.104492188 123 l 5
 295.104492188 123 l 5
 167.786132812 291.485351562 l 5
 154.444335938 310.284179688 115.47265625 364 100 364 c 6xac
EndSplineSet
Fore
SplineSet
117 0 m 2
 111 0 107 10 107 16 c 0
 107 22 111 32 117 32 c 2
 142 32 l 2
 148 32 152 36 152 42 c 2
 152 354 l 2
 152 359.99609375 148 364 142 364 c 2
 134 364 l 1
 134 364 124 374 124 380 c 0
 124 386 128 396 134 396 c 2
 178 396 l 1
 178 42 l 2
 178 36 182 32 188 32 c 2
 213 32 l 2
 219 32 223 22 223 16 c 0
 223 10 219 0 213 0 c 2
 117 0 l 2
395 0 m 2
 389 0 385 10 385 16 c 0
 385 22 389 32 395 32 c 2
 430 32 l 2
 436 32 439.965820312 36 440 42 c 2
 440 396 l 1
 555 396 l 2
 560.947265625 396 565 386 565 380 c 0
 565 374 561 364 555 364 c 2
 520 364 l 2
 514 364 510 359.99609375 510 354 c 2
 510 42 l 2
 510 36 514 32 520 32 c 2
 555 32 l 2
 561 32 565 22 565 16 c 0
 565 10 561 0 555 0 c 2
 395 0 l 2
112 364 m 1
 95 364 l 2
 89 364 85 374 85 380 c 0
 85 386 89 396 95 396 c 2
 178 396 l 1
 326.587890625 194.923828125 l 1
 440 396 l 1
 531 396 l 1
 531 381.90234375 l 1
 515.826171875 381.90234375 504.098632812 373.860351562 497.419921875 369.83203125 c 0
 495.490234375 368.66796875 494.5390625 362.697265625 494.5390625 352 c 1
 440 352 l 1
 310.103515625 119 l 1
 307.103515625 119 l 1
 179.786132812 291.485351562 l 2
 166.444335938 310.284179688 127.47265625 364 112 364 c 1
 112 364 l 1
EndSplineSet
Substitution2: "'ss03' Style Set 3 lookup 2-1" uni043C.ss03
Substitution2: "'ss01' Style Set 1 lookup 0-1" uni043C.ss01
EndChar

StartChar: uni043E
Encoding: 222 1086 142
GlifName: uni043E_
Width: 509
VWidth: 0
Flags: HW
LayerCount: 2
Back
SplineSet
377 193 m 5
 369 301.477539062 326 369 253 369 c 7
 163 369 126 274.799804688 126 197 c 7
 126 101.467773438 175 20 252 20 c 4
 344.1484375 20 377 85.5361328125 377 193 c 5
46 195 m 7
 46 299.680664062 127.456054688 400 255 400 c 4
 382.34765625 400 457 313.92578125 457 193 c 7
 457 70.7939453125 375.651367188 -10 245 -10 c 7
 119.176757812 -10 46 78.7021484375 46 195 c 7
EndSplineSet
Fore
SplineSet
381 196 m 0
 381 289.615234375 330 375 257 375 c 0
 167 375 128 280.293945312 128 200 c 0
 128 101.225585938 186 22 256 22 c 0
 339 22 381 85.833984375 381 196 c 0
50 195 m 0
 50 302.548828125 134 406 259 406 c 4
 386 406 459 296.390625 459 196 c 0
 459 74.0400390625 378 -10 247 -10 c 0
 121 -10 50 76.099609375 50 195 c 0
EndSplineSet
Substitution2: "'ss03' Style Set 3 lookup 2-1" uni043E.ss03
Substitution2: "'ss01' Style Set 1 lookup 0-1" uni043E.ss01
EndChar

StartChar: uni043F
Encoding: 223 1087 143
GlifName: uni043F_
Width: 597
VWidth: 0
Flags: HW
HStem: 0 32<100.216 145.213 215.213 260.21 367.216 412.213 482.213 527.21> 375.499 30.501<305.712 391.798>
VStem: 145.213 70<32 313.058> 412.213 70<32 362.404>
LayerCount: 2
Back
SplineSet
352 0 m 6
 346 0 342 10 342 16 c 4
 342 22 346 32 352 32 c 6
 367 32 l 6
 373 32 377 36 377 42 c 4
 377 162 l 5
 441 162 l 5
 441 42 l 4
 441 36 445 32 451 32 c 6
 466 32 l 6
 472 32 476 22 476 16 c 4
 476 10 472 0 466 0 c 6
 352 0 l 6
99 0 m 6
 93 0 89 10 89 16 c 4
 89 22 93 32 99 32 c 6
 114 32 l 6
 120 32 124 36 124 42 c 4
 124 162 l 5
 188 162 l 5
 188 42 l 4
 188 36 192 32 198 32 c 6
 213 32 l 6
 219 32 223 22 223 16 c 4
 223 10 219 0 213 0 c 6
 99 0 l 6
124 162 m 5
 124 252 l 6
 124 310.859243357 107.442155485 320.774592953 89 328 c 5
 66 315.7265625 l 7
 55.9984478658 315.7265625 50 320.341532205 50 331 c 4
 141 398.01953125 l 6
 142.849158876 399.222732814 144.593639446 400 146 400 c 7
 148.408283648 400 155.05859375 394.96372718 155.05859375 388 c 7
 155.05859375 385.151058796 154.067952264 381.979515183 151.232421875 378.698242188 c 4
 138 369 l 5
 156.31906616 359.59671696 169.202573149 342.888306952 178 314 c 5
 200.676928886 339.926842501 260.195831441 406 320 406 c 4
 414.093829818 406 441 385.276305003 441 250 c 6
 441 162 l 5
 377 162 l 5
 377 251.811523438 l 6
 377 331.42700921 363.774754294 383 310 383 c 4
 273.74795271 383 213.551657748 316.905147792 188 285 c 5
 188 162 l 5
 124 162 l 5
EndSplineSet
Fore
SplineSet
377 0 m 2
 371 0 367 10 367 16 c 0
 367 22 371 32 377 32 c 2
 402 32 l 2
 408 32 412 36 412 42 c 2
 412 162 l 1
 482 162 l 1
 482 42 l 2
 482 36 486 32 492 32 c 2
 517 32 l 2
 523 32 527 22 527 16 c 0
 527 10 523 0 517 0 c 2
 377 0 l 2
110 0 m 2
 104 0 100 10 100 16 c 0
 100 22 104 32 110 32 c 2
 135 32 l 2
 141 32 145 36 145 42 c 2
 145 162 l 1
 215 162 l 1
 215 42 l 2
 215 36 219 32 225 32 c 2
 250 32 l 2
 256 32 260 22 260 16 c 0
 260 10 256 0 250 0 c 2
 110 0 l 2
145 162 m 1
 145 271 l 2
 145 324 117 339 100 339 c 0
 80 339 73 333 63 333 c 0
 53 333 50 338 50 349 c 1
 190 420 l 2
 192 421 194 422 195 422 c 0
 197 422 204 417 204 410 c 0
 204 407 203 404 200 401 c 2
 167 381 l 1
 185 372 198 355 207 326 c 1
 232 348 300 406 360 406 c 0
 450 406 482 376 482 270 c 2
 482 162 l 1
 412 162 l 1
 412 269 l 2
 412 339 403 375 349 375 c 0
 313 375 245 322 215 295 c 1
 215 162 l 1
 145 162 l 1
EndSplineSet
Substitution2: "'ss03' Style Set 3 lookup 2-1" uni043F.ss03
Substitution2: "'ss01' Style Set 1 lookup 0-1" uni043F.ss01
EndChar

StartChar: uni0440
Encoding: 224 1088 144
GlifName: uni0440
Width: 524
VWidth: 0
Flags: W
HStem: -313 32<58.0029 102 172 217.997> 4 29<231.645 332.379> 377 29<240.031 335.904>
VStem: 102 70<-281 57 62.8948 353.887> 398 76<94.5936 306.539>
LayerCount: 2
Back
SplineSet
159 268 m 5
 93 206 l 5
 93 295.837792492 71.7113427664 310.971747139 48 322 c 5
 25 309.7265625 l 7
 14.9984478658 309.7265625 9 314.341532205 9 325 c 4
 112 392.01953125 l 6
 113.849158876 393.222732814 115.593639446 394 117 394 c 7
 119.408283648 394 126.05859375 388.96372718 126.05859375 382 c 7
 126.05859375 379.151058796 125.067952264 375.979515183 122.232421875 372.698242188 c 4
 109 363 l 5
 131.8988327 346.757965658 148.003216436 317.897984735 159 268 c 5
93 206 m 6
 93 269.150247021 169.555555556 406 283 406 c 4
 397.791666667 406 457 313.805007539 457 198 c 4
 457 67 379 -10 270 -10 c 4
 231.918032787 -10 196 -4 169 11 c 5
 169 -271 l 6
 169 -277 173 -281 179 -281 c 6
 194 -281 l 6
 200 -281 204 -291 204 -297 c 4
 204 -303 200 -313 194 -313 c 6
 68 -313 l 6
 62 -313 58 -303 58 -297 c 4
 58 -291 62 -281 68 -281 c 6
 83 -281 l 6
 89 -281 93 -277 93 -271 c 6
 93 206 l 6
264 377 m 4
 234.733333333 377 169 332.855855856 169 202 c 6
 169 47 l 5
 193 31.4444444444 219 19 249 19 c 4
 334 19 380 65.2014388489 380 188 c 4
 380 357.185483871 308.708333333 377 264 377 c 4
EndSplineSet
Fore
SplineSet
165 268 m 1
 102 206 l 1
 102 297 l 2
 102 337 95 354 78 354 c 0
 70 354 60 351 53 349 c 2
 22 337 l 2
 12 337 10 341 10 352 c 1
 143 424 l 2
 145 425 147 426 148 426 c 0
 150 426 157 421 157 414 c 0
 157 411 156 408 153 405 c 2
 139 397 l 1
 160 383 165 350 165 323 c 2
 165 268 l 1
102 206 m 2
 102 269 190.323529412 406 300 406 c 0
 415 406 474 314 474 198 c 0
 474 67 401 4 292 4 c 0
 234 4 186 45 172 57 c 1
 172 -271 l 2
 172 -277 176 -281 182 -281 c 2
 208 -281 l 2
 214 -281 218 -291 218 -297 c 0
 218 -303 214 -313 208 -313 c 2
 68 -313 l 2
 62 -313 58 -303 58 -297 c 0
 58 -291 62 -281 68 -281 c 2
 92 -281 l 2
 98 -281 102 -277 102 -271 c 2
 102 206 l 2
282 377 m 0
 253 377 172 355 172 224 c 2
 172 81 l 1
 191 63 226 33 274 33 c 0
 332 33 398 65 398 188 c 0
 398 357 327 377 282 377 c 0
EndSplineSet
Substitution2: "'ss03' Style Set 3 lookup 2-1" uni0440.ss03
Substitution2: "'ss01' Style Set 1 lookup 0-1" uni0440.ss01
EndChar

StartChar: uni0441
Encoding: 225 1089 145
GlifName: uni0441
Width: 446
VWidth: 0
Flags: HW
LayerCount: 2
Fore
SplineSet
50 195 m 0
 50 333.513605442 147.578945912 406 256 406 c 3
 285.480100612 406 330.257591675 386.516601562 334 386.516601562 c 3
 337.987289524 386.516601562 340.900766214 389.454012885 344 396 c 0
 347.307460885 402.985789982 351.221530301 406 354 406 c 3
 361.27989299 406 365.641288515 405.243938105 371.99609375 402 c 0
 376.99609375 302 l 1
 376.99609375 292 373.116071176 290 367 290 c 3
 363.685678486 290 355.131560998 291 355 296 c 0
 353.453967056 354.757267419 302.686830998 380.81640625 248 380.81640625 c 3
 186.864772717 380.81640625 130 323.752004292 130 191 c 3
 130 101.190098837 176.990087438 25.818359375 261 25.818359375 c 3
 316.391007549 25.818359375 355.900123333 63.0004111104 370 110 c 0
 371.724087313 115.746957711 377 120 383 120 c 0
 389 120 396 116 396 110 c 1
 380.496644295 41.3228328483 324.684563758 -10 242 -10 c 3
 114.70718232 -10 50 74.8334899259 50 195 c 0
EndSplineSet
Substitution2: "'ss03' Style Set 3 lookup 2-1" uni0441.ss03
Substitution2: "'ss01' Style Set 1 lookup 0-1" uni0441.ss01
EndChar

StartChar: uni0442
Encoding: 226 1090 146
GlifName: uni0442
Width: 765
VWidth: 0
Flags: W
HStem: 0 32<95.0029 140 210 254.997 315.003 360 430 474.997 535.003 580 650 694.997> 370 36<264.881 344.684 483.076 562.076>
VStem: 140 70<32 334.758> 360 70<32 361.09> 580 70<32 356.662>
CounterMasks: 1 38
LayerCount: 2
Back
SplineSet
552 0 m 6
 546 0 542 10 542 16 c 4
 542 22 546 32 552 32 c 6
 567 32 l 6
 573 32 577 36 577 42 c 4
 577 162 l 5
 653 162 l 5
 653 42 l 4
 653 36 657 32 663 32 c 6
 678 32 l 6
 684 32 688 22 688 16 c 4
 688 10 684 -7.34763812293e-016 678 0 c 6
 552 0 l 6
388 251 m 5
 368 280 l 5
 394.349952579 311.508501686 473.966987238 406 533 406 c 4
 626.31619486 406 653 386.073370195 653 256 c 6
 653 162 l 5
 577 162 l 5
 577 257.811523438 l 6
 577 333.7857373 566.143455018 383 522 383 c 4
 482.182177566 383 416.064935559 290.9742807 388 251 c 5
326 0 m 6
 320 0 316 10 316 16 c 4
 316 22 320 32 326 32 c 6
 341 32 l 6
 347 32 351 36 351 42 c 4
 351 162 l 5
 427 162 l 5
 427 42 l 4
 427 36 431 32 437 32 c 6
 452 32 l 6
 458 32 462 22 462 16 c 4
 462 10 458 -7.34763812293e-016 452 0 c 6
 326 0 l 6
100 0 m 6
 94 0 90 10 90 16 c 4
 90 22 94 32 100 32 c 6
 115 32 l 6
 121 32 125 36 125 42 c 4
 125 162 l 5
 201 162 l 5
 201 42 l 4
 201 36 205 32 211 32 c 6
 226 32 l 6
 232 32 236 22 236 16 c 4
 236 10 232 -7.34763812293e-016 226 0 c 6
 100 0 l 6
125 162 m 5
 125 246 l 6
 125 304.859243357 108.442155485 314.774592953 90 322 c 5
 67 309.7265625 l 7
 56.9984478658 309.7265625 51 314.341532205 51 325 c 4
 154 392.01953125 l 6
 155.849158876 393.222732814 157.593639446 394 159 394 c 7
 161.408398354 394 168.059025208 388.963727313 168.059025208 382.000000318 c 7
 168.059025208 379.151059017 167.068272012 375.979515296 164.232421875 372.698242188 c 4
 151 363 l 5
 169.31906616 353.59671696 182.202573149 336.888306952 191 308 c 5
 210.48299524 335.617723533 261.618953773 406 313 406 c 4
 401.650385117 406 427 386.073370195 427 256 c 6
 427 162 l 5
 351 162 l 5
 351 257.811523438 l 6
 351 333.7857373 341.525197106 383 303 383 c 4
 272.690911282 383 222.362861396 312.858524188 201 279 c 5
 201 162 l 5
 125 162 l 5
EndSplineSet
Fore
SplineSet
545 0 m 2
 539 0 535 10 535 16 c 0
 535 22 539 32 545 32 c 2
 570 32 l 2
 576 32 580 36 580 42 c 2
 580 162 l 1
 650 162 l 1
 650 42 l 2
 650 36 654 32 660 32 c 2
 685 32 l 2
 691 32 695 22 695 16 c 0
 695 10 691 0 685 0 c 2
 545 0 l 2
397 300 m 1
 423 336 477 406 536 406 c 0
 621.5 406 650 377 650 277 c 2
 650 162 l 1
 580 162 l 1
 580 258 l 2
 580 334 568 370 524 370 c 0
 471 370 424 307 397 273 c 1
 397 300 l 1
325 0 m 2
 319 0 315 10 315 16 c 0
 315 22 319 32 325 32 c 2
 350 32 l 2
 356 32 360 36 360 42 c 2
 360 162 l 1
 430 162 l 1
 430 42 l 2
 430 36 434 32 440 32 c 2
 465 32 l 2
 471 32 475 22 475 16 c 0
 475 10 471 0 465 0 c 2
 325 0 l 2
105 0 m 2
 99 0 95 10 95 16 c 0
 95 22 99 32 105 32 c 2
 130 32 l 2
 136 32 140 36 140 42 c 2
 140 162 l 1
 210 162 l 1
 210 42 l 2
 210 36 214 32 220 32 c 2
 245 32 l 2
 251 32 255 22 255 16 c 0
 255 10 251 0 245 0 c 2
 105 0 l 2
140 162 m 1
 140 302 l 2
 140 339 124 354 110 354 c 0
 100 354 89 353 82 351 c 2
 66 343 l 1
 56 343 50 347 50 358 c 1
 175 436 l 2
 177 437 179 438 180 438 c 0
 182 438 193 432 193 425 c 0
 193 422 192 418 189 415 c 2
 166 397 l 1
 184 388 197 364 200 334 c 1
 221 358 271 406 322 406 c 0
 406.315789474 406 430 357 430 268 c 2
 430 162 l 1
 360 162 l 1
 360 258 l 2
 360 334 351 370 312 370 c 0
 271 370 224 333 210 312 c 1
 210 162 l 1
 140 162 l 1
EndSplineSet
Substitution2: "'ss03' Style Set 3 lookup 2-1" uni0442.ss03
Substitution2: "'ss02' Style Set 2 lookup 1-1" uni0442.ss02
Substitution2: "'ss01' Style Set 1 lookup 0-1" uni0442.ss01
EndChar

StartChar: uni0443
Encoding: 227 1091 147
GlifName: uni0443
Width: 541
VWidth: 0
Flags: HW
LayerCount: 2
Back
SplineSet
8 -289 m 4
 8 -272 17.075 -255 41 -255 c 4
 58.6296296296 -255 69.1360409382 -266.208326708 75 -280 c 4
 77.4719384622 -285.813848171 81.75 -293 93 -293 c 4
 108.600135835 -293 152.08743657 -244.656331425 193.341623074 -149 c 6
 230 -64 l 6
 234.961052606 -52.4967773578 239 -25.3445378151 239 -18 c 4
 239 -2.45036538352 232.472096659 11.7866217109 220.6640625 41 c 6
 99 354 l 4
 96.1642335766 360.076642336 92 364 82 364 c 6
 67 364 l 6
 61 364 57 374 57 380 c 4
 57 386 61 396 67 396 c 6
 152 396 l 6
 161 396 165.116840599 391.040208459 167 386 c 6
 285.813476562 56 l 4
 286.496521041 54.5736056846 290.260990337 54 292 54 c 4
 294.113861109 54 295.24073484 54.2040458723 296 56 c 6
 400 314 l 6
 417.279916783 354.873649314 404 364 398 364 c 6
 394 364 l 6
 388 364 384 374 384 380 c 4
 384 386 388 396 394 396 c 6
 471 396 l 6
 477 396 481 386 481 380 c 4
 481 374 477 364 471 364 c 6
 470 364 l 6
 459 364 446.925222322 356.031555789 429 314 c 6
 284 -38 l 6
 213.528918995 -203.242534771 167.879210695 -271.940608183 138 -295 c 4
 108.024679405 -318.133564989 88.1536491677 -324 53 -324 c 4
 31.8235294118 -324 8 -312.863636364 8 -289 c 4
EndSplineSet
Fore
SplineSet
8 -286 m 0
 8 -269 18.8427734375 -251.469726562 41 -251.469726562 c 0
 65.2407428343 -251.469726562 82.5247747139 -270.436405566 82.5247747139 -285.999999623 c 3
 82.5247747139 -287.77156078 82.3763386091 -289.499029378 81.9638671875 -291.149414062 c 1
 83.841796875 -293.517578125 86.2373046875 -295.21484375 90.75 -295.21484375 c 0
 107.234375 -295.21484375 118.373046875 -286.846679688 158.627929688 -223.190429688 c 0
 193.185546875 -173.022460938 219.12890625 -126.041015625 241.286132812 -74.1904296875 c 0
 246.208984375 -62.6708984375 257.881835938 -35.32421875 257.881835938 -23.9619140625 c 0
 257.881835938 -14.0859375 241.904296875 20.4453125 226.9140625 47.5380859375 c 2
 85.2509765625 360.538085938 l 2
 82.4150390625 366.614257812 82.0009765625 363.995117188 72.0009765625 363.995117188 c 2
 41.0009765625 363.995117188 l 2
 35.0009765625 363.995117188 31.0009765625 373.995117188 31.0009765625 379.995117188 c 0
 31.0009765625 385.995117188 35.0009765625 395.995117188 41.0009765625 395.995117188 c 2
 144.000976562 395.995117188 l 2
 153.000976562 395.995117188 157.1171875 391.03515625 159.000976562 385.995117188 c 2
 287.813476562 71.9951171875 l 2
 288.49609375 70.568359375 292.315429688 67.9951171875 296.75 67.9951171875 c 0
 302.266601562 67.9951171875 306.655273438 70.19921875 307.4140625 71.9951171875 c 0
 331.546875 116.228515625 372.185546875 227.123046875 393.75 313.370117188 c 0
 398.274414062 330.881835938 400.607421875 339.915039062 400.545898438 347.493164062 c 0
 400.442382812 360.376953125 393.778320312 363.995117188 390 363.995117188 c 2
 368 363.995117188 l 2
 362 363.995117188 358 373.995117188 358 379.995117188 c 0
 358 385.995117188 362 395.995117188 368 395.995117188 c 2
 509 395.995117188 l 2
 515 395.995117188 519 385.995117188 519 379.995117188 c 0
 519 373.995117188 515 363.995117188 509 363.995117188 c 2
 462.654296875 363.995117188 l 2
 453.791015625 363.995117188 444.794686043 347.392635199 433 313.995117188 c 0
 391.891328788 197.592901625 358.9140625 104.328125 308 -14.0048828125 c 0
 237.529296875 -179.248046875 167.87890625 -268.946289062 142 -300.504882812 c 0
 112.774414062 -330.638671875 94.6943359375 -342.7734375 59.541015625 -342.7734375 c 0
 32.2119140625 -342.7734375 8 -309.864257812 8 -286 c 0
EndSplineSet
Substitution2: "'ss03' Style Set 3 lookup 2-1" uni0443.ss03
Substitution2: "'ss01' Style Set 1 lookup 0-1" uni0443.ss01
EndChar

StartChar: uni0444
Encoding: 228 1092 148
GlifName: uni0444
Width: 510
VWidth: 0
Flags: HW
LayerCount: 2
Fore
SplineSet
220 73 m 1
 210 73 l 2
 117.438016529 73 50 124 50 193 c 0
 50 282.736584232 116.965200735 323 210 323 c 2
 220 323 l 1
 220 297 l 1
 210 297 l 2
 168.885122719 297 130 263.711070883 130 200 c 3
 130 143.588929051 170.441946178 99 210 99 c 2
 220 99 l 1
 220 73 l 1
320 73 m 2
 290 73 l 1
 290 99 l 1
 300 99 l 2
 337.333333333 99 380 144.844503814 380 191 c 0
 380 260.541881845 355.956192437 297 300 297 c 2
 290 297 l 1
 290 323 l 1
 320 323 l 0
 401.100967157 319.830454495 460 275.63215523 460 186 c 3
 460 118.479236985 390.783578064 73 320 73 c 2
EndSplineSet
Refer: 137 1080 N 1 0 0 1 89 0 2
Substitution2: "'ss03' Style Set 3 lookup 2-1" uni0444.ss03
Substitution2: "'ss01' Style Set 1 lookup 0-1" uni0444.ss01
EndChar

StartChar: uni0446
Encoding: 230 1094 149
GlifName: uni0446
Width: 501
VWidth: 0
Flags: HW
LayerCount: 2
Fore
SplineSet
85 20 m 2
 85 354 l 0
 85 359.99609375 81 364 75 364 c 2
 60 364 l 2
 54 364 50 374 50 380 c 0
 50 386 54 396 60 396 c 2
 186 396 l 2
 192 396 196 386 196 380 c 0
 196 374 192 364 186 364 c 2
 171 364 l 2
 165 364 161 359.99609375 161 354 c 2
 161 42 l 2
 161 36 165 32 171 32 c 2
 186 32 l 1
 315 32 l 1
 330 32 l 2
 336 32 340 36 340 42 c 2
 340 354 l 2
 340 359.99609375 336 364 330 364 c 2
 315 364 l 2
 309 364 305 374 305 380 c 0
 305 386 309 396 315 396 c 2
 441 396 l 2
 447 396 451 386 451 380 c 0
 451 374 447 364 441 364 c 2
 426 364 l 2
 420 364 416 359.99609375 416 354 c 0
 416 0 l 1
 105 0 l 2
 93 0 85 8 85 20 c 2
433 -179 m 1
 395.875170786 -156.21875 370.140914172 -144.828125 353.39453125 -144.828125 c 0
 350.293199666 -144.828125 347.484915938 -145.171694687 345 -146 c 0
 337.626004129 -148.457998624 331.007227911 -149.743466318 327.00000022 -149.743466318 c 3
 324.486105153 -149.743466318 323 -149.156501032 323 -148 c 0
 323 -145 352.228882586 -112.168173886 391 -77 c 0
 428 -43.4383561644 458 -11.7945205479 458 -7 c 0
 458 -3 454.440928023 0 449 0 c 0
 396 0 l 1
 396 34 l 1
 481 34 l 2
 484.607183656 34 492 30.0140681828 492 17 c 0
 492 4.26086956522 467.157022209 -22.6490258714 440 -49 c 0
 410.399064503 -77.7223495808 400.876953125 -95.0952673373 400.876953125 -102.025390625 c 0
 400.876953125 -105.685891239 404.124417552 -107 410 -107 c 0
 422 -107 453.929810557 -122.095105036 481 -142 c 0
 510.524191143 -163.709339154 531.753833933 -172.599609375 551.891601562 -172.599609375 c 0
 554.944462866 -172.599609375 557.982058317 -172.46429872 561 -172 c 0
 566.719815924 -171.120028319 571.733130217 -170.748058569 575.999997647 -170.748058569 c 3
 587.382719061 -170.748058569 593.453260117 -173.739313301 593.453260117 -177.999999781 c 3
 593.453260117 -183.032106834 585.774213585 -189.900365231 569 -196 c 0
 540.714094548 -206.285650144 523.448671741 -211.979492188 507.915039062 -211.979492188 c 0
 487.203782934 -211.979492188 469.571227039 -201.857073793 433 -179 c 1
 433 -179 l 1
EndSplineSet
Substitution2: "'ss03' Style Set 3 lookup 2-1" uni0446.ss03
Substitution2: "'ss01' Style Set 1 lookup 0-1" uni0446.ss01
EndChar

StartChar: uni0447
Encoding: 231 1095 150
GlifName: uni0447
Width: 491
VWidth: 0
Flags: HW
LayerCount: 2
Fore
SplineSet
310 209 m 1
 274.502973427 204.340082422 234.461133018 200.802734375 199.415039062 200.802734375 c 0
 109.758702483 200.802734375 85 219 85 282 c 2
 85 354 l 2
 85 359.996441493 81 364 75 364 c 2
 60 364 l 2
 54 364 50 374 50 380 c 0
 50 386 54 396 60 396 c 2
 151 396 l 2
 157 396 161 392 161 386 c 2
 161 282 l 2
 161 240.427510139 175.493470062 223.421875 213.139648438 223.421875 c 0
 246.751832849 223.421875 278.590818309 229.552877386 310 236 c 1
 310 209 l 1
EndSplineSet
Refer: 137 1080 N 1 0 0 1 165 0 2
Substitution2: "'ss03' Style Set 3 lookup 2-1" uni0447.ss03
Substitution2: "'ss01' Style Set 1 lookup 0-1" uni0447.ss01
EndChar

StartChar: uni0448
Encoding: 232 1096 151
GlifName: uni0448
Width: 678
VWidth: 0
Flags: HW
LayerCount: 2
Fore
SplineSet
85 20 m 2
 85 354 l 0
 85 359.99609375 81 364 75 364 c 2
 60 364 l 2
 54 364 50 374 50 380 c 0
 50 386 54 396 60 396 c 2
 186 396 l 2
 192 396 196 386 196 380 c 0
 196 374 192 364 186 364 c 2
 171 364 l 2
 165 364 161 359.99609375 161 354 c 2
 161 42 l 2
 161 36 165 32 171 32 c 2
 186 32 l 1
 276 32 l 1
 291 32 l 2
 297 32 301 36 301 42 c 2
 301 354 l 2
 301 359.99609375 297 364 291 364 c 2
 276 364 l 2
 270 364 266 374 266 380 c 0
 266 386 270 396 276 396 c 2
 402 396 l 2
 408 396 412 386 412 380 c 0
 412 374 408 364 402 364 c 2
 387 364 l 2
 381 364 377 359.99609375 377 354 c 2
 377 42 l 2
 377 36 381 32 387 32 c 2
 402 32 l 1
 492 32 l 1
 507 32 l 2
 513 32 517 36 517 42 c 2
 517 354 l 2
 517 359.99609375 513 364 507 364 c 2
 492 364 l 2
 486 364 482 374 482 380 c 0
 482 386 486 396 492 396 c 2
 618 396 l 2
 624 396 628 386 628 380 c 0
 628 374 624 364 618 364 c 2
 603 364 l 2
 597 364 593 359.99609375 593 354 c 0
 593 20 l 2
 593 8 585 0 573 0 c 2
 105 0 l 2
 93 1.46952762459e-015 85 8 85 20 c 2
EndSplineSet
Substitution2: "'ss03' Style Set 3 lookup 2-1" uni0448.ss03
Substitution2: "'ss01' Style Set 1 lookup 0-1" uni0448.ss01
EndChar

StartChar: uni0449
Encoding: 233 1097 152
GlifName: uni0449
Width: 722
VWidth: 0
Flags: HW
LayerCount: 2
Fore
SplineSet
605.131835938 -82.748046875 m 0
 620.671875 -47.6103515625 633.385742188 -13.986328125 633.385742188 -8.0302734375 c 0
 633.385742188 -3 630.762778275 -5.8325285379e-016 626 0 c 2
 546 0 l 0
 546 34 l 1
 666 34 l 2
 675.45016539 34 681.428710938 27.4900821267 681.428710938 22.2724609375 c 0
 681.428710938 -3.98873291515 611.879712688 -157.319335938 598.845703125 -157.319335938 c 0
 592.260742188 -157.319335938 588.185902795 -153.316549979 586.875 -151.985351562 c 0
 585.832819045 -150.927035383 585.603334627 -147.792091303 585.603334627 -145.000000087 c 3
 585.603334627 -127.737892143 591.344435264 -111.457476743 605.131835938 -82.748046875 c 0
EndSplineSet
Refer: 151 1096 N 1 0 0 1 0 0 2
Substitution2: "'ss03' Style Set 3 lookup 2-1" uni0449.ss03
Substitution2: "'ss01' Style Set 1 lookup 0-1" uni0449.ss01
EndChar

StartChar: uni044A
Encoding: 234 1098 153
GlifName: uni044A_
Width: 529
VWidth: 0
Flags: HW
HStem: 0 32<90.0029 125 195 314.93> 341 24<230.017 378> 477.568 26.3268<67.6808 122.856>
VStem: 21.6318 11.0986<422.055 440.998> 125 70<32 330.075 342 477.562 503.895 504> 385 74<95.3788 274.686>
LayerCount: 2
Fore
SplineSet
90 0 m 2
 84 0 80 6 80 16 c 0
 80 26 84 32 90 32 c 2
 115 32 l 2
 121 32 125 36 125 42 c 2
 125 351 l 1
 125 637 l 2
 125 664.679746061 120.915622571 673.568359375 104.770507812 673.568359375 c 0
 82.7285647486 673.568359375 42.641575264 650.420125803 32.73046875 628.900390625 c 0
 27.7393788418 618.063363203 24.2989995197 612.584960938 22.8076171875 612.584960938 c 0
 21.9797386372 612.584960938 21.6318359375 614.329160646 21.6318359375 617.934570312 c 0
 21.6318359375 622.046234121 22.0841566252 628.578551926 22.79296875 637.705078125 c 0
 25.9915575181 678.889692085 57.1476487481 698.318575013 125 699.895507812 c 1
 125 700 l 1
 134.251953125 700 l 1
 134.251953125 700 l 1
 195 700 l 5
 195 351 l 1
 195 342 l 1
 226 355 280 365 337 365 c 0
 419 365 459 282 459 192 c 0
 459 75 404 -1.77567921304e-014 259 0 c 2
 90 0 l 2
385 186 m 0
 385 267 335.144067797 341 274 341 c 0
 225 341 204 327 195 309 c 1
 195 42 l 2
 195 36 199 32 205 32 c 2
 249 32 l 2
 340.300699301 32 385 97 385 186 c 0
EndSplineSet
Substitution2: "'ss03' Style Set 3 lookup 2-1" uni044A.ss03
Substitution2: "'ss01' Style Set 1 lookup 0-1" uni044A.ss01
EndChar

StartChar: uni044C
Encoding: 236 1100 155
GlifName: uni044C_
Width: 529
VWidth: 0
Flags: HW
HStem: 0 32<90.0029 125 195 314.93> 341 24<230.017 378> 472 32<90.0029 125 195 229.997>
VStem: 125 70<32 330.075 342 472> 385 74<95.3788 274.686>
LayerCount: 2
Fore
SplineSet
385 186 m 0
 385 267 335.144067797 341 274 341 c 0
 225 341 204 327 195 309 c 1
 195 42 l 2
 195 36 199 32 205 32 c 0
 249 32 l 0
 340.300699301 32 385 97 385 186 c 0
90 0 m 2
 84 0 80 6 80 16 c 0
 80 26 84 32 90 32 c 2
 115 32 l 2
 121 32 125 36 125 42 c 2
 125 658 l 2
 125 664 121 668 115 668 c 2
 90 668 l 2
 84 668 80 674 80 684 c 0
 80 694 84 700 90 700 c 2
 230 700 l 2
 236 700 240 694 240 684 c 4
 240 674 236 668 230 668 c 2
 205 668 l 2
 199 668 195 664 195 658 c 2
 195 342 l 1
 226 355 280 365 337 365 c 0
 419 365 459 282 459 192 c 0
 459 75 404 -1.77567921304e-014 259 0 c 2
 90 0 l 2
EndSplineSet
Substitution2: "'ss03' Style Set 3 lookup 2-1" uni044C.ss03
Substitution2: "'ss01' Style Set 1 lookup 0-1" uni044C.ss01
EndChar

StartChar: uni044D
Encoding: 237 1101 156
GlifName: uni044D_
Width: 370
VWidth: 0
Flags: HW
LayerCount: 2
Back
SplineSet
259 190 m 1
 251 296.628930818 208 363 135 363 c 3
 45 363 8 270.442825533 8 194 c 3
 8 100.086648522 57 20 134 20 c 0
 226.148506255 20 259 84.4000219645 259 190 c 1
-72 192 m 3
 -72 295.14893617 9.456410256 394 137 394 c 4
 264.347826087 394 339 309.173061496 339 190 c 3
 339 69.6001670976 257.65123092 -10 127 -10 c 3
 1.177144203 -10 -72 77.4038461538 -72 192 c 3
EndSplineSet
Fore
SplineSet
40 78 m 2
 40 78 41.2857142857 88 49 88 c 3
 58 88 64 79.29296875 64 79.29296875 c 1
 80 52 l 2
 92.2469234549 31.1090688039 124.727272727 17 166 17 c 3
 249.175693169 17 274 87.8061115719 274 191 c 1
 270 233 266 239 242 239 c 0
 218 239 211.444158909 232.213210433 207 194 c 0
 200.525475067 138.328637033 176.487628189 114 142 114 c 3
 112 114 83.4266969258 122.057940036 64 131 c 0
 60.223740049 132.738203002 57.3271484375 137.7358769 57.3271484375 141 c 3
 57.3271484375 146.98972982 57.989207398 151.626953125 64 151.626953125 c 3
 70.6402051523 151.626953125 87.501734606 142 127 142 c 0
 142 142 150.095998041 176.455990696 154 195 c 0
 161.376210956 230.03700204 187.828439443 252.572660284 217 261 c 0
 240.146658536 267.686812466 251.651942622 275.696508392 251.651942622 286.117810684 c 0
 251.651942622 315.922889142 222.26546486 382 150 382 c 3
 120.287130244 382 88.8210831007 371.80802131 78 337.38671875 c 0
 74 324.662926782 72 305 72 299 c 0
 72 293 62 289 56 289 c 0
 50 289 40 293 40 299 c 2
 40 396 l 2
 40 402 41.2001953125 406 47.2001953125 406 c 0
 55.2272490901 406 56.9113722571 403.54711449 67 396 c 0
 73.0867790852 391.446593947 79.533468109 387.127929688 85.2841796875 387.127929688 c 0
 91.4266795719 387.127929688 119.344444554 406 165 406 c 7
 261.820240087 406 338 327.56 338 194 c 1
 338 92.6071095905 285.287878123 -10 172 -10 c 3
 142.10989011 -10 109.6778881 -1.399269112 92 12 c 0
 87.7607871779 15.2131866151 84.0432271682 16.6513671875 81 16.6513671875 c 3
 75.329284656 16.6513671875 72 10.3189518495 72 0 c 0
 72 -5.26315789474 65.1818181818 -10 57 -10 c 0
 47.7272727273 -10 40 -5.38461538462 40 0 c 0
 40 78 l 2
EndSplineSet
Substitution2: "'ss03' Style Set 3 lookup 2-1" uni044D.ss03
Substitution2: "'ss01' Style Set 1 lookup 0-1" uni044D.ss01
EndChar

StartChar: uni044E
Encoding: 238 1102 157
GlifName: uni044E_
Width: 675
VWidth: 0
Flags: HW
LayerCount: 2
Fore
SplineSet
298 192 m 1
 155 192 l 1
 155 215 l 1
 298 215 l 1
 298 192 l 1
556 195 m 3
 556 282.192351088 521.120279292 380 438 380 c 3
 377.113975603 380 329 305.880969482 329 209 c 3
 329 106.417142857 382 22 444 22 c 3
 520.899442505 22 556 110.355739016 556 195 c 3
431 406 m 0
 555.163571948 406 625 321.750248173 625 203 c 3
 625 116.737434752 578.048725945 -10 445 -10 c 0
 300.38116209 -10 259 122.037932194 259 207 c 0
 259 286.719704105 310.378783639 406 431 406 c 0
EndSplineSet
Refer: 137 1080 N 1 0 0 1 0 0 2
Substitution2: "'ss03' Style Set 3 lookup 2-1" uni044E.ss03
Substitution2: "'ss01' Style Set 1 lookup 0-1" uni044E.ss01
EndChar

StartChar: uni044F
Encoding: 239 1103 158
GlifName: uni044F_
Width: 442
VWidth: 0
Flags: HW
HStem: -10 30<34.0942 86.5444> 0 32<242.003 277 347 381.997> 179 22<236.512 272.766> 364 32<215.727 277 347 381.997>
VStem: 114 76<230.124 342.937> 277 70<32 174.963 201.006 364>
LayerCount: 2
Fore
SplineSet
33 9 m 0xbc
 33 15 44 20 56 20 c 0xbc
 87 20 107.343094865 57.8354224921 124 93 c 0
 133 112 145 130 165 155 c 0
 173 165 191 182 198 188 c 1
 156 209 114 232 114 293 c 0
 114 341 157.96039604 396 225 396 c 1
 382 396 l 2
 388 396 392 390 392 380 c 0
 392 370 388 364 382 364 c 2
 357 364 l 2
 351 364 347 360 347 354 c 2
 347 42 l 2
 347 36 351 32 357 32 c 2
 382 32 l 2
 388 32 392 26 392 16 c 0
 392 6 388 0 382 0 c 2
 242 0 l 2
 236 0 232 6 232 16 c 4
 232 26 236 32 242 32 c 2
 267 32 l 2x7c
 273 32 277 36 277 42 c 2
 277 165 l 2
 277 170 274.212678125 174.272393125 273 175 c 0
 268 178 263 179 257 179 c 0
 240 179 214.704554753 149.092915293 201 105 c 0
 178 31 133 -10 76 -10 c 0
 52 -10 33 -1 33 9 c 0xbc
252 364 m 2
 214 364 190 321 190 284 c 0
 190 243 212 201 250 201 c 0
 265 201 277 201 277 204 c 2
 277 354 l 2
 277 360 273 364 267 364 c 2
 252 364 l 2
EndSplineSet
Substitution2: "'ss03' Style Set 3 lookup 2-1" uni044F.ss03
Substitution2: "'ss01' Style Set 1 lookup 0-1" uni044F.ss01
EndChar

StartChar: uni0463
Encoding: 256 1123 159
GlifName: uni0463
Width: 555
VWidth: 0
Flags: HW
LayerCount: 2
Fore
SplineSet
100 16 m 0
 100 26 104 32 110 32 c 2
 145 32 l 2
 151 32 155 36 155 42 c 2
 155 675 l 1
 80.00390625 675 l 2
 74.8161882338 675 72.113636304 670.692027594 70.00390625 667 c 2
 50.00390625 632 l 2
 47.2935981948 627.256960903 41.5465022935 625 36.00390625 625 c 0
 28.9184479442 625 25.2392578125 626.617818753 25.2392578125 631.297851562 c 2
 33.1376953125 711 l 2
 34.041007281 714.564325637 39.4119805108 715.971679688 43.1484375 715.971679688 c 0
 46.5594376704 715.971679688 50.3422944044 714.285384967 55.00390625 711 c 0
 63.6018714821 704.940373704 79.2392578125 700 88.00390625 700 c 2
 155 700 l 1
 155 768 l 2
 155 774 151 778 145 778 c 2
 120 778 l 2
 114 778 110 784 110 794 c 0
 110 804 114 810 120 810 c 2
 260 810 l 2
 266 810 270 804 270 794 c 0
 270 784 266 778 260 778 c 2
 235 778 l 2
 229 778 225 774 225 768 c 2
 225 700 l 1
 292 700 l 2
 301.17805383 700 316.402034768 704.940373704 325 711 c 0
 329.661611846 714.285384967 333.44446858 715.971679688 336.85546875 715.971679688 c 0
 340.591925739 715.971679688 345.962898969 714.564325637 346.866210938 711 c 2
 354.764648438 631.297851562 l 2
 354.764648438 626.617818753 351.085458306 625 344 625 c 0
 338.457403957 625 332.710308055 627.256960903 330 632 c 2
 310 667 l 2
 307.890269946 670.692027594 305.187718016 675 300 675 c 2
 225 675 l 1
 225 331 l 1
 251.86321317 360.799110158 298.72455369 378 349 378 c 0
 450.437835619 378 503 311.729317464 503 193 c 0
 503 86.0483857509 436.621039766 -1.53836323471e-014 311 0 c 2
 110 0 l 2
 104 0 100 6 100 16 c 0
431 197 m 0
 431 302.357137498 374 343 305 343 c 0
 249.65683166 343 235 316.498560793 225 297.041992188 c 1
 225 42 l 2
 225 36 229 32 235 32 c 2
 312.342773438 32 l 2
 413.913836665 32 431 126.561403509 431 197 c 0
EndSplineSet
Substitution2: "'ss01' Style Set 1 lookup 0-1" uni0463.ss01
EndChar

StartChar: uni0462
Encoding: 257 1122 160
GlifName: uni0462
Width: 869
VWidth: 0
Flags: HW
LayerCount: 2
Fore
SplineSet
409 34 m 2
 583.703395835 34 701 161.619200557 701 324 c 0
 701 509 598.514664856 634.021484375 445.706054688 634.021484375 c 0
 393.08286488 634.021484375 318.655025464 600.425132941 295 561 c 1
 295 44 l 2
 295 38 299 34 305 34 c 0
 409 34 l 2
153 1020 m 1
 356 1020 l 1
 360 1015 363 1010 363 1003 c 0
 363 997 360.381630826 986 356 986 c 2
 305 986 l 2
 299 986 295 982 295 976 c 0
 295 902 l 1
 360 902 l 2
 395.017713746 902 433.75641136 914.362444795 447 923 c 0
 455.237692805 928.372677172 461.038029736 931.564453125 466.606445312 931.564453125 c 0
 476.585274107 931.564453125 485.992585147 921.453764871 507 895 c 0
 530.169409798 865.823724704 541.556640625 845.484078025 541.556640625 835.086914062 c 0
 541.556640625 829.799446031 538.612575585 827.083007812 532.776367188 827.083007812 c 0
 523.339201125 827.083007812 506.113680431 833.817312321 482 849 c 0
 455 866 424.959124088 871.487591241 369 873 c 2
 295 873 l 1
 295 611.216796875 l 1
 332 639.999734573 397.167228453 676 501 676 c 0
 691.617994999 676 799 537.175452715 799 336 c 0
 799 165.283115356 689.540812449 -2.23540638757e-014 507 0 c 0
 152 0 l 1
 147.625 5 145 12 145 17 c 0
 145 23.375 148.127332062 34 152 34 c 2
 203 34 l 2
 209 34 213 38 213 44 c 0
 213 873 l 1
 135 873 l 2
 102.48280588 873 75.6021991353 844.104475527 57 810 c 0
 43.0889047889 784.495993579 32.8332061452 771.893554688 26.7314453125 771.893554688 c 0
 22.4315214383 771.893554688 20.1943359375 778.151098014 20.1943359375 790.561523438 c 0
 20.1943359375 798.520017147 20.9686665107 809.030673161 23 822 c 0
 34.0058136746 892.268124572 33.5438132911 902 91.3955078125 902 c 2
 213 902 l 1
 213 976 l 0
 213 982 209 986 203 986 c 2
 153 986 l 2
 149.067929362 986 146 996.625 146 1003 c 0
 146 1008 148.625 1015 153 1020 c 1
EndSplineSet
Substitution2: "'ss01' Style Set 1 lookup 0-1" uni0462.ss01
EndChar

StartChar: uni0472
Encoding: 258 1138 161
GlifName: uni0472
Width: 796
VWidth: 0
Flags: HW
LayerCount: 2
Fore
SplineSet
601 365 m 0
 621 375 640 388 644 394 c 0
 646.115546386 397.305541228 647.09472608 402.411786599 647.09472608 408.904964455 c 0
 647.09472608 451.520067273 604.91780414 553.875525754 565 599 c 0
 530 639 463 662 396 662 c 3
 352 662 309 654 276 634 c 0
 222 603 173 540 156 481 c 0
 149.640216339 456.832822089 145.302775089 418.104778821 145.302775089 393.11152268 c 0
 145.302775089 378.805869497 146.723805295 369 150 369 c 0
 152 369 186 381 226 396 c 0
 268.724636825 412.021738809 303.328486078 420.120758036 334.130889041 420.120758036 c 0
 372.539856945 420.120758036 405.038042916 407.527778188 440 382 c 0
 472.40992215 358.271306998 502.140244672 346.600812316 532.486448506 346.600812316 c 0
 554.574416123 346.600812316 576.988670759 352.783709685 601 365 c 0
501 46 m 0
 566 73 605 115 631 185 c 0
 644.676274152 221.709999039 655.243842353 288.988939921 655.243842353 323.809436624 c 0
 655.243842353 337.363916178 653.642549265 346 650 346 c 0
 647 346 616 333 580 316 c 0
 535.568789798 295.716186647 500.000650569 285.461637816 466.874979551 285.461637816 c 0
 431.410087319 285.461637816 398.7448006 297.215605101 361 321 c 0
 315.301641071 349.487288683 285.453391839 362.476692329 256.404363951 362.476692329 c 0
 236.506882604 362.476692329 216.984374327 356.382414935 193 345 c 0
 159.044798304 328.6753838 145.129877283 316.614657106 145.129877283 290.163315519 c 0
 145.129877283 276.106290381 149.05969296 257.985105345 156 233 c 0
 172 178 228 92 263 69 c 0
 306 40 353 26 400 26 c 3
 434 26 468 32 501 46 c 0
309 -5 m 0
 255 8 210 36 159 86 c 0
 87 159 61 221 58 336 c 0
 57.6937742252 349.01459543 57.5047662318 360.481916145 57.5047662318 370.786039779 c 0
 57.5047662318 427.77947553 63.2871608476 449.186773245 87 500 c 0
 120 569 184 636 249 669 c 0
 281 686 335 695 390 695 c 3
 434 695 478 690 512 679 c 0
 595 653 676 581 711 502 c 0
 733 454 738 423 738 345 c 0
 738.081892687 337.711550851 738.130253313 330.919376204 738.130253313 324.552628471 c 0
 738.130253313 253.174366717 732.051863265 235.267511905 699 171 c 0
 668 110 647 85 599 52 c 0
 534 8 458 -14 384 -14 c 3
 359 -14 334 -11 309 -5 c 0
EndSplineSet
Validated: 1
Substitution2: "'ss01' Style Set 1 lookup 0-1" uni0472.ss01
EndChar

StartChar: uni0473
Encoding: 259 1139 162
GlifName: uni0473
Width: 472
VWidth: 0
Flags: HW
LayerCount: 2
Fore
SplineSet
253 209 m 1
 275.788455704 202.11046688 290.431915363 198.591276952 301.246934362 198.591276952 c 0
 310.838994412 198.591276952 317.419497206 201.359569034 324 207 c 0
 334 215 340 227 340 240 c 3
 340 261 328 287 303 313 c 0
 277 341 251 356 226 356 c 3
 200 356 175 342 150 314 c 0
 125 286 115 262 115 235 c 2
 115 197 l 1
 157 212 l 2
 173.99689438 217.66563146 186.3126292 220.6563146 199.314696398 220.6563146 c 0
 213.85144945 220.6563146 229.246117975 216.917960675 253 209 c 1
 253 209 l 1
276 38 m 0
 309 53 336 97 346 153 c 0
 347.744258649 162.593422572 348.585293447 170.618087928 348.585293447 177.001442173 c 0
 348.585293447 188.922394766 345.652118316 195.119145524 340.190809986 195.119145524 c 0
 335.163879187 195.119145524 327.994983376 189.868938246 319 179 c 0
 306 164 281 154 256 154 c 3
 235 154 214 157 199 167 c 0
 182 178 167 183 154 183 c 3
 130 183 115 164 115 138 c 3
 115 114 127 85 154 56 c 0
 173 35 199 26 228 26 c 3
 244 26 260 31 276 38 c 0
154 8 m 0
 106 29 50 100 41 151 c 0
 40 160 39 170 39 180 c 3
 39 262 87 341 159 365 c 0
 180 372 206 374 232 374 c 3
 274 374 315 363 339 346 c 0
 395 304 411 271 411 196 c 0
 411 138 406 119 379 80 c 0
 361 54 331 24 313 13 c 0
 291 -0 260 -7 228 -7 c 3
 202 -7 176 -2 154 8 c 0
EndSplineSet
Validated: 1
Substitution2: "'ss01' Style Set 1 lookup 0-1" uni0473.ss01
EndChar

StartChar: uni0418.ss01
Encoding: 268 -1 171
GlifName: uni0418.ss01
Width: 884
VWidth: 0
Flags: HW
LayerCount: 2
Fore
SplineSet
220 116 m 1
 670 631 l 1
 670 567 l 1
 220 52 l 1
 220 116 l 1
584 690 m 1
 787 690 l 1
 791 685 794 680 794 673 c 0
 794 667 791.381630826 656 787 656 c 2
 736 656 l 2
 730 656 726 652 726 646 c 2
 726 44 l 2
 726 38 730 34 736 34 c 2
 787 34 l 2
 791.381630825 34 794 23 794 17 c 0
 794 10 791 5 787 0 c 1
 583 0 l 1
 578.625 5 576 12 576 17 c 0
 576 23.375 579.127332062 34 583 34 c 2
 634 34 l 2
 640 34 644 38 644 44 c 2
 644 646 l 2
 644 652 640 656 634 656 c 2
 584 656 l 2
 580.067929362 656 577 666.625 577 673 c 0
 577 678 579.625 685 584 690 c 1
98 690 m 1
 301 690 l 1
 305 685 308 680 308 673 c 0
 308 667 305.381630826 656 301 656 c 2
 250 656 l 2
 244 656 240 652 240 646 c 2
 240 44 l 2
 240 38 244 34 250 34 c 2
 301 34 l 2
 305.381630825 34 308 23 308 17 c 0
 308 10 305 5 301 0 c 1
 97 0 l 1
 92.625 5 90 12 90 17 c 0
 90 23.375 93.1273320616 34 97 34 c 2
 148 34 l 2
 154 34 158 38 158 44 c 2
 158 646 l 2
 158 652 154 656 148 656 c 2
 98 656 l 2
 94.067929362 656 91 666.625 91 673 c 0
 91 678 93.625 685 98 690 c 1
EndSplineSet
EndChar

StartChar: uni041F.ss01
Encoding: 275 -1 178
GlifName: uni041F_.ss01
Width: 882
VWidth: 0
Flags: HW
LayerCount: 2
Fore
SplineSet
98 690 m 1
 301 690 l 1
 305 685 308 680 308 673 c 0
 308 667 305.381835938 656 301 656 c 2
 250 656 l 2
 244 656 240 652 240 646 c 2
 240 44 l 2
 240 38 244 34 250 34 c 2
 301 34 l 2
 305.381835938 34 308 23 308 17 c 0
 308 10 305 5 301 0 c 1
 97 0 l 1
 92.625 5 90 12 90 17 c 0
 90 23.375 93.126953125 34 97 34 c 2
 148 34 l 2
 154 34 158 38 158 44 c 2
 158 646 l 2
 158 652 154 656 148 656 c 2
 98 656 l 2
 94.068359375 656 91 666.625 91 673 c 0
 91 678 93.625 685 98 690 c 1
582 690 m 1
 785 690 l 1
 789 685 792 680 792 673 c 0
 792 667 789.381835938 656 785 656 c 2
 734 656 l 2
 728 656 724 652 724 646 c 2
 724 44 l 2
 724 38 728 34 734 34 c 2
 785 34 l 2
 789.381835938 34 792 23 792 17 c 0
 792 10 789 5 785 0 c 1
 581 0 l 1
 576.625 5 574 12 574 17 c 0
 574 23.375 577.126953125 34 581 34 c 2
 632 34 l 2
 638 34 642 38 642 44 c 2
 642 646 l 2
 642 652 638 656 632 656 c 2
 582 656 l 2
 578.068359375 656 575 666.625 575 673 c 0
 575 678 577.625 685 582 690 c 1
210 690 m 1
 674 690 l 1
 674 656 l 1
 210 656 l 1
 210 690 l 1
EndSplineSet
EndChar

